<svg width="75" height="20" viewBox="0 0 75 20" fill="none" xmlns="http://www.w3.org/2000/svg">
<g clip-path="url(#clip0)">
<path d="M6.13587 1.542e-06C5.82006 0.000139301 5.51022 0.0861226 5.23951 0.248755C4.96879 0.411387 4.74737 0.64455 4.59894 0.923305C4.45051 1.20206 4.38064 1.51592 4.39682 1.83132C4.41299 2.14671 4.5146 2.45178 4.69077 2.71389L5.43483 1.97088C5.41024 1.89676 5.39783 1.81914 5.3981 1.74105C5.3981 1.59575 5.44118 1.45372 5.52191 1.33291C5.60263 1.21211 5.71736 1.11795 5.85159 1.06235C5.98583 1.00675 6.13353 0.992198 6.27604 1.02054C6.41854 1.04889 6.54943 1.11885 6.65217 1.22159C6.75491 1.32433 6.82488 1.45523 6.85322 1.59773C6.88157 1.74023 6.86702 1.88794 6.81142 2.02217C6.75582 2.15641 6.66166 2.27114 6.54085 2.35186C6.42004 2.43258 6.27801 2.47566 6.13272 2.47566C6.05498 2.47584 5.97772 2.46343 5.90394 2.43893L5.16092 3.18195C5.38642 3.33489 5.64467 3.43277 5.9149 3.46771C6.18512 3.50266 6.45977 3.47369 6.71676 3.38314C6.97375 3.2926 7.2059 3.143 7.39453 2.94638C7.58317 2.74976 7.72302 2.51161 7.80284 2.25109C7.88266 1.99057 7.90023 1.71496 7.85412 1.44641C7.80801 1.17787 7.69951 0.923899 7.53736 0.704928C7.37521 0.485957 7.16393 0.3081 6.92051 0.185666C6.67709 0.0632325 6.40834 -0.000361066 6.13587 1.542e-06V1.542e-06Z" fill="#34A853"/>
<path d="M5.44318 5.07421C5.44432 4.48608 5.25386 3.91359 4.90062 3.44336L3.93512 4.40781C4.08194 4.67635 4.13562 4.98598 4.08777 5.28827C4.03992 5.59056 3.89324 5.86847 3.67065 6.07854L4.19538 7.36097C4.578 7.11455 4.89271 6.77611 5.1107 6.37661C5.32869 5.97711 5.44301 5.52931 5.44318 5.07421V5.07421Z" fill="#FBBC04"/>
<path d="M2.74494 6.45832H2.71975C2.50387 6.45834 2.29098 6.4079 2.09805 6.31104C1.90512 6.21417 1.7375 6.07355 1.60857 5.9004C1.47963 5.72726 1.39295 5.52637 1.35543 5.31378C1.31791 5.10118 1.33061 4.88276 1.39249 4.67594C1.45437 4.46912 1.56374 4.27962 1.71186 4.12257C1.85998 3.96552 2.04275 3.84526 2.2456 3.77139C2.44845 3.69752 2.66575 3.67208 2.88018 3.6971C3.09461 3.72212 3.30022 3.7969 3.48061 3.91549L4.43666 2.95944C4.0983 2.68513 3.69905 2.49601 3.27246 2.40798C2.84586 2.31995 2.40437 2.33557 1.98506 2.45353C1.56575 2.57149 1.18087 2.78835 0.862742 3.08589C0.544616 3.38343 0.302532 3.75297 0.156825 4.16346C0.0111172 4.57395 -0.03396 5.01342 0.025379 5.44494C0.084718 5.87647 0.246741 6.28745 0.497839 6.64338C0.748937 6.99931 1.08178 7.28979 1.46841 7.49042C1.85504 7.69105 2.28417 7.79597 2.71975 7.79637C2.90441 7.79647 3.08863 7.77818 3.26967 7.7418L2.74494 6.45832Z" fill="#EA4335"/>
<path d="M6.17259 7.5677C5.56832 7.56709 4.96723 7.65513 4.38852 7.82901L5.15357 9.69809C5.48659 9.61556 5.82844 9.57398 6.17154 9.57426C7.13564 9.57454 8.06982 9.90908 8.81492 10.5209C9.56002 11.1327 10.0699 11.9839 10.2578 12.9295C10.4457 13.8752 10.2999 14.8567 9.84525 15.7068C9.39062 16.557 8.65527 17.2232 7.7645 17.5921C6.87373 17.9609 5.88264 18.0094 4.96009 17.7294C4.03754 17.4494 3.24061 16.8583 2.70506 16.0566C2.16951 15.2549 1.92848 14.2924 2.02304 13.3329C2.11759 12.3735 2.54188 11.4765 3.22362 10.7948C3.51696 10.5023 3.85185 10.2548 4.21746 10.0602L3.4608 8.19632C2.09839 8.86356 1.0291 10.0087 0.456687 11.4136C-0.115726 12.8185 -0.15124 14.3849 0.356912 15.8143C0.865064 17.2436 1.88136 18.4361 3.21212 19.1644C4.54289 19.8927 6.0951 20.1059 7.57295 19.7634C9.05081 19.4209 10.351 18.5467 11.2257 17.3072C12.1005 16.0678 12.4887 14.5499 12.3163 13.0427C12.1439 11.5355 11.4229 10.1444 10.2909 9.13453C9.15888 8.12465 7.69486 7.56658 6.17784 7.56665L6.17259 7.5677Z" fill="#4285F4"/>
<path d="M18.3337 2.55444H20.0706V15.6653H26.4649V17.3161H18.3337V2.55444Z" fill="#5F6368"/>
<path d="M28.9824 16.6055C28.1983 16.14 27.5572 15.4681 27.1291 14.663C26.6818 13.8283 26.4533 12.8939 26.4648 11.947C26.454 11.0015 26.6825 10.0687 27.1291 9.23522C27.5572 8.43014 28.1983 7.75817 28.9824 7.29268C29.7966 6.82467 30.7194 6.57837 31.6585 6.57837C32.5977 6.57837 33.5204 6.82467 34.3346 7.29268C35.1186 7.75862 35.76 8.43045 36.189 9.23522C36.6358 10.0701 36.8643 11.0044 36.8533 11.9512C36.8643 12.898 36.6358 13.8323 36.189 14.6672C35.7602 15.4718 35.1193 16.1436 34.3357 16.6097C33.5214 17.0777 32.5987 17.324 31.6596 17.324C30.7204 17.324 29.7977 17.0777 28.9835 16.6097L28.9824 16.6055ZM33.3901 15.3273C33.9354 15.0083 34.3823 14.5454 34.682 13.9892C35.0173 13.3618 35.1847 12.6583 35.1679 11.947C35.1846 11.2358 35.0172 10.5323 34.682 9.90477C34.3832 9.34904 33.9374 8.88615 33.3933 8.56672C32.8673 8.25857 32.2681 8.09762 31.6585 8.10076C31.0355 8.09832 30.4236 8.26478 29.8877 8.58244C29.3518 8.9001 28.912 9.35708 28.6151 9.90477C28.2807 10.5325 28.1137 11.2359 28.1303 11.947C28.1136 12.6581 28.2806 13.3615 28.6151 13.9892C28.8365 14.3953 29.137 14.7529 29.4988 15.041C29.8606 15.329 30.2765 15.5417 30.7219 15.6664C31.1672 15.7911 31.6331 15.8254 32.0919 15.7671C32.5507 15.7089 32.9932 15.5593 33.3933 15.3273H33.3901Z" fill="#5F6368"/>
<path d="M40.2724 16.6055C39.4888 16.1395 38.8478 15.4676 38.4191 14.663C37.9723 13.8281 37.7438 12.8939 37.7548 11.947C37.7445 11.0016 37.973 10.0689 38.4191 9.23522C38.8478 8.43059 39.4888 7.75877 40.2724 7.29268C41.0866 6.82467 42.0094 6.57837 42.9485 6.57837C43.8877 6.57837 44.8104 6.82467 45.6246 7.29268C46.4088 7.75832 47.0503 8.43023 47.479 9.23522C47.9258 10.0701 48.1543 11.0044 48.1433 11.9512C48.1543 12.898 47.9258 13.8323 47.479 14.6672C47.0506 15.472 46.4095 16.1439 45.6257 16.6097C44.8114 17.0777 43.8887 17.324 42.9496 17.324C42.0104 17.324 41.0877 17.0777 40.2735 16.6097L40.2724 16.6055ZM44.6801 15.3273C45.224 15.0076 45.6698 14.5448 45.9688 13.9892C46.3037 13.3616 46.4711 12.6582 46.4547 11.947C46.4709 11.2358 46.3036 10.5325 45.9688 9.90477C45.6698 9.34926 45.224 8.88645 44.6801 8.56672C44.1541 8.25857 43.555 8.09762 42.9454 8.10076C42.3326 8.09855 41.7303 8.25937 41.2001 8.56672C40.6518 8.88392 40.2024 9.34715 39.902 9.90477C39.5667 10.5323 39.3994 11.2358 39.4161 11.947C39.3992 12.6583 39.5666 13.3618 39.902 13.9892C40.2024 14.5469 40.6518 15.0101 41.2001 15.3273C41.7303 15.6346 42.3326 15.7955 42.9454 15.7933C43.5564 15.7972 44.1571 15.6362 44.6843 15.3273H44.6801Z" fill="#5F6368"/>
<path d="M49.3911 2.55444H51.1269V11.8862L56.3532 6.577H58.557V6.65886L54.1493 11.1096L58.3576 17.2384V17.3161H56.2755L52.9246 12.3102L51.1269 14.1121V17.3161H49.3911V2.55444Z" fill="#5F6368"/>
<path d="M60.5983 16.6254C59.8346 16.166 59.2134 15.5037 58.8038 14.7122C58.3657 13.8632 58.1446 12.9189 58.1605 11.9637C58.1533 11.0344 58.3609 10.1161 58.767 9.28025C59.1502 8.47704 59.7467 7.79455 60.4913 7.30727C61.2556 6.81326 62.1494 6.55756 63.0593 6.57265C64.05 6.57265 64.9092 6.79409 65.6368 7.23696C66.3606 7.67505 66.9434 8.31176 67.3159 9.0714C67.7175 9.90754 67.9166 10.8264 67.8973 11.7538C67.8966 11.9263 67.8833 12.0985 67.8574 12.2691H59.8448C59.8847 13.0387 60.0698 13.6866 60.4 14.2127C60.7042 14.7159 61.1395 15.1269 61.6593 15.4017C62.1512 15.6619 62.6991 15.7981 63.2556 15.7984C64.5765 15.7984 65.5742 15.1904 66.2486 13.9745L67.6759 14.6681C67.2688 15.457 66.6601 16.1239 65.9117 16.6012C65.1582 17.0777 64.2529 17.3159 63.1958 17.3159C62.2827 17.331 61.3834 17.092 60.5983 16.6254V16.6254ZM66.1132 10.8765C66.0812 10.4338 65.9598 10.0022 65.7564 9.60768C65.5288 9.16769 65.186 8.79772 64.7647 8.53723C64.3155 8.24618 63.7474 8.10066 63.0604 8.10066C62.3129 8.08364 61.588 8.35713 61.0381 8.86361C60.4833 9.37295 60.1198 10.0439 59.9477 10.8765H66.1132Z" fill="#5F6368"/>
<path d="M69.0181 6.57898H70.672V8.57294H70.7539C70.9582 8.00064 71.3531 7.52384 71.9387 7.14254C72.4812 6.77628 73.1197 6.57841 73.7742 6.57373C74.194 6.56306 74.6115 6.6399 75 6.79936V8.65795C74.5425 8.43545 74.0393 8.3233 73.5307 8.33052C73.0344 8.32813 72.5494 8.47834 72.1412 8.76079C71.7125 9.05467 71.3647 9.45165 71.1296 9.91519C70.878 10.3989 70.7483 10.9368 70.7518 11.482V17.3159H69.0181V6.57898Z" fill="#5F6368"/>
</g>
<defs>
<clipPath id="clip0">
<rect width="75" height="19.9228" fill="white"/>
</clipPath>
</defs>
</svg>
