<svg width="24" height="24" viewBox="0 0 24 24" fill="none" xmlns="http://www.w3.org/2000/svg">
<path fill-rule="evenodd" clip-rule="evenodd" d="M11.2658 2.24885C11.5376 2.0858 11.8486 1.99978 12.1655 2C12.4388 1.9998 12.7082 2.06373 12.9523 2.18664C13.1963 2.30956 13.4081 2.48802 13.5707 2.7077C13.7332 2.92737 13.8419 3.18211 13.888 3.45144C13.9341 3.72077 13.9164 3.99717 13.8363 4.25841C13.7562 4.51965 13.6159 4.75844 13.4266 4.95558C13.2374 5.15272 13.0046 5.30271 12.7468 5.39347C12.4891 5.48424 12.2137 5.51326 11.9427 5.47819C11.6717 5.44313 11.4127 5.34496 11.1866 5.19158L11.9318 4.44632C12.0058 4.47098 12.0833 4.48342 12.1613 4.48316C12.307 4.48316 12.4495 4.43994 12.5707 4.35898C12.6918 4.27801 12.7863 4.16293 12.842 4.02829C12.8978 3.89365 12.9124 3.7455 12.884 3.60257C12.8555 3.45963 12.7854 3.32834 12.6823 3.22529C12.5793 3.12224 12.448 3.05206 12.305 3.02363C12.1621 2.9952 12.014 3.00979 11.8793 3.06556C11.7447 3.12133 11.6296 3.21578 11.5486 3.33695C11.4677 3.45812 11.4244 3.60058 11.4244 3.74632C11.4247 3.8246 11.4371 3.90238 11.4613 3.97684L10.716 4.72211C10.5389 4.45928 10.4367 4.15323 10.4203 3.83674C10.4039 3.52026 10.4739 3.20527 10.6229 2.92554C10.7718 2.64581 10.9941 2.41189 11.2658 2.24885ZM10.9219 5.45313C11.2774 5.92438 11.4695 6.49864 11.4693 7.08892C11.469 7.54524 11.3543 7.99421 11.1357 8.39474C10.917 8.79526 10.6014 9.13455 10.2177 9.38155L9.69141 8.09523C9.82826 7.96553 9.93729 7.80933 10.0118 7.63615C10.0864 7.46296 10.1249 7.27642 10.1251 7.08786C10.1255 6.85444 10.0665 6.62476 9.95351 6.42049L10.9219 5.45313ZM8.75938 8.47652H8.73201C8.51543 8.47671 8.30181 8.42626 8.10819 8.3292C7.91458 8.23215 7.74633 8.09118 7.61688 7.91755C7.48743 7.74392 7.40036 7.54243 7.36262 7.32916C7.32488 7.1159 7.33752 6.89676 7.39952 6.68925C7.46153 6.48174 7.57118 6.29159 7.71974 6.13399C7.86829 5.97639 8.05163 5.8557 8.25512 5.78155C8.45861 5.7074 8.67662 5.68184 8.89174 5.70692C9.10686 5.732 9.31314 5.80702 9.49411 5.926L10.4541 4.96705C10.1147 4.69127 9.71404 4.50102 9.28581 4.41229C8.85758 4.32355 8.41431 4.33894 7.99326 4.45714C7.57222 4.57534 7.18571 4.79291 6.86623 5.09155C6.54675 5.3902 6.30365 5.76118 6.15736 6.17331C6.01107 6.58544 5.96587 7.02667 6.02557 7.4599C6.08526 7.89313 6.2481 8.3057 6.50039 8.66291C6.75269 9.02012 7.08706 9.31154 7.4754 9.51265C7.86374 9.71376 8.29468 9.8187 8.73201 9.81863C8.91722 9.81861 9.10198 9.80028 9.28359 9.76389L8.75938 8.47652ZM10.4105 9.853C10.9909 9.67852 11.5938 9.59021 12.1999 9.5909L12.1957 9.58984C13.7171 9.58983 15.1852 10.1495 16.3205 11.1623C17.4557 12.1751 18.1786 13.5702 18.3515 15.0816C18.5243 16.5931 18.135 18.1154 17.2578 19.3583C16.3805 20.6012 15.0766 21.478 13.5946 21.8214C12.1125 22.1649 10.5559 21.9511 9.22136 21.2207C7.8868 20.4904 6.8676 19.2946 6.35797 17.8611C5.84835 16.4277 5.88392 14.8569 6.45792 13.448C7.03192 12.0391 8.10422 10.8906 9.47047 10.2214L10.2378 12.0909C9.87129 12.2859 9.5357 12.5342 9.24205 12.8277C8.55798 13.5116 8.13219 14.4116 8.03725 15.3742C7.9423 16.3368 8.18407 17.3026 8.72135 18.1069C9.25864 18.9113 10.0582 19.5045 10.9838 19.7854C11.9094 20.0663 12.9038 20.0176 13.7975 19.6476C14.6912 19.2776 15.429 18.6091 15.8851 17.7561C16.3413 16.9031 16.4875 15.9184 16.299 14.9696C16.1104 14.0209 15.5987 13.1668 14.8511 12.5531C14.1035 11.9393 13.1662 11.6037 12.1989 11.6035C11.8544 11.6032 11.5112 11.6449 11.1768 11.7277L10.4105 9.853Z" fill="#1C2125"/>
</svg>
