<svg width="75" height="20" viewBox="0 0 75 20" fill="none" xmlns="http://www.w3.org/2000/svg">
<g clip-path="url(#clip0)">
<path d="M6.13964 1.54189e-06C5.82386 0.000139291 5.51405 0.0861163 5.24335 0.248736C4.97265 0.411357 4.75125 0.644502 4.60283 0.923237C4.45441 1.20197 4.38455 1.51581 4.40072 1.83118C4.4169 2.14656 4.5185 2.4516 4.69465 2.71369L5.43866 1.97073C5.41407 1.89662 5.40167 1.819 5.40193 1.74092C5.40193 1.59563 5.44501 1.45361 5.52573 1.33282C5.60644 1.21202 5.72117 1.11787 5.85539 1.06227C5.98961 1.00667 6.13731 0.992125 6.2798 1.02047C6.42229 1.04881 6.55318 1.11877 6.65591 1.2215C6.75864 1.32423 6.8286 1.45512 6.85694 1.59761C6.88529 1.7401 6.87074 1.8878 6.81514 2.02202C6.75955 2.15625 6.6654 2.27097 6.5446 2.35169C6.4238 2.4324 6.28178 2.47548 6.1365 2.47548C6.05876 2.47565 5.98151 2.46325 5.90773 2.43875L5.16477 3.18171C5.39026 3.33464 5.64849 3.43251 5.91869 3.46746C6.18889 3.5024 6.46353 3.47343 6.72049 3.38289C6.97746 3.29235 7.2096 3.14276 7.39822 2.94616C7.58684 2.74956 7.72668 2.51143 7.80649 2.25093C7.88631 1.99043 7.90387 1.71483 7.85777 1.44631C7.81166 1.17778 7.70317 0.92383 7.54103 0.704876C7.37889 0.485921 7.16763 0.308078 6.92423 0.185653C6.68083 0.0632278 6.4121 -0.000361039 6.13964 1.54189e-06V1.54189e-06Z" fill="#1C2125"/>
<path d="M5.44818 5.07409C5.44932 4.48601 5.25887 3.91355 4.90565 3.44336L3.94022 4.40774C4.08704 4.67626 4.14071 4.98586 4.09287 5.28813C4.04502 5.5904 3.89835 5.86829 3.67578 6.07834L4.20047 7.36068C4.58306 7.11428 4.89774 6.77586 5.11572 6.37639C5.3337 5.97692 5.448 5.52916 5.44818 5.07409V5.07409Z" fill="#1C2125"/>
<path d="M2.74864 6.45777H2.72346C2.50759 6.45779 2.29471 6.40736 2.1018 6.3105C1.90889 6.21364 1.74128 6.07303 1.61235 5.8999C1.48343 5.72676 1.39675 5.52589 1.35924 5.31331C1.32172 5.10073 1.33441 4.88233 1.39629 4.67552C1.45817 4.46872 1.56753 4.27924 1.71564 4.1222C1.86375 3.96516 2.04651 3.84491 2.24934 3.77104C2.45217 3.69717 2.66946 3.67173 2.88387 3.69675C3.09828 3.72177 3.30388 3.79655 3.48426 3.91513L4.44024 2.95915C4.1019 2.68486 3.70269 2.49576 3.27612 2.40773C2.84956 2.31971 2.4081 2.33533 1.98882 2.45328C1.56954 2.57123 1.18469 2.78808 0.866585 3.08559C0.548482 3.38311 0.306416 3.75262 0.160719 4.16308C0.0150226 4.57355 -0.0300513 5.01298 0.0292834 5.44447C0.0886181 5.87596 0.250629 6.28692 0.501708 6.64282C0.752788 6.99872 1.0856 7.28918 1.47221 7.48979C1.85881 7.69041 2.28791 7.79532 2.72346 7.79573C2.90811 7.79582 3.0923 7.77754 3.27333 7.74116L2.74864 6.45777Z" fill="#1C2125"/>
<path d="M6.17604 7.56746C5.57181 7.56684 4.97077 7.65488 4.3921 7.82875L5.15709 9.69769C5.49009 9.61517 5.83192 9.57359 6.17499 9.57386C7.13902 9.57415 8.07312 9.90866 8.81817 10.5204C9.56321 11.1322 10.0731 11.9834 10.261 12.9289C10.4488 13.8745 10.303 14.8559 9.84842 15.706C9.39382 16.5561 8.65853 17.2223 7.76783 17.5911C6.87712 17.9598 5.88611 18.0084 4.96363 17.7284C4.04115 17.4485 3.24427 16.8573 2.70876 16.0557C2.17325 15.2541 1.93224 14.2916 2.02679 13.3322C2.12134 12.3729 2.5456 11.4759 3.22729 10.7943C3.52061 10.5019 3.85547 10.2544 4.22105 10.0597L3.46445 8.19603C2.10214 8.86322 1.03293 10.0083 0.460559 11.4131C-0.111811 12.8179 -0.147322 14.3841 0.360792 15.8134C0.868906 17.2427 1.88512 18.4351 3.21579 19.1633C4.54646 19.8915 6.09855 20.1047 7.5763 19.7623C9.05404 19.4198 10.3541 18.5456 11.2288 17.3063C12.1035 16.0669 12.4916 14.5491 12.3192 13.042C12.1469 11.535 11.426 10.144 10.2941 9.13417C9.16211 8.12437 7.69819 7.56633 6.18128 7.56641L6.17604 7.56746Z" fill="#1C2125"/>
<path d="M18.3359 2.55469H20.0727V15.6646H26.4665V17.3152H18.3359V2.55469Z" fill="#1C2125"/>
<path d="M28.9827 16.6046C28.1987 16.1391 27.5576 15.4672 27.1295 14.6622C26.6823 13.8275 26.4538 12.8932 26.4653 11.9464C26.4545 11.001 26.683 10.0682 27.1295 9.23478C27.5576 8.42976 28.1987 7.75784 28.9827 7.29238C29.7969 6.8244 30.7195 6.57812 31.6586 6.57812C32.5977 6.57812 33.5204 6.8244 34.3345 7.29238C35.1185 7.75829 35.7598 8.43007 36.1888 9.23478C36.6355 10.0696 36.864 11.0038 36.853 11.9506C36.864 12.8973 36.6355 13.8315 36.1888 14.6664C35.76 15.4709 35.1191 16.1427 34.3356 16.6088C33.5214 17.0767 32.5987 17.323 31.6597 17.323C30.7206 17.323 29.7979 17.0767 28.9838 16.6088L28.9827 16.6046ZM33.3901 15.3264C33.9353 15.0075 34.3822 14.5446 34.6819 13.9885C35.0172 13.361 35.1846 12.6576 35.1677 11.9464C35.1844 11.2352 35.0171 10.5317 34.6819 9.90428C34.3831 9.34859 33.9373 8.88574 33.3932 8.56633C32.8673 8.2582 32.2682 8.09726 31.6586 8.1004C31.0357 8.09796 30.4238 8.26441 29.8879 8.58205C29.352 8.89969 28.9123 9.35663 28.6154 9.90428C28.281 10.532 28.1141 11.2353 28.1306 11.9464C28.114 12.6574 28.281 13.3608 28.6154 13.9885C28.8368 14.3945 29.1372 14.7521 29.4991 15.0401C29.8609 15.3281 30.2767 15.5408 30.722 15.6655C31.1674 15.7902 31.6332 15.8244 32.0919 15.7662C32.5507 15.708 32.9932 15.5584 33.3932 15.3264H33.3901Z" fill="#1C2125"/>
<path d="M40.2717 16.6046C39.4882 16.1385 38.8473 15.4667 38.4185 14.6622C37.9718 13.8273 37.7433 12.8931 37.7543 11.9464C37.744 11.001 37.9725 10.0684 38.4185 9.23478C38.8473 8.43021 39.4882 7.75844 40.2717 7.29238C41.0859 6.8244 42.0086 6.57812 42.9476 6.57812C43.8867 6.57812 44.8094 6.8244 45.6236 7.29238C46.4077 7.75799 47.0491 8.42985 47.4778 9.23478C47.9245 10.0696 48.153 11.0038 48.1421 11.9506C48.153 12.8973 47.9245 13.8315 47.4778 14.6664C47.0494 15.4711 46.4084 16.143 45.6246 16.6088C44.8104 17.0767 43.8878 17.323 42.9487 17.323C42.0096 17.323 41.087 17.0767 40.2728 16.6088L40.2717 16.6046ZM44.6791 15.3264C45.223 15.0067 45.6687 14.5439 45.9678 13.9885C46.3026 13.3609 46.4699 12.6575 46.4536 11.9464C46.4698 11.2352 46.3025 10.5319 45.9678 9.90428C45.6687 9.34882 45.223 8.88604 44.6791 8.56633C44.1532 8.2582 43.554 8.09726 42.9445 8.1004C42.3318 8.0982 41.7295 8.259 41.1994 8.56633C40.6511 8.8835 40.2018 9.3467 39.9013 9.90428C39.5661 10.5317 39.3987 11.2352 39.4154 11.9464C39.3986 12.6576 39.566 13.361 39.9013 13.9885C40.2018 14.546 40.6511 15.0092 41.1994 15.3264C41.7295 15.6337 42.3318 15.7945 42.9445 15.7923C43.5555 15.7962 44.1562 15.6353 44.6833 15.3264H44.6791Z" fill="#1C2125"/>
<path d="M49.3906 2.55469H51.1263V11.8857L56.3522 6.57695H58.5559V6.6588L54.1485 11.1092L58.3565 17.2376V17.3152H56.2745L52.9239 12.3097L51.1263 14.1115V17.3152H49.3906V2.55469Z" fill="#1C2125"/>
<path d="M60.5987 16.6249C59.835 16.1656 59.2138 15.5033 58.8042 14.7119C58.3661 13.8629 58.1451 12.9187 58.1609 11.9635C58.1537 11.0343 58.3613 10.116 58.7675 9.28029C59.1506 8.47714 59.747 7.7947 60.4916 7.30746C61.2558 6.81348 62.1496 6.5578 63.0594 6.5729C64.0501 6.5729 64.9092 6.79432 65.6367 7.23715C66.3605 7.67522 66.9432 8.31188 67.3157 9.07146C67.7173 9.90754 67.9164 10.8264 67.8971 11.7537C67.8964 11.9262 67.883 12.0984 67.8572 12.2689H59.8452C59.8851 13.0385 60.0701 13.6863 60.4003 14.2123C60.7045 14.7155 61.1398 15.1265 61.6596 15.4013C62.1514 15.6615 62.6993 15.7977 63.2557 15.798C64.5765 15.798 65.5741 15.19 66.2485 13.9741L67.6757 14.6678C67.2686 15.4565 66.66 16.1235 65.9117 16.6007C65.1582 17.0771 64.2529 17.3154 63.1959 17.3154C62.2829 17.3305 61.3836 17.0914 60.5987 16.6249V16.6249ZM66.1131 10.8764C66.0811 10.4337 65.9597 10.0022 65.7563 9.60769C65.5287 9.16774 65.186 8.7978 64.7647 8.53733C64.3156 8.2463 63.7475 8.10079 63.0605 8.10079C62.3131 8.08377 61.5882 8.35724 61.0383 8.86368C60.4836 9.37298 60.1201 10.0439 59.948 10.8764H66.1131Z" fill="#1C2125"/>
<path d="M69.0156 6.57849H70.6694V8.57231H70.7513C70.9556 8.00005 71.3505 7.52328 71.936 7.142C72.4785 6.77578 73.1169 6.57792 73.7714 6.57324C74.1912 6.56257 74.6086 6.63941 74.9971 6.79886V8.65731C74.5397 8.43482 74.0365 8.32268 73.5279 8.3299C73.0317 8.32751 72.5466 8.47771 72.1386 8.76014C71.7099 9.054 71.362 9.45095 71.127 9.91446C70.8754 10.3982 70.7457 10.936 70.7492 11.4812V17.3147H69.0156V6.57849Z" fill="#1C2125"/>
</g>
<defs>
<clipPath id="clip0">
<path d="M0 0H75V19.9172H0V0Z" fill="white"/>
</clipPath>
</defs>
</svg>
