<svg width="24" height="24" viewBox="0 0 24 24" fill="none" xmlns="http://www.w3.org/2000/svg">
<path d="M21.8044 6.44253C21.7331 6.17035 21.4568 6.00066 21.186 6.05607L16.3798 7.01335C15.9584 6.51318 15.3709 6.18636 14.7304 6.13641C14.2774 6.10109 13.8155 6.17658 13.3785 6.35042C12.2302 6.80545 11.9261 7.88449 11.6823 8.7523C11.6225 8.96388 11.564 9.17391 11.4934 9.3726C8.74464 7.47963 3.83106 5.54386 2.34629 6.09555C2.13782 6.17312 2 6.37258 2 6.5949C2.00139 7.56937 3.00078 8.6214 4.26613 9.95393C4.61312 10.3196 4.97395 10.6998 5.32371 11.0905C5.6768 12.1751 6.25528 12.8874 6.86207 13.4856C5.35488 15.3877 4.15376 18.2388 4.75164 19.4409C4.94556 19.8309 5.30778 20.0483 5.75657 20.0483C5.7912 20.0483 5.82722 20.047 5.86323 20.0442C6.48587 19.9978 7.0427 19.4333 7.81286 18.6514C8.2665 18.1908 8.77763 17.6721 9.39957 17.1506C10.4326 17.0195 11.3811 16.5977 12.2352 16.0008C13.4475 16.4694 14.5673 16.7691 16.2679 16.395C16.7063 16.4441 17.1399 16.5037 17.554 16.5612C18.4032 16.6782 19.1269 16.778 19.7149 16.778C20.2378 16.778 20.6534 16.699 20.9532 16.4829C21.134 16.3527 21.2144 16.1242 21.1548 15.9095C20.7449 14.431 18.998 12.8773 15.9813 11.2901C16.4364 10.3162 16.7412 9.37441 16.8805 8.58586L21.4561 7.08317C21.7234 6.99521 21.8758 6.71472 21.8044 6.44253ZM6.30579 10.6673C6.28363 10.5939 6.24554 10.526 6.19498 10.4685C5.81406 10.0398 5.4179 9.62219 5.03767 9.22187C4.3257 8.4718 3.54031 7.64486 3.21618 7.0527C4.68965 7.15135 8.3171 8.4944 10.7753 10.1671C10.531 10.3585 10.2459 10.5591 9.94186 10.7719C9.23252 11.2682 8.37779 11.8823 7.57534 12.6957C7.03829 12.1627 6.58274 11.5801 6.30579 10.6673ZM9.13154 16.1103C9.02696 16.12 8.92722 16.1609 8.8455 16.2281C8.12521 16.8188 7.53167 17.4207 7.05517 17.9048C6.58906 18.3778 6.00868 18.9665 5.78428 18.9831C5.77112 18.9845 5.76004 18.9845 5.75034 18.9845C5.72679 18.9838 5.71225 18.9818 5.71502 18.9852C5.38743 18.6265 6.18251 15.8457 7.98739 13.795C8.8081 12.8635 9.73408 12.2152 10.5513 11.6438C11.4905 10.9866 12.2315 10.4678 12.4933 9.73508C12.573 9.51345 12.6395 9.27797 12.7067 9.04041C12.9581 8.14421 13.1554 7.58322 13.7712 7.33943C14.0149 7.24247 14.2684 7.19191 14.5129 7.19191C14.5579 7.19191 14.6029 7.19399 14.648 7.19745C15.1875 7.239 15.6681 7.64832 15.8669 8.22663C15.4985 10.7843 12.8604 15.7509 9.13154 16.1103ZM19.9289 15.7107C19.3769 15.7384 18.4378 15.6089 17.6995 15.5071C17.2479 15.4447 16.7735 15.3796 16.2949 15.3277C16.2368 15.3208 16.1751 15.3242 16.1169 15.3381C14.9157 15.6165 14.065 15.5008 13.1954 15.2173C14.1165 14.3585 14.8946 13.3096 15.4982 12.2349C18.3037 13.7108 19.4766 14.8849 19.9289 15.7107Z" fill="#1C2125"/>
<path d="M13.9605 8.7176C14.0603 8.82426 14.1946 8.88105 14.3366 8.88105C14.4786 8.88105 14.6129 8.82426 14.7127 8.7176C14.7625 8.66843 14.8048 8.61164 14.8262 8.54792C14.8546 8.48351 14.8685 8.41979 14.8685 8.34915C14.8685 8.27781 14.8546 8.20717 14.8262 8.14345C14.8048 8.07973 14.7625 8.01602 14.7127 7.96615C14.5139 7.7743 14.1593 7.7743 13.9605 7.96615C13.9113 8.01602 13.876 8.07973 13.8476 8.14345C13.8192 8.20717 13.8047 8.27781 13.8047 8.34915C13.8047 8.41979 13.8192 8.48351 13.8476 8.54792C13.8684 8.61164 13.9113 8.66843 13.9605 8.7176Z" fill="#1C2125"/>
<path d="M21.8044 6.44253L21.7077 6.46789L21.7077 6.46789L21.8044 6.44253ZM21.186 6.05607L21.2055 6.15415L21.206 6.15404L21.186 6.05607ZM16.3798 7.01335L16.3033 7.07778L16.3414 7.12297L16.3993 7.11143L16.3798 7.01335ZM14.7304 6.13641L14.7382 6.03671L14.7382 6.03671L14.7304 6.13641ZM13.3785 6.35042L13.4153 6.44339L13.4154 6.44334L13.3785 6.35042ZM11.6823 8.7523L11.7786 8.77949L11.7786 8.77935L11.6823 8.7523ZM11.4934 9.3726L11.4367 9.45496L11.544 9.52886L11.5876 9.40608L11.4934 9.3726ZM2.34629 6.09555L2.31146 6.00181L2.31142 6.00183L2.34629 6.09555ZM2 6.5949L1.9 6.5949L1.9 6.59504L2 6.5949ZM4.26613 9.95393L4.33868 9.8851L4.33865 9.88507L4.26613 9.95393ZM5.32371 11.0905L5.4188 11.0595L5.41227 11.0395L5.39821 11.0238L5.32371 11.0905ZM6.86207 13.4856L6.94045 13.5477L6.99617 13.4774L6.93227 13.4144L6.86207 13.4856ZM4.75164 19.4409L4.6621 19.4855L4.6621 19.4855L4.75164 19.4409ZM5.86323 20.0442L5.8558 19.9445L5.85556 19.9445L5.86323 20.0442ZM7.81286 18.6514L7.74161 18.5812L7.74161 18.5812L7.81286 18.6514ZM9.39957 17.1506L9.38697 17.0514L9.35783 17.0551L9.33531 17.0739L9.39957 17.1506ZM12.2352 16.0008L12.2712 15.9075L12.2216 15.8883L12.1779 15.9188L12.2352 16.0008ZM16.2679 16.395L16.2791 16.2956L16.2626 16.2937L16.2464 16.2973L16.2679 16.395ZM17.554 16.5612L17.5403 16.6602L17.5404 16.6602L17.554 16.5612ZM20.9532 16.4829L20.8948 16.4018L20.8948 16.4018L20.9532 16.4829ZM21.1548 15.9095L21.0584 15.9362L21.0584 15.9362L21.1548 15.9095ZM15.9813 11.2901L15.8907 11.2477L15.8503 11.3341L15.9348 11.3786L15.9813 11.2901ZM16.8805 8.58586L16.8493 8.49086L16.7924 8.50953L16.782 8.56847L16.8805 8.58586ZM21.4561 7.08317L21.4873 7.17818L21.4873 7.17816L21.4561 7.08317ZM6.30579 10.6673L6.21006 10.6962L6.2101 10.6963L6.30579 10.6673ZM6.19498 10.4685L6.27007 10.4025L6.26973 10.4021L6.19498 10.4685ZM5.03767 9.22187L4.96514 9.29072L4.96517 9.29074L5.03767 9.22187ZM3.21618 7.0527L3.22286 6.95292L3.04089 6.94074L3.12846 7.10071L3.21618 7.0527ZM10.7753 10.1671L10.8369 10.2458L10.9447 10.1614L10.8315 10.0844L10.7753 10.1671ZM9.94186 10.7719L9.88453 10.6899L9.88453 10.6899L9.94186 10.7719ZM7.57534 12.6957L7.5049 12.7667L7.57609 12.8373L7.64653 12.7659L7.57534 12.6957ZM9.13154 16.1103L9.14077 16.2099L9.14113 16.2098L9.13154 16.1103ZM8.8455 16.2281L8.90892 16.3054L8.909 16.3053L8.8455 16.2281ZM7.05517 17.9048L7.1264 17.975L7.12644 17.9749L7.05517 17.9048ZM5.78428 18.9831L5.77689 18.8834L5.77381 18.8837L5.78428 18.9831ZM5.75034 18.9845L5.7474 19.0845H5.75034V18.9845ZM5.71502 18.9852L5.64117 19.0527L5.79311 18.9228L5.71502 18.9852ZM7.98739 13.795L7.91235 13.7289L7.91232 13.7289L7.98739 13.795ZM10.5513 11.6438L10.6086 11.7258L10.6087 11.7258L10.5513 11.6438ZM12.4933 9.73508L12.3992 9.70126L12.3992 9.70143L12.4933 9.73508ZM12.7067 9.04041L12.8029 9.06763L12.8029 9.06742L12.7067 9.04041ZM13.7712 7.33943L13.808 7.43241L13.8081 7.43235L13.7712 7.33943ZM14.648 7.19745L14.6556 7.09774L14.6556 7.09774L14.648 7.19745ZM15.8669 8.22663L15.9659 8.24089L15.9693 8.21697L15.9615 8.19412L15.8669 8.22663ZM19.9289 15.7107L19.9339 15.8106L20.0933 15.8026L20.0166 15.6627L19.9289 15.7107ZM17.6995 15.5071L17.6858 15.6061L17.6858 15.6061L17.6995 15.5071ZM16.2949 15.3277L16.2831 15.427L16.2841 15.4271L16.2949 15.3277ZM16.1169 15.3381L16.1395 15.4355L16.1401 15.4354L16.1169 15.3381ZM13.1954 15.2173L13.1273 15.1441L13.0032 15.2598L13.1644 15.3123L13.1954 15.2173ZM15.4982 12.2349L15.5447 12.1464L15.4586 12.1011L15.411 12.1859L15.4982 12.2349ZM13.9605 8.7176L14.0336 8.64927L14.0312 8.64689L13.9605 8.7176ZM14.7127 8.7176L14.6424 8.64634L14.6396 8.6493L14.7127 8.7176ZM14.8262 8.54792L14.7344 8.50742L14.7315 8.51599L14.8262 8.54792ZM14.8262 8.14345L14.7311 8.17553L14.7349 8.18416L14.8262 8.14345ZM14.7127 7.96615L14.7834 7.89543L14.7821 7.8942L14.7127 7.96615ZM13.9605 7.96615L13.8911 7.89417L13.8893 7.89594L13.9605 7.96615ZM13.8476 8.54792L13.9432 8.51676L13.9391 8.50758L13.8476 8.54792ZM21.9012 6.41718C21.8164 6.09358 21.4887 5.89206 21.1659 5.9581L21.206 6.15404C21.4248 6.10927 21.6498 6.24712 21.7077 6.46789L21.9012 6.41718ZM21.1664 5.958L16.3602 6.91528L16.3993 7.11143L21.2055 6.15414L21.1664 5.958ZM16.4563 6.94892C16.0195 6.43046 15.4081 6.08896 14.7382 6.03671L14.7226 6.23611C15.3337 6.28377 15.8973 6.59589 16.3033 7.07778L16.4563 6.94892ZM14.7382 6.03671C14.2689 6.00012 13.7917 6.07842 13.3415 6.2575L13.4154 6.44334C13.8393 6.27474 14.286 6.20206 14.7226 6.23611L14.7382 6.03671ZM13.3416 6.25745C12.1414 6.73304 11.828 7.86405 11.586 8.72525L11.7786 8.77935C12.0242 7.90494 12.3189 6.87786 13.4153 6.44339L13.3416 6.25745ZM11.5861 8.72511C11.526 8.93767 11.4685 9.14419 11.3992 9.33911L11.5876 9.40608C11.6596 9.20363 11.7191 8.9901 11.7786 8.77949L11.5861 8.72511ZM11.5501 9.29024C10.1677 8.3382 8.2444 7.37746 6.48061 6.72357C5.59854 6.39655 4.75354 6.14521 4.03379 6.01036C3.31938 5.8765 2.71018 5.85366 2.31146 6.00181L2.38112 6.18929C2.72479 6.06159 3.28658 6.07384 3.99696 6.20694C4.70199 6.33903 5.53557 6.58651 6.41109 6.91109C8.16248 7.5604 10.0704 8.51403 11.4367 9.45496L11.5501 9.29024ZM2.31142 6.00183C2.06358 6.09405 1.9 6.33104 1.9 6.5949H2.1C2.1 6.41413 2.21207 6.25219 2.38117 6.18927L2.31142 6.00183ZM1.9 6.59504C1.90074 7.11532 2.16717 7.64373 2.57871 8.19964C2.99132 8.757 3.56233 9.35799 4.19362 10.0228L4.33865 9.88507C3.70459 9.21735 3.14322 8.62605 2.73945 8.08064C2.33461 7.53379 2.10065 7.04895 2.1 6.59476L1.9 6.59504ZM4.19359 10.0228C4.54074 10.3886 4.90058 10.7678 5.24921 11.1572L5.39821 11.0238C5.04733 10.6319 4.6855 10.2506 4.33868 9.8851L4.19359 10.0228ZM5.22862 11.1214C5.58838 12.2266 6.17841 12.9521 6.79186 13.5568L6.93227 13.4144C6.33215 12.8228 5.76522 12.1237 5.4188 11.0595L5.22862 11.1214ZM6.78369 13.4235C6.02389 14.3824 5.34157 15.5797 4.92385 16.6905C4.71498 17.246 4.57111 17.7829 4.51783 18.2596C4.46476 18.7346 4.50042 19.1604 4.6621 19.4855L4.84117 19.3964C4.70392 19.1204 4.66551 18.739 4.7166 18.2818C4.76748 17.8265 4.90598 17.3063 5.11105 16.7609C5.52122 15.6702 6.19305 14.4909 6.94045 13.5477L6.78369 13.4235ZM4.6621 19.4855C4.87374 19.911 5.27169 20.1483 5.75657 20.1483V19.9483C5.34387 19.9483 5.01738 19.7507 4.84117 19.3964L4.6621 19.4855ZM5.75657 20.1483C5.79382 20.1483 5.83239 20.1469 5.8709 20.1439L5.85556 19.9445C5.82204 19.9471 5.78859 19.9483 5.75657 19.9483V20.1483ZM5.87066 20.1439C6.21054 20.1186 6.52428 19.9523 6.84427 19.7024C7.16381 19.4529 7.50052 19.111 7.8841 18.7216L7.74161 18.5812C7.35504 18.9737 7.02826 19.305 6.72118 19.5448C6.41456 19.7842 6.13856 19.9234 5.8558 19.9445L5.87066 20.1439ZM7.8841 18.7216C8.33792 18.2608 8.84598 17.7453 9.46382 17.2272L9.33531 17.0739C8.70927 17.5989 8.19508 18.1208 7.74161 18.5812L7.8841 18.7216ZM9.41216 17.2498C10.4645 17.1162 11.4282 16.6869 12.2925 16.0828L12.1779 15.9188C11.3341 16.5086 10.4006 16.9227 9.38697 17.0514L9.41216 17.2498ZM12.1991 16.0941C13.4215 16.5666 14.5625 16.8726 16.2894 16.4926L16.2464 16.2973C14.5721 16.6657 13.4734 16.3722 12.2712 15.9075L12.1991 16.0941ZM16.2568 16.4943C16.6937 16.5433 17.1261 16.6027 17.5403 16.6602L17.5678 16.4621C17.1537 16.4047 16.7189 16.3449 16.2791 16.2956L16.2568 16.4943ZM17.5404 16.6602C18.387 16.777 19.1185 16.878 19.7149 16.878V16.678C19.1353 16.678 18.4193 16.5795 17.5677 16.4621L17.5404 16.6602ZM19.7149 16.878C20.2445 16.878 20.686 16.7987 21.0117 16.5641L20.8948 16.4018C20.6207 16.5993 20.2311 16.678 19.7149 16.678V16.878ZM21.0117 16.5641C21.2264 16.4094 21.3219 16.1378 21.2512 15.8827L21.0584 15.9362C21.1068 16.1105 21.0416 16.296 20.8948 16.4018L21.0117 16.5641ZM21.2512 15.8827C21.039 15.1177 20.4846 14.3441 19.6121 13.5659C18.7389 12.787 17.5404 11.9974 16.0279 11.2016L15.9348 11.3786C17.4389 12.17 18.6222 12.9509 19.479 13.7152C20.3367 14.4802 20.8606 15.2227 21.0584 15.9362L21.2512 15.8827ZM16.0719 11.3324C16.53 10.3523 16.8379 9.40206 16.9789 8.60325L16.782 8.56847C16.6445 9.34677 16.3429 10.2801 15.8907 11.2477L16.0719 11.3324ZM16.9117 8.68087L21.4873 7.17818L21.4249 6.98817L16.8493 8.49086L16.9117 8.68087ZM21.4873 7.17816C21.8049 7.07367 21.9859 6.74041 21.9012 6.41718L21.7077 6.46789C21.7657 6.68902 21.6419 6.91676 21.4248 6.98818L21.4873 7.17816ZM6.40153 10.6384C6.37514 10.551 6.32991 10.4705 6.27007 10.4025L6.11989 10.5346C6.16117 10.5815 6.19212 10.6368 6.21006 10.6962L6.40153 10.6384ZM6.26973 10.4021C5.88754 9.97196 5.49027 9.55317 5.11018 9.153L4.96517 9.29074C5.34553 9.6912 5.74057 10.1077 6.12023 10.5349L6.26973 10.4021ZM5.1102 9.15303C4.75387 8.77763 4.3811 8.385 4.05692 8.01243C3.73178 7.63873 3.46047 7.29074 3.3039 7.00468L3.12846 7.10071C3.29601 7.40682 3.57947 7.76838 3.90604 8.14371C4.23359 8.52016 4.6095 8.91604 4.96514 9.29072L5.1102 9.15303ZM3.2095 7.15248C3.92989 7.20071 5.19305 7.55611 6.58944 8.11253C7.98304 8.66783 9.49753 9.41861 10.719 10.2498L10.8315 10.0844C9.59483 9.24291 8.06651 8.4858 6.66348 7.92674C5.26324 7.36879 3.97594 7.00334 3.22286 6.95292L3.2095 7.15248ZM10.7136 10.0884C10.4718 10.2778 10.1889 10.4769 9.88453 10.6899L9.99919 10.8538C10.3029 10.6413 10.5902 10.4391 10.8369 10.2458L10.7136 10.0884ZM9.88453 10.6899C9.17467 11.1867 8.31346 11.8051 7.50415 12.6255L7.64653 12.7659C8.44212 11.9594 9.29038 11.3498 9.99919 10.8538L9.88453 10.6899ZM7.64579 12.6247C7.11605 12.099 6.67208 11.5301 6.40149 10.6383L6.2101 10.6963C6.4934 11.63 6.96052 12.2264 7.5049 12.7667L7.64579 12.6247ZM9.1223 16.0107C8.99783 16.0223 8.87919 16.0709 8.782 16.1508L8.909 16.3053C8.97526 16.2508 9.05608 16.2177 9.14077 16.2099L9.1223 16.0107ZM8.78208 16.1507C8.05721 16.7453 7.46031 17.3506 6.9839 17.8346L7.12644 17.9749C7.60303 17.4907 8.19321 16.8924 8.90892 16.3054L8.78208 16.1507ZM6.98394 17.8346C6.75033 18.0717 6.49092 18.3348 6.26217 18.5408C6.1477 18.6439 6.0431 18.7307 5.95484 18.7921C5.91072 18.8228 5.87246 18.8459 5.84045 18.8615C5.80725 18.8777 5.7868 18.8827 5.77689 18.8834L5.79167 19.0829C5.83785 19.0795 5.88463 19.0624 5.92794 19.0414C5.97245 19.0197 6.01998 18.9904 6.06911 18.9562C6.16735 18.8878 6.27906 18.7947 6.396 18.6894C6.63006 18.4787 6.8939 18.2109 7.1264 17.975L6.98394 17.8346ZM5.77381 18.8837C5.76641 18.8845 5.76004 18.8845 5.75034 18.8845V19.0845C5.76004 19.0845 5.77582 19.0846 5.79475 19.0826L5.77381 18.8837ZM5.75328 18.8846C5.74852 18.8844 5.74408 18.8842 5.73963 18.884C5.73584 18.8838 5.73023 18.8835 5.72558 18.8834C5.72442 18.8833 5.7103 18.8826 5.69553 18.8857C5.69087 18.8867 5.68226 18.8888 5.67234 18.8935C5.66311 18.8979 5.645 18.9081 5.63106 18.9295C5.59338 18.9871 5.62985 19.0388 5.63693 19.0477L5.79311 18.9228C5.79783 18.9287 5.80757 18.9421 5.81219 18.9624C5.81765 18.9863 5.81452 19.0143 5.79849 19.0389C5.78473 19.0599 5.76693 19.07 5.75813 19.0742C5.74864 19.0787 5.74058 19.0806 5.73658 19.0814C5.7245 19.084 5.71497 19.0831 5.72004 19.0833C5.72163 19.0833 5.72389 19.0834 5.72937 19.0837C5.73418 19.084 5.74039 19.0843 5.7474 19.0845L5.75328 18.8846ZM5.78886 18.9178C5.77271 18.9001 5.7503 18.8482 5.74444 18.738C5.73888 18.6335 5.74904 18.4952 5.77673 18.3276C5.83199 17.9929 5.95482 17.5543 6.14486 17.0605C6.5249 16.073 7.16928 14.8759 8.06245 13.8611L7.91232 13.7289C7.00062 14.7648 6.34502 15.9835 5.9582 16.9887C5.76481 17.4912 5.63748 17.9433 5.5794 18.295C5.55041 18.4705 5.53811 18.6244 5.54472 18.7486C5.55103 18.8672 5.57543 18.9807 5.64117 19.0527L5.78886 18.9178ZM8.06242 13.8611C8.87419 12.9397 9.79073 12.2976 10.6086 11.7258L10.494 11.5619C9.67743 12.1328 8.742 12.7872 7.91235 13.7289L8.06242 13.8611ZM10.6087 11.7258C11.0768 11.3982 11.5025 11.1004 11.8434 10.7919C12.1852 10.4827 12.4489 10.1567 12.5875 9.76872L12.3992 9.70143C12.276 10.0462 12.0383 10.3459 11.7092 10.6436C11.3794 10.942 10.965 11.2322 10.494 11.5619L10.6087 11.7258ZM12.5874 9.7689C12.6685 9.54341 12.7359 9.30448 12.8029 9.06763L12.6104 9.0132C12.543 9.25146 12.4775 9.48349 12.3992 9.70126L12.5874 9.7689ZM12.8029 9.06742C13.0569 8.16208 13.2451 7.65527 13.808 7.43241L13.7343 7.24645C13.0658 7.51117 12.8592 8.12634 12.6104 9.0134L12.8029 9.06742ZM13.8081 7.43235C14.0411 7.3397 14.282 7.29191 14.5129 7.29191V7.09191C14.2548 7.09191 13.9888 7.14524 13.7342 7.24651L13.8081 7.43235ZM14.5129 7.29191C14.5549 7.29191 14.5973 7.29385 14.6403 7.29715L14.6556 7.09774C14.6086 7.09413 14.561 7.09191 14.5129 7.09191V7.29191ZM14.6403 7.29715C15.1333 7.33512 15.5842 7.71168 15.7723 8.25913L15.9615 8.19412C15.7521 7.58496 15.2417 7.14288 14.6556 7.09774L14.6403 7.29715ZM15.7679 8.21237C15.5864 9.47252 14.8423 11.3385 13.6786 12.9339C12.5139 14.5306 10.9447 15.8351 9.12194 16.0108L9.14113 16.2098C11.0472 16.0261 12.6615 14.6676 13.8402 13.0517C15.0198 11.4345 15.779 9.53845 15.9659 8.24089L15.7679 8.21237ZM19.9239 15.6108C19.3837 15.6379 18.456 15.5105 17.7132 15.408L17.6858 15.6061C18.4195 15.7073 19.3702 15.8389 19.9339 15.8106L19.9239 15.6108ZM17.7132 15.408C17.2617 15.3457 16.7859 15.2804 16.3057 15.2283L16.2841 15.4271C16.7611 15.4789 17.2341 15.5438 17.6858 15.6061L17.7132 15.408ZM16.3068 15.2284C16.2369 15.2201 16.1634 15.2242 16.0938 15.2408L16.1401 15.4354C16.1868 15.4242 16.2366 15.4215 16.2831 15.427L16.3068 15.2284ZM16.0944 15.2407C14.9133 15.5144 14.0812 15.4009 13.2264 15.1222L13.1644 15.3123C14.0487 15.6006 14.918 15.7186 16.1395 15.4355L16.0944 15.2407ZM13.2636 15.2904C14.1935 14.4235 14.9777 13.3659 15.5853 12.2838L15.411 12.1859C14.8115 13.2533 14.0395 14.2936 13.1273 15.1441L13.2636 15.2904ZM15.4516 12.3234C18.2516 13.7964 19.4032 14.959 19.8412 15.7587L20.0166 15.6627C19.55 14.8107 18.3558 13.6252 15.5447 12.1464L15.4516 12.3234ZM13.8875 8.7859C14.0063 8.91301 14.1672 8.98105 14.3366 8.98105V8.78105C14.222 8.78105 14.1142 8.73551 14.0336 8.6493L13.8875 8.7859ZM14.3366 8.98105C14.5059 8.98105 14.6669 8.91301 14.7857 8.7859L14.6396 8.6493C14.559 8.73551 14.4512 8.78105 14.3366 8.78105V8.98105ZM14.7829 8.78881C14.8392 8.73327 14.8928 8.66358 14.921 8.57985L14.7315 8.51599C14.7168 8.55969 14.6859 8.60359 14.6425 8.6464L14.7829 8.78881ZM14.9178 8.58826C14.9516 8.51151 14.9685 8.43408 14.9685 8.34915H14.7685C14.7685 8.4055 14.7577 8.45551 14.7347 8.50758L14.9178 8.58826ZM14.9685 8.34915C14.9685 8.26509 14.9522 8.18041 14.9176 8.10275L14.7349 8.18416C14.7571 8.23393 14.7685 8.29054 14.7685 8.34915H14.9685ZM14.921 8.11152C14.8938 8.03086 14.8423 7.95432 14.7834 7.89544L14.642 8.03686C14.6828 8.07772 14.7157 8.12861 14.7315 8.17538L14.921 8.11152ZM14.7821 7.8942C14.5446 7.66496 14.1286 7.66496 13.8911 7.8942L14.03 8.0381C14.19 7.88365 14.4832 7.88365 14.6432 8.0381L14.7821 7.8942ZM13.8893 7.89594C13.8278 7.95833 13.7866 8.03471 13.7563 8.10275L13.939 8.18416C13.9654 8.12476 13.9949 8.0737 14.0317 8.03636L13.8893 7.89594ZM13.7563 8.10275C13.7219 8.17983 13.7047 8.26441 13.7047 8.34915H13.9047C13.9047 8.29122 13.9165 8.23451 13.939 8.18416L13.7563 8.10275ZM13.7047 8.34915C13.7047 8.43475 13.7226 8.51215 13.7561 8.58826L13.9391 8.50758C13.9159 8.45487 13.9047 8.40483 13.9047 8.34915H13.7047ZM13.7526 8.57892C13.7802 8.66369 13.8351 8.73364 13.8898 8.78831L14.0312 8.64689C13.9876 8.60322 13.9566 8.55959 13.9427 8.51692L13.7526 8.57892Z" fill="#1C2125"/>
</svg>
