<svg width="24" height="24" viewBox="0 0 24 24" fill="none" xmlns="http://www.w3.org/2000/svg">
<g clip-path="url(#clip0)">
<path d="M20 5.37672V10.0221C19.828 9.85006 19.828 9.85006 19.828 9.67806C19.828 9.85006 19.656 9.85006 19.656 9.67806C19.656 9.85006 19.828 10.0221 19.828 10.0221C19.828 10.1941 20 10.3661 20 10.3661V15.0114C20 15.0114 20 15.0114 19.828 15.1834C19.828 15.1834 20 15.3554 19.828 15.5274C19.828 15.6994 19.828 15.6994 19.656 15.6994C19.656 15.8714 19.656 16.0434 19.656 16.0434C19.656 16.2154 19.484 16.2154 19.484 16.2154C19.312 16.3874 19.312 16.5594 19.14 16.5594C19.14 16.7314 18.968 16.7314 18.796 16.7314C18.796 16.7314 18.624 16.7314 18.452 16.7314C18.28 16.9034 18.108 16.7314 18.108 16.5594C18.28 16.5594 18.108 16.3874 18.108 16.3874C18.108 16.2154 17.936 16.0434 17.936 16.0434C17.936 15.8714 17.936 15.6994 17.936 15.6994C17.936 15.5274 17.764 15.3554 17.764 15.3554C17.764 15.1834 17.592 15.0114 17.592 15.0114C17.592 14.8394 17.592 14.6674 17.592 14.6674C17.592 14.4954 17.764 14.3234 17.764 14.3234C17.764 14.1514 17.764 13.9794 17.764 13.9794C17.764 13.8074 17.592 13.6354 17.592 13.4634C17.592 13.2914 17.42 13.2914 17.42 13.1194C17.42 12.9474 17.42 12.6034 17.42 12.4314H17.076L16.904 12.2594C16.904 12.2594 16.732 12.2594 16.56 12.2594C16.388 12.2594 16.216 12.4314 16.216 12.4314C16.044 12.2594 15.872 12.4314 15.7 12.4314C15.528 12.4314 15.528 12.2594 15.356 12.2594C15.356 12.0874 15.184 12.0874 15.184 11.9154L15.012 11.7434C14.84 11.5714 14.668 11.5714 14.84 11.3994C14.84 11.2274 14.668 11.2274 14.84 11.2274C14.84 11.0554 14.84 10.8834 14.84 10.7114V10.5394C14.84 10.3674 15.012 10.1954 15.012 10.0234L15.184 9.85139C15.184 9.67939 15.356 9.67939 15.528 9.67939C15.528 9.50739 15.528 9.33539 15.7 9.33539C15.7 9.16339 15.872 9.16339 15.872 8.99139C16.044 8.81939 16.044 8.99139 16.216 8.99139C16.216 8.99139 16.388 8.99139 16.56 8.81939C16.56 8.81939 16.732 8.81939 16.904 8.81939C16.904 8.64739 17.076 8.81939 17.076 8.81939C17.248 8.81939 17.42 8.64739 17.42 8.64739C17.592 8.64739 17.592 8.81939 17.592 8.81939C17.592 8.99139 17.592 8.99139 17.42 9.16339C17.592 9.16339 17.592 9.16339 17.764 9.16339C17.936 9.16339 17.936 9.33539 17.936 9.33539C18.108 9.33539 18.28 9.50739 18.28 9.50739C18.28 9.33539 18.28 9.16339 18.452 9.16339C18.624 9.16339 18.624 9.16339 18.796 9.33539C18.796 9.33539 18.968 9.33539 19.14 9.33539C19.312 9.50739 19.312 9.33539 19.484 9.33539C19.656 9.50739 19.828 9.33539 19.828 9.16339C19.828 9.16339 19.828 8.99139 19.828 8.81939C19.828 8.81939 19.828 8.81939 19.656 8.81939C19.656 8.99139 19.484 8.81939 19.312 8.81939H19.14C18.968 8.81939 18.968 8.64739 18.968 8.64739C18.968 8.64739 18.796 8.47539 18.968 8.30339H18.796C18.624 8.30339 18.624 8.47539 18.624 8.47539C18.796 8.64739 18.624 8.64739 18.624 8.64739C18.624 8.64739 18.796 8.81939 18.624 8.81939C18.452 8.81939 18.452 8.64739 18.452 8.64739C18.28 8.47539 18.28 8.30339 18.28 8.30339C18.28 8.13139 18.108 8.13139 17.936 7.95939L17.764 7.78739C17.592 7.95939 17.764 7.95939 17.764 8.13139C17.936 8.13139 17.936 8.30339 18.108 8.30339C18.28 8.30339 18.28 8.47539 18.108 8.47539C18.108 8.30339 18.108 8.47539 18.108 8.47539C18.108 8.64739 17.936 8.64739 17.936 8.64739C17.936 8.81939 17.764 8.64739 17.764 8.64739C17.592 8.64739 17.764 8.64739 17.764 8.64739C17.936 8.64739 18.108 8.47539 17.936 8.47539C17.764 8.30339 17.764 8.30339 17.592 8.13139C17.42 8.13139 17.42 7.95939 17.42 7.95939C17.248 7.95939 17.076 8.13139 16.904 8.13139C16.732 7.95939 16.904 8.30339 16.732 8.30339C16.56 8.30339 16.56 8.47539 16.56 8.47539L16.388 8.81939C16.216 8.81939 16.044 8.81939 15.872 8.81939C15.872 8.64739 15.7 8.81939 15.7 8.64739V8.47539C15.7 8.30339 15.7 8.13139 15.7 8.13139C15.872 7.95939 16.044 7.95939 16.044 7.95939C16.216 7.95939 16.388 8.13139 16.388 7.95939C16.56 7.78739 16.388 7.61539 16.216 7.61539C16.044 7.44339 16.216 7.44339 16.388 7.44339C16.388 7.44339 16.388 7.44339 16.388 7.27139C16.56 7.44339 16.56 7.27139 16.732 7.27139C16.732 7.09939 16.904 7.09939 16.904 7.09939C16.904 6.92739 17.076 6.92739 17.248 6.92739C17.248 6.92739 17.42 6.75539 17.248 6.75539C17.248 6.58339 17.42 6.41139 17.42 6.58339C17.42 6.58339 17.42 6.75539 17.592 6.92739C17.592 6.92739 17.42 6.75539 17.592 6.75539C17.42 6.58339 17.764 6.75539 17.592 6.58339C17.592 6.58339 17.592 6.41139 17.42 6.41139H17.248C17.076 6.41139 17.076 6.23939 17.076 6.23939C16.904 6.06739 17.076 6.06739 17.248 5.89539C17.42 5.89539 17.42 5.89539 17.592 5.72339C17.592 5.55139 17.764 5.55139 17.936 5.37939L18.108 5.20739C18.28 5.20739 18.452 5.20739 18.452 5.20739C18.624 5.20739 18.796 5.20739 18.968 5.20739C18.968 5.20739 18.968 5.20739 19.14 5.20739C19.312 5.37939 19.484 5.37939 19.656 5.37939C19.656 5.37939 19.828 5.55139 19.656 5.72339C19.484 5.72339 19.312 5.72339 19.312 5.55139C19.312 5.72339 19.312 5.89539 19.484 5.89539C19.484 5.89539 19.312 5.72339 19.484 5.72339C19.484 5.72339 19.656 5.89539 19.656 5.72339L19.828 5.55139V5.37939H20V5.37672ZM4 6.06472V6.40872V6.58072L4.172 6.40872C4.344 6.40872 4.516 6.23672 4.688 6.23672C4.688 6.23672 4.86 6.23672 4.688 6.23672C4.516 6.40873 4.688 6.40872 4.688 6.40872C4.86 6.23672 5.032 6.23672 5.032 6.23672C5.204 6.06472 5.204 6.23672 5.376 6.23672C5.548 6.23672 5.548 6.23672 5.72 6.40872C5.72 6.40872 5.892 6.40873 5.72 6.58072C5.892 6.58072 5.892 6.75273 5.892 6.75273C5.72 6.92473 5.892 6.92472 5.72 7.09672C5.72 7.26872 5.892 7.26872 5.892 7.44072C6.064 7.61272 5.892 7.26872 5.892 7.26872C5.72 7.26872 5.548 7.26872 5.72 7.44072C5.892 7.44072 5.72 7.61273 5.72 7.78472C5.548 7.95672 5.548 7.95672 5.376 8.12872C5.376 8.30072 5.376 8.30072 5.204 8.30072C5.204 8.47272 5.376 8.64472 5.204 8.81672C5.204 8.98872 5.204 9.16073 5.376 9.16073C5.548 9.16073 5.548 9.33273 5.548 9.33273V9.67672C5.376 9.84872 5.548 10.0207 5.72 10.0207C5.72 10.0207 5.72 10.1927 5.892 10.1927C5.892 10.1927 5.892 10.3647 5.892 10.1927C5.892 10.1927 5.892 10.0207 5.72 9.84872C5.72 9.67672 5.548 9.50472 5.72 9.33273L5.892 9.50472C5.72 9.67672 5.892 9.84872 6.064 9.84872C6.064 10.0207 6.064 10.0207 6.064 10.1927C6.236 10.1927 6.236 10.3647 6.236 10.3647C6.236 10.5367 6.236 10.7087 6.408 10.7087C6.408 10.8807 6.58 10.8807 6.752 11.0527C6.924 11.0527 6.924 11.2247 7.096 11.2247C7.268 11.0527 7.268 11.0527 7.44 11.2247L7.612 11.3967C7.784 11.3967 7.956 11.3967 7.956 11.5687C7.956 11.7407 8.128 11.5687 8.128 11.5687C7.956 11.5687 7.956 11.9127 8.128 11.9127C8.3 11.9127 8.3 12.0847 8.472 12.0847C8.472 12.0847 8.644 12.0847 8.644 11.9127C8.644 11.9127 8.816 11.9127 8.816 12.0847C8.816 12.2567 8.816 12.4287 8.816 12.4287C8.816 12.4287 8.644 12.6007 8.644 12.7727C8.472 12.7727 8.472 12.9447 8.472 13.1167V13.2887C8.472 13.2887 8.472 13.4607 8.472 13.6327C8.472 13.6327 8.644 13.6327 8.644 13.8047C8.644 13.9767 8.816 13.9767 8.816 14.1487C8.816 14.3207 8.988 14.4927 9.16 14.6647C9.16 14.6647 9.332 14.6647 9.332 14.8367C9.504 14.8367 9.676 15.0087 9.676 15.0087C9.676 15.3527 9.676 15.5247 9.676 15.6967C9.676 15.8687 9.676 16.0407 9.676 16.0407V16.3847C9.848 16.5567 9.848 16.7287 9.848 16.9007C9.848 16.9007 9.676 17.0727 9.848 17.2447C9.848 17.2447 9.848 17.4167 9.848 17.5887C10.02 17.5887 10.02 17.7607 10.02 17.9327C10.02 18.1047 10.192 18.2767 10.192 18.4487C10.192 18.4487 10.364 18.6207 10.364 18.7927C10.364 18.7927 10.536 18.9647 10.708 18.7927V18.9647C10.88 19.1367 10.88 18.9647 11.052 19.1367C11.052 19.1367 11.396 18.9647 11.224 18.9647C11.052 18.9647 10.88 18.9647 10.88 18.7927C10.88 18.6207 10.708 18.6207 10.708 18.4487C10.708 18.2767 10.88 18.2767 10.88 18.1047C10.708 18.1047 10.536 18.1047 10.708 17.9327C10.88 17.9327 10.708 17.7607 10.88 17.7607C10.88 17.5887 10.708 17.7607 10.708 17.5887C10.708 17.4167 10.88 17.5887 10.88 17.5887C11.052 17.4167 10.708 17.2447 10.88 17.2447C11.052 17.2447 11.224 17.2447 11.224 17.0727C11.396 17.0727 11.224 16.9007 11.224 16.9007C11.052 16.9007 11.052 16.7287 11.224 16.7287C11.224 16.9007 11.396 16.9007 11.568 16.7287C11.568 16.5567 11.568 16.3847 11.74 16.3847C11.74 16.3847 11.74 16.2127 11.912 16.2127C11.912 16.0407 11.74 15.8687 11.912 15.6967C11.912 15.6967 12.084 15.6967 12.256 15.5247C12.256 15.5247 12.428 15.5247 12.6 15.3527C12.6 15.1807 12.6 15.1807 12.6 15.0087C12.772 14.8367 12.6 14.6647 12.6 14.4927C12.6 14.3207 12.772 14.3207 12.772 14.1487C12.772 13.9767 13.116 13.8047 12.944 13.4607C12.944 13.4607 12.772 13.4607 12.6 13.2887C12.6 13.2887 12.428 13.2887 12.256 13.2887C12.256 13.1167 12.084 13.1167 12.084 13.1167C12.084 13.1167 11.912 12.9447 11.74 12.9447C11.74 12.9447 11.568 12.9447 11.568 12.7727C11.568 12.6007 11.396 12.6007 11.396 12.4287C11.396 12.4287 11.224 12.2567 11.052 12.2567C11.052 12.2567 10.88 12.2567 10.708 12.0847C10.708 12.0847 10.708 11.9127 10.536 11.9127C10.536 11.9127 10.536 11.7407 10.364 11.7407C10.536 11.7407 10.536 11.5687 10.364 11.7407C10.192 11.5687 10.02 11.7407 10.02 11.7407C9.848 11.7407 9.848 11.7407 9.676 11.5687C9.676 11.5687 9.676 11.5687 9.504 11.5687C9.504 11.5687 9.332 11.7407 9.504 11.5687C9.504 11.5687 9.504 11.3967 9.332 11.5687C9.332 11.5687 9.16 11.5687 8.988 11.7407C8.988 11.9127 8.816 12.0847 8.816 11.9127C8.644 11.7407 8.644 11.9127 8.472 11.9127C8.3 11.7407 8.3 11.7407 8.3 11.5687C8.3 11.3967 8.3 11.3967 8.3 11.2247C8.3 11.0527 8.128 11.0527 7.956 11.0527C7.956 11.2247 7.784 11.0527 7.956 11.0527C7.956 10.8807 7.956 10.8807 7.956 10.7087L8.128 10.5367C7.956 10.3647 7.784 10.5367 7.784 10.5367C7.784 10.7087 7.612 10.8807 7.44 10.8807C7.44 10.8807 7.268 10.8807 7.268 10.7087C7.096 10.7087 7.096 10.5367 7.096 10.3647C7.096 10.1927 7.268 10.0207 7.268 9.84872C7.268 9.67672 7.44 9.67672 7.612 9.67672C7.612 9.50472 7.784 9.67672 7.956 9.67672C8.128 9.67672 7.956 9.50472 8.128 9.50472C8.3 9.50472 8.3 9.50472 8.472 9.67672C8.644 9.50472 8.644 9.67672 8.644 9.84872C8.644 9.84872 8.644 10.0207 8.816 10.0207C8.816 10.0207 8.816 9.84872 8.816 9.67672C8.816 9.67672 8.816 9.50472 8.816 9.33273C8.988 9.33273 8.988 9.16073 9.16 9.16073L9.332 8.98872C9.504 8.81672 9.504 8.81672 9.504 8.64472C9.676 8.64472 9.676 8.47272 9.676 8.47272C9.848 8.30072 9.848 8.30072 10.02 8.30072C10.192 8.30072 10.192 7.95672 10.364 7.95672C10.536 7.95672 10.536 7.95672 10.708 7.78472C10.88 7.78472 10.88 7.78472 10.88 7.78472C10.708 7.95672 10.536 7.95672 10.708 7.95672C10.88 7.95672 10.88 7.95672 11.052 7.95672C11.052 7.78472 11.224 7.78472 11.052 7.78472C10.88 7.78472 10.88 7.61272 11.052 7.44072C11.052 7.44072 10.88 7.26872 10.88 7.44072C10.708 7.44072 10.536 7.44072 10.536 7.44072C10.708 7.44072 10.88 7.26872 10.88 7.26872C11.052 7.26872 11.224 7.26872 11.396 7.26872C11.568 7.26872 11.568 7.09672 11.74 7.09672C11.74 7.26872 11.568 7.44072 11.396 7.44072C11.396 7.44072 11.396 7.61273 11.568 7.61273H11.74C11.912 7.78472 12.084 7.61273 11.912 7.61273C11.912 7.44073 12.084 7.26872 11.912 7.26872C11.74 7.44072 11.74 7.26872 11.912 7.26872C11.912 7.09672 11.912 6.92473 11.912 6.92473C11.912 6.75272 11.568 6.75272 11.568 6.58072C11.74 6.58072 11.568 6.40873 11.568 6.23672L11.396 6.40872C11.224 6.40872 11.052 6.23672 11.224 6.23672C11.224 6.06472 11.052 6.06472 11.052 6.06472C10.88 6.06472 10.88 6.06472 10.708 5.89272C10.536 6.06472 10.536 6.23672 10.536 6.23672C10.536 6.40873 10.364 6.40872 10.364 6.40872C10.364 6.58072 10.364 6.75273 10.192 6.75273C10.02 6.75273 10.02 6.75272 10.02 6.92473C10.02 7.09672 9.848 7.09672 9.848 7.09672C9.848 7.09672 9.848 6.92473 9.848 6.75273C9.676 6.75273 9.504 6.75272 9.504 6.58072C9.332 6.58072 9.332 6.58072 9.16 6.58072C9.16 6.40873 9.332 6.40872 9.16 6.40872C9.16 6.23672 9.332 6.06472 9.504 6.06472C9.676 6.06472 9.848 5.89272 9.848 5.89272C10.02 5.89272 10.192 5.72072 10.192 5.72072C10.192 5.72072 10.02 5.89272 10.192 5.89272C10.364 5.89272 10.364 5.89272 10.536 5.89272C10.536 5.89272 10.536 5.72072 10.364 5.72072C10.364 5.54873 10.536 5.72072 10.536 5.72072C10.708 5.54873 10.708 5.54872 10.88 5.37672C10.88 5.20472 10.536 5.20472 10.88 5.20472C10.88 5.37672 11.052 5.20472 11.224 5.37672C11.224 5.37672 11.396 5.54872 11.224 5.54872C11.224 5.54872 11.224 5.72072 11.052 5.72072C10.88 5.72072 10.708 5.72072 10.88 5.89272H11.052C11.224 5.89272 11.224 6.06472 11.396 6.06472H11.568C11.568 5.89272 11.396 5.89272 11.568 5.89272C11.568 6.06472 11.74 5.89272 11.74 5.72072C11.74 5.72072 11.568 5.54873 11.74 5.72072C11.912 5.54873 11.912 5.89272 11.912 5.72072C12.084 5.72072 12.084 5.54872 12.084 5.54872C11.912 5.37672 11.74 5.37672 11.912 5.37672C11.912 5.20472 11.912 5.20472 11.74 5.20472C11.74 5.03272 11.568 5.03272 11.568 5.03272L11.396 4.86072C11.224 4.86072 11.396 5.03272 11.224 5.03272C11.224 5.03272 11.396 4.86072 11.224 4.86072C11.052 4.86072 10.88 5.03272 10.88 5.03272C11.052 5.03272 10.88 4.86072 10.88 4.86072C10.708 4.86072 10.708 5.03272 10.536 5.03272C10.364 5.20472 10.536 5.20472 10.708 5.20472C10.536 5.37672 10.364 5.54872 10.364 5.54872C10.364 5.37672 10.364 5.37672 10.364 5.37672C10.192 5.37672 10.364 5.20472 10.192 5.20472C10.364 5.20472 10.192 5.03272 10.192 5.03272C10.02 5.20472 10.02 5.20472 9.848 5.20472C10.02 5.37672 10.02 5.37672 9.848 5.37672C9.848 5.54872 9.676 5.37672 9.504 5.37672C9.504 5.37672 9.332 5.54872 9.16 5.37672C8.988 5.37672 8.988 5.37672 8.816 5.37672C8.816 5.37672 8.644 5.54872 8.472 5.54872V5.37672C8.3 5.37672 8.3 5.37672 8.128 5.20472C7.956 5.20472 7.956 5.37672 7.784 5.20472C7.784 5.20472 7.612 5.20472 7.44 5.20472C7.44 5.20472 7.268 5.37672 7.096 5.37672C7.096 5.37672 6.924 5.37672 6.752 5.37672C6.752 5.20472 6.58 5.20472 6.408 5.20472C6.408 5.20472 6.236 5.20472 6.064 5.20472C5.892 5.20472 5.892 5.20472 5.72 5.20472C5.548 5.20472 5.376 5.20472 5.204 5.20472C5.032 5.20472 5.032 5.37672 4.86 5.37672C4.688 5.37672 4.688 5.37672 4.688 5.54872C4.688 5.54872 4.86 5.54872 4.688 5.54872C4.688 5.72072 4.516 5.54872 4.344 5.54872C4.344 5.54872 4.172 5.72072 4.172 5.89272C4.344 5.72072 4.516 5.89272 4.516 5.89272C4.516 5.89272 4.344 5.89272 4.172 5.89272C4.172 5.89272 4 5.89272 4 6.06472H4ZM16.0433 6.75273C15.8713 6.75273 15.8713 6.92473 15.8713 6.92473C15.6993 6.92473 15.8713 7.09672 15.6993 7.09672C15.6993 7.09672 15.8713 7.26872 15.8713 7.09672C16.0433 7.09672 16.0433 7.09672 16.0433 6.92473C16.2153 6.92473 16.2153 6.92473 16.2153 6.92473C16.3873 7.09672 16.0433 6.92472 16.2153 7.09672C16.0433 7.09672 16.0433 7.26872 16.2153 7.26872C16.0433 7.26872 16.0433 7.44072 16.2153 7.44072C16.2153 7.26872 16.3873 7.26872 16.5593 7.26872C16.5593 7.26872 16.7313 7.26872 16.5593 7.26872C16.7313 7.09672 16.7313 7.09672 16.5593 7.09672C16.5593 6.92472 16.3873 6.75273 16.3873 6.75273C16.3873 6.58072 16.3873 6.58072 16.3873 6.58072C16.3873 6.58072 16.2153 6.58072 16.3873 6.40872H16.2153L16.0433 6.58072C16.0433 6.75272 16.0433 6.75273 16.0433 6.75273ZM13.118 4.34406C12.774 4.17206 12.602 4.34406 12.43 4.34406C12.258 4.34406 12.258 4.17206 12.258 4.17206C11.914 4.17206 11.742 4.34406 11.57 4.34406C11.398 4.34406 11.398 4.34406 11.57 4.34406C11.57 4.51606 11.742 4.51606 11.57 4.51606L11.398 4.68806C11.226 4.68806 11.054 4.68806 11.054 4.68806C11.054 4.86006 11.226 4.68806 11.226 4.86006C11.398 4.68806 11.398 4.86006 11.57 4.86006C11.742 4.86006 11.742 4.68806 11.914 4.68806C12.086 4.68806 12.258 4.51606 12.258 4.51606C12.258 4.51606 12.602 4.51606 12.774 4.34406V4.51606C12.774 4.51606 12.602 4.51606 12.43 4.51606C12.43 4.51606 12.086 4.51606 12.258 4.68806C12.258 4.68806 12.258 4.86006 12.43 4.68806C12.602 4.68806 12.774 4.68806 12.774 4.86006C12.946 4.86006 12.946 5.03206 12.946 5.03206C12.774 5.20406 13.118 5.20406 13.118 5.20406C12.946 5.20406 12.946 5.20406 12.946 5.37606C13.118 5.37606 12.774 5.37606 12.774 5.54806V5.72006C12.774 5.89206 12.774 6.06406 12.946 6.23606H13.118C13.29 6.40806 13.29 6.23606 13.29 6.06406C13.462 6.06406 13.462 6.06406 13.634 5.89206C13.634 5.72006 13.806 5.72006 13.806 5.72006C13.978 5.72006 14.15 5.72006 14.15 5.54806C14.322 5.54806 14.494 5.54806 14.494 5.54806C14.666 5.54806 14.838 5.37606 15.01 5.37606C15.182 5.20406 14.838 5.20406 15.01 5.20406C15.01 5.37606 15.182 5.37606 15.182 5.20406C15.182 5.03206 15.01 5.03206 15.01 5.03206C15.182 5.03206 15.354 5.03206 15.354 4.86006C15.526 4.86006 15.354 4.68806 15.526 4.68806V4.51606H15.698C15.87 4.34406 16.042 4.34406 16.042 4.34406C15.87 4.34406 15.698 4.34406 15.526 4.34406V4.17206C15.354 4.17206 15.182 4.17206 15.01 4.17206C14.838 4.17206 14.666 4.17206 14.494 4.17206C14.322 4.17206 14.15 4.34406 13.978 4.17206C13.806 4.34406 13.634 4.17206 13.462 4.34406C13.29 4.34406 13.118 4.34406 13.118 4.34406ZM15.0107 5.54872C15.0107 5.54872 15.0107 5.72072 15.1827 5.72072C15.1827 5.54873 15.3547 5.72072 15.5267 5.72072C15.5267 5.54873 15.6987 5.72072 15.5267 5.89272C15.5267 5.89272 15.3547 5.89272 15.1827 5.89272C15.1827 5.89272 14.8387 5.89272 15.0107 5.89272C14.8387 5.89272 15.0107 5.72072 15.0107 5.72072C14.8387 5.72072 14.8387 5.54872 15.0107 5.54872Z" fill="#1C2125"/>
<path d="M4 4H20V4.516H4V4Z" fill="#1C2125"/>
<path d="M4 19.4838H20V19.9998H4V19.4838Z" fill="#1C2125"/>
<path d="M4 4H4.516V20H4V4Z" fill="#1C2125"/>
<path d="M19.4838 4H19.9998V20H19.4838V4Z" fill="#1C2125"/>
</g>
<defs>
<clipPath id="clip0">
<rect width="16" height="16" fill="white" transform="translate(4 4)"/>
</clipPath>
</defs>
</svg>
