<svg width="24" height="24" viewBox="0 0 24 24" fill="none" xmlns="http://www.w3.org/2000/svg">
<path d="M4 4H20V6.58067H4V4Z" fill="#1C2125"/>
<path d="M4 8.64508H20V9.16108H4V8.64508Z" fill="#1C2125"/>
<path d="M4 11.3978H20V11.9138H4V11.3978Z" fill="#1C2125"/>
<path d="M4 14.1505H20V14.6665H4V14.1505Z" fill="#1C2125"/>
<path d="M4 16.9032H20V17.4192H4V16.9032Z" fill="#1C2125"/>
<path d="M4 19.4838H20V19.9998H4V19.4838Z" fill="#1C2125"/>
<path d="M4 4H4.516V20H4V4Z" fill="#1C2125"/>
<path d="M9.16125 4H9.67725V20H9.16125V4Z" fill="#1C2125"/>
<path d="M14.3225 4H14.8385V20H14.3225V4Z" fill="#1C2125"/>
<path d="M19.4838 4H19.9998V20H19.4838V4Z" fill="#1C2125"/>
</svg>
