<svg id="gear" xmlns="http://www.w3.org/2000/svg" viewBox="0 0 16 16">
<path d="M15,6.7l-1.8-0.6C13,6,12.9,5.8,13,5.7L13.9,4c0.6-1.2-0.7-2.5-1.9-1.9L10.3,3C10.2,3.1,10,3,9.9,2.8L9.3,1
	C8.9-0.3,7.1-0.3,6.7,1L6.1,2.8C6,3,5.8,3.1,5.7,3L4,2.1C2.8,1.5,1.5,2.8,2.1,4L3,5.7C3.1,5.8,3,6,2.8,6.1L1,6.7
	c-1.3,0.4-1.3,2.3,0,2.7l1.8,0.6C3,10,3.1,10.2,3,10.3L2.1,12c-0.6,1.2,0.7,2.5,1.9,1.9L5.7,13c0.2-0.1,0.4,0,0.4,0.2L6.7,15
	c0.4,1.3,2.3,1.3,2.7,0l0.6-1.8c0.1-0.2,0.3-0.3,0.4-0.2l1.7,0.9c1.2,0.6,2.5-0.7,1.9-1.9L13,10.3c-0.1-0.2,0-0.4,0.2-0.4L15,9.3
	C16.3,8.9,16.3,7.1,15,6.7z M8,10.4c-1.3,0-2.4-1.1-2.4-2.4S6.7,5.6,8,5.6s2.4,1.1,2.4,2.4S9.3,10.4,8,10.4z"/>
</svg>
