<svg id="star" xmlns="http://www.w3.org/2000/svg" viewBox="0 0 16 16">
<path d="M8.2,0C8.1,0,8.1,0,8,0c0,0,0,0,0,0c0,0,0,0,0,0C7.9,0,7.6,0,7.4,0.3C7.2,0.6,6.8,1.3,6.1,3.2
	C5.8,4,5.5,4.7,5.4,5.1C4.9,5.1,4,5.2,3.2,5.3C2.4,5.4,1.8,5.4,1.4,5.5C0.5,5.6,0.3,5.7,0.2,5.8C0,6,0,6.1,0,6.3
	c0,0.3,0.2,0.8,2,2.4c0.6,0.5,1.2,1,1.5,1.3c-0.2,0.5-0.4,1.4-0.7,2.3c-0.2,0.8-0.4,1.4-0.5,1.9c-0.2,0.9-0.3,1.2,0,1.5
	c0.1,0.1,0.2,0.1,0.3,0.2c0.1,0,0.1,0,0.2,0c0.2,0,0.7,0,3-1.3c0.9-0.5,1.7-1,2.2-1.2c0.4,0.3,1.3,0.8,2.2,1.3
	c1.4,0.8,2.2,1.1,2.6,1.2C13,16,13.1,16,13.2,16c0.3,0,0.4-0.1,0.5-0.2c0.3-0.3,0.2-0.6,0-1.5c-0.1-0.5-0.3-1.1-0.5-1.9
	c-0.3-0.9-0.6-1.8-0.7-2.3c0.3-0.3,0.9-0.8,1.5-1.3c1.8-1.6,2-2.1,2-2.4c0-0.2,0-0.4-0.2-0.5c-0.1-0.1-0.2-0.1-0.3-0.2
	c-0.2,0-0.4-0.1-0.9-0.1c-0.4-0.1-1-0.1-1.8-0.2c-0.9-0.1-1.7-0.2-2.2-0.2C10.5,4.7,10.2,4,9.9,3.2c-0.8-2-1.1-2.6-1.3-2.9
	C8.5,0.1,8.3,0.1,8.2,0L8.2,0z"/>
</svg>
