<svg width="24" height="24" viewBox="0 0 24 24" fill="none" xmlns="http://www.w3.org/2000/svg">
<path d="M10.2311 18.8978C10.2311 19.8756 11.0222 20.6667 12 20.6667C12.9778 20.6667 13.7689 19.8756 13.7689 18.8978H10.2311ZM18.1156 15.1733V10C18.1156 7.11111 16.1156 4.69333 13.4133 4.05333V3.41333C13.4133 2.63111 12.7822 2 12 2C11.2178 2 10.5867 2.63111 10.5867 3.41333V4.05333C7.88444 4.69333 5.88444 7.11111 5.88444 10V15.1733L4 17.0578V18H20V17.0578L18.1156 15.1733ZM15.5556 11.7867H12.8889V14.4533H11.1111V11.7867H8.44444V10H11.1111V7.33333H12.8889V10H15.5556V11.7867Z" fill="#1C2125"/>
</svg>
