<svg width="24" height="24" viewBox="0 0 24 24" fill="none" xmlns="http://www.w3.org/2000/svg">
<g clip-path="url(#clip0)">
<path d="M16.4999 3.00195C17.3299 3.00195 17.9999 2.33095 17.9999 1.50195C17.9999 0.673953 17.3299 0.00195312 16.4999 0.00195312C15.6699 0.00195312 14.9999 0.673953 14.9999 1.50195C14.9999 2.33095 15.6699 3.00195 16.4999 3.00195ZM11.9999 4.50295C12.8279 4.50295 13.4999 3.83095 13.4999 3.00095C13.4999 2.17295 12.8299 1.50095 11.9999 1.50095C11.1699 1.50095 10.4999 2.17295 10.4999 3.00095C10.4999 3.82995 11.1719 4.50295 11.9999 4.50295ZM20.6649 22.515C19.1589 19.617 16.4999 13.501 16.4999 13.501V7.50095H17.2499C17.6629 7.50095 17.9999 7.16495 17.9999 6.75095C17.9999 6.33795 17.6629 6.00095 17.2499 6.00095H8.24986C7.83586 6.00095 7.49986 6.33795 7.49986 6.75095C7.49986 7.16495 7.83586 7.50095 8.24986 7.50095H8.99986V13.501C8.99986 13.501 6.39886 19.832 4.92786 22.661C4.23186 24.002 4.23186 24.002 5.89186 24.002C9.51286 24.002 16.5709 24.002 19.9889 24.002C20.6599 24.002 21.4399 24.002 20.6659 22.514L20.6649 22.515ZM10.4999 13.502V7.50195H14.9999V13.502C14.9999 13.502 15.2639 14.121 15.6419 15.002H9.89086C10.2509 14.123 10.4999 13.502 10.4999 13.502V13.502ZM17.9069 22.502C15.0599 22.502 10.9279 22.502 7.90986 22.502C6.52686 22.502 6.52686 22.502 7.10686 21.354C7.72186 20.136 8.57386 18.165 9.26986 16.502H16.2959C17.0029 18.108 17.8549 20.003 18.4729 21.225C19.1159 22.501 18.4669 22.501 17.9069 22.501V22.502Z" fill="#1C2125"/>
</g>
<defs>
<clipPath id="clip0">
<rect width="24" height="24" fill="white"/>
</clipPath>
</defs>
</svg>
