<!-- Generated by IcoMoon.io -->
<svg version="1.1" xmlns="http://www.w3.org/2000/svg" width="24" height="24" viewBox="0 0 24 24">
<title>beaker</title>
<path fill="#444" d="M16.5 3.002c0.83 0 1.5-0.671 1.5-1.5 0-0.828-0.67-1.5-1.5-1.5s-1.5 0.672-1.5 1.5c0 0.829 0.67 1.5 1.5 1.5zM12 4.503c0.828 0 1.5-0.672 1.5-1.502 0-0.828-0.67-1.5-1.5-1.5s-1.5 0.672-1.5 1.5c0 0.829 0.672 1.502 1.5 1.502zM20.665 22.515c-1.506-2.898-4.165-9.014-4.165-9.014v-6h0.75c0.413 0 0.75-0.336 0.75-0.75 0-0.413-0.337-0.75-0.75-0.75h-9c-0.414 0-0.75 0.337-0.75 0.75 0 0.414 0.336 0.75 0.75 0.75h0.75v6c0 0-2.601 6.331-4.072 9.16-0.696 1.341-0.696 1.341 0.964 1.341 3.621 0 10.679 0 14.097 0 0.671 0 1.451 0 0.677-1.488zM10.5 13.502v-6h4.5v6c0 0 0.264 0.619 0.642 1.5h-5.751c0.36-0.879 0.609-1.5 0.609-1.5zM17.907 22.502c-2.847 0-6.979 0-9.997 0-1.383 0-1.383 0-0.803-1.148 0.615-1.218 1.467-3.189 2.163-4.852h7.026c0.707 1.606 1.559 3.501 2.177 4.723 0.643 1.276-0.006 1.276-0.566 1.276z"></path>
</svg>
