<!-- Generated by IcoMoon.io -->
<svg version="1.1" xmlns="http://www.w3.org/2000/svg" width="24" height="24" viewBox="0 0 24 24">
<title>blocked-naught</title>
<path fill="#444" d="M12 0.48c-6.362 0-11.52 5.158-11.52 11.52s5.158 11.52 11.52 11.52c6.364 0 11.52-5.158 11.52-11.52s-5.156-11.52-11.52-11.52zM18.2 5.804l-0.002-0.002c0 0.001 0.002 0.002 0.002 0.002zM3.236 12c0-4.841 3.924-8.764 8.764-8.764 2.105 0 4.036 0.742 5.549 1.978l-12.335 12.334c-1.238-1.511-1.978-3.442-1.978-5.546zM5.8 18.197l0.002 0.002c-0.001-0.002-0.001-0.002-0.002-0.002zM12 20.766c-2.105 0-4.036-0.742-5.546-1.979l12.332-12.334c1.237 1.51 1.98 3.442 1.98 5.546 0.002 4.841-3.925 8.766-8.765 8.766z"></path>
</svg>
