<svg width="24" height="24" viewBox="0 0 24 24" fill="none" xmlns="http://www.w3.org/2000/svg">
<path d="M9 13.5H3C2.1 13.5 1.5 14.1 1.5 15V21C1.5 21.9 2.1 22.5 3 22.5H9C9.9 22.5 10.5 21.9 10.5 21V15C10.5 14.1 9.9 13.5 9 13.5ZM9 20.25C9 20.7 8.7 21 8.25 21H3.75C3.3 21 3 20.7 3 20.25V15.75C3 15.3 3.3 15 3.75 15H8.25C8.7 15 9 15.3 9 15.75V20.25ZM9 1.5H3C2.1 1.5 1.5 2.1 1.5 3V9C1.5 9.9 2.1 10.5 3 10.5H9C9.9 10.5 10.5 9.9 10.5 9V3C10.5 2.1 9.9 1.5 9 1.5ZM9 8.25C9 8.7 8.7 9 8.25 9H3.75C3.3 9 3 8.7 3 8.25V3.75C3 3.3 3.3 3 3.75 3H8.25C8.7 3 9 3.3 9 3.75V8.25Z" fill="#1C2125"/>
<path d="M13.2 3H22.2V4.5H13.2V3Z" fill="#1C2125"/>
<path d="M13.2 7.5H22.2V9H13.2V7.5Z" fill="#1C2125"/>
<path d="M13.2 15H22.2V16.5H13.2V15Z" fill="#1C2125"/>
<path d="M13.2 19.5H22.2V21H13.2V19.5Z" fill="#1C2125"/>
</svg>
