<!-- Generated by IcoMoon.io -->
<svg version="1.1" xmlns="http://www.w3.org/2000/svg" width="24" height="24" viewBox="0 0 24 24">
<title>browse-table</title>
<path fill="#444" d="M9 13.5h-6c-0.9 0-1.5 0.6-1.5 1.5v6c0 0.9 0.6 1.5 1.5 1.5h6c0.9 0 1.5-0.6 1.5-1.5v-6c0-0.9-0.6-1.5-1.5-1.5zM9 20.25c0 0.45-0.3 0.75-0.75 0.75h-4.5c-0.45 0-0.75-0.3-0.75-0.75v-4.5c0-0.45 0.3-0.75 0.75-0.75h4.5c0.45 0 0.75 0.3 0.75 0.75v4.5zM9 1.5h-6c-0.9 0-1.5 0.6-1.5 1.5v6c0 0.9 0.6 1.5 1.5 1.5h6c0.9 0 1.5-0.6 1.5-1.5v-6c0-0.9-0.6-1.5-1.5-1.5zM9 8.25c0 0.45-0.3 0.75-0.75 0.75h-4.5c-0.45 0-0.75-0.3-0.75-0.75v-4.5c0-0.45 0.3-0.75 0.75-0.75h4.5c0.45 0 0.75 0.3 0.75 0.75v4.5z"></path>
<path fill="#444" d="M13.2 3h9v1.5h-9v-1.5z"></path>
<path fill="#444" d="M13.2 7.5h9v1.5h-9v-1.5z"></path>
<path fill="#444" d="M13.2 15h9v1.5h-9v-1.5z"></path>
<path fill="#444" d="M13.2 19.5h9v1.5h-9v-1.5z"></path>
</svg>
