<!-- Generated by IcoMoon.io -->
<svg version="1.1" xmlns="http://www.w3.org/2000/svg" width="24" height="24" viewBox="0 0 24 24">
<title>calendar</title>
<path fill="#444" d="M19.5 16.502h-4.5v4.5h4.5v-4.5zM18 19.502h-1.5v-1.5h1.5v1.5zM19.5 10.502h-4.5v4.5h4.5v-4.5zM18 13.502h-1.5v-1.5h1.5v1.5zM21.75 1.501h-5.25v-1.501h-1.5v1.501h-7.5v-1.501h-1.5v1.501h-4.5c-0.828 0-1.5 0.67-1.5 1.5v19.5c0 0.829 0.672 1.5 1.5 1.5h19.5c0.83 0 1.5-0.671 1.5-1.5v-19.5c0-0.829 0.080-1.5-0.75-1.5zM21 21.752c0 0.414-0.337 0.75-0.75 0.75h-18c-0.414 0-0.75-0.336-0.75-0.75v-14.25h19.5v14.25zM21 6.002h-19.5v-2.25c0-0.414 0.336-0.75 0.75-0.75h3.75v1.5h1.5v-1.5h7.5v1.5h1.5v-1.5h3.75c0.413 0 0.75 0.336 0.75 0.75v2.25zM7.5 16.502h-4.5v4.5h4.5v-4.5zM6 19.502h-1.5v-1.5h1.5v1.5zM13.5 16.502h-4.5v4.5h4.5v-4.5zM12 19.502h-1.5v-1.5h1.5v1.5zM7.5 10.502h-4.5v4.5h4.5v-4.5zM6 13.502h-1.5v-1.5h1.5v1.5zM13.5 10.502h-4.5v4.5h4.5v-4.5zM12 13.502h-1.5v-1.5h1.5v1.5z"></path>
</svg>
