<svg width="24" height="24" viewBox="0 0 24 24" fill="none" xmlns="http://www.w3.org/2000/svg">
<g clip-path="url(#clip0)">
<path d="M19.5 16.502H15V21.002H19.5V16.502ZM18 19.502H16.5V18.002H18V19.502ZM19.5 10.502H15V15.002H19.5V10.502ZM18 13.502H16.5V12.002H18V13.502ZM21.75 1.501H16.5V0H15V1.501H7.5V0H6V1.501H1.5C0.672 1.501 0 2.171 0 3.001V22.501C0 23.33 0.672 24.001 1.5 24.001H21C21.83 24.001 22.5 23.33 22.5 22.501V3.001C22.5 2.172 22.58 1.501 21.75 1.501V1.501ZM21 21.752C21 22.166 20.663 22.502 20.25 22.502H2.25C1.836 22.502 1.5 22.166 1.5 21.752V7.502H21V21.752ZM21 6.002H1.5V3.752C1.5 3.338 1.836 3.002 2.25 3.002H6V4.502H7.5V3.002H15V4.502H16.5V3.002H20.25C20.663 3.002 21 3.338 21 3.752V6.002ZM7.5 16.502H3V21.002H7.5V16.502ZM6 19.502H4.5V18.002H6V19.502ZM13.5 16.502H9V21.002H13.5V16.502ZM12 19.502H10.5V18.002H12V19.502ZM7.5 10.502H3V15.002H7.5V10.502ZM6 13.502H4.5V12.002H6V13.502ZM13.5 10.502H9V15.002H13.5V10.502ZM12 13.502H10.5V12.002H12V13.502Z" fill="#1C2125"/>
</g>
<defs>
<clipPath id="clip0">
<rect width="24" height="24" fill="white"/>
</clipPath>
</defs>
</svg>
