<svg width="24" height="24" viewBox="0 0 24 24" fill="none" xmlns="http://www.w3.org/2000/svg">
<path d="M7.2 17.5992C8.96731 17.5992 10.4 16.1665 10.4 14.3992C10.4 12.6319 8.96731 11.1992 7.2 11.1992C5.43269 11.1992 4 12.6319 4 14.3992C4 16.1665 5.43269 17.5992 7.2 17.5992Z" fill="#1C2125"/>
<path d="M14.8008 20C15.9054 20 16.8008 19.1046 16.8008 18C16.8008 16.8954 15.9054 16 14.8008 16C13.6962 16 12.8008 16.8954 12.8008 18C12.8008 19.1046 13.6962 20 14.8008 20Z" fill="#1C2125"/>
<path d="M15.1984 13.6C17.8494 13.6 19.9984 11.451 19.9984 8.8C19.9984 6.14903 17.8494 4 15.1984 4C12.5475 4 10.3984 6.14903 10.3984 8.8C10.3984 11.451 12.5475 13.6 15.1984 13.6Z" fill="#1C2125"/>
</svg>
