<!-- Generated by IcoMoon.io -->
<svg version="1.1" xmlns="http://www.w3.org/2000/svg" width="24" height="24" viewBox="0 0 24 24">
<title>chat-unavailable</title>
<path fill="#444" d="M6 7.503c-0.828 0-1.5 0.671-1.5 1.5s0.671 1.5 1.5 1.5c0.828 0 1.5-0.671 1.5-1.5s-0.672-1.5-1.5-1.5zM12 7.503c-0.828 0-1.5 0.671-1.5 1.5s0.671 1.5 1.5 1.5 1.5-0.671 1.5-1.5-0.67-1.5-1.5-1.5zM18 7.503c-0.83 0-1.5 0.671-1.5 1.5s0.67 1.5 1.5 1.5 1.5-0.671 1.5-1.5-0.67-1.5-1.5-1.5zM19.5 0.003h-15c-2.486 0-4.5 2.014-4.5 4.5v9.75c0 2.484 2.014 3.75 4.5 3.75h9l6 6v-6c2.484 0 4.5-1.266 4.5-3.75v-9.75c0-2.486-2.016-4.5-4.5-4.5zM22.5 14.253c0 1.656-1.343 2.25-3 2.25h-1.5v3.75l-3.75-3.75h-9.75c-1.656 0-3-0.594-3-2.25v-9.75c0-1.657 1.344-3 3-3h15c1.657 0 3 1.343 3 3v9.75z"></path>
</svg>
