<!-- Generated by IcoMoon.io -->
<svg version="1.1" xmlns="http://www.w3.org/2000/svg" width="24" height="24" viewBox="0 0 24 24">
<title>chat-available</title>
<path fill="#444" d="M19.488 0h-14.976c-2.496 0-4.512 2.016-4.512 4.608v9.792c0 2.496 2.016 3.84 4.512 3.84h9.12l6.624 5.76v-5.76c2.208-0.192 3.84-1.44 3.84-3.744v-9.888c-0.096-2.592-2.112-4.608-4.608-4.608zM6.24 10.56c-0.768 0-1.44-0.672-1.44-1.44 0-0.864 0.672-1.44 1.44-1.44s1.44 0.576 1.44 1.44c0 0.768-0.672 1.44-1.44 1.44zM12 10.56c-0.768 0-1.44-0.672-1.44-1.44 0-0.864 0.672-1.44 1.44-1.44s1.44 0.576 1.44 1.44c0 0.768-0.672 1.44-1.44 1.44zM17.76 10.56c-0.768 0-1.44-0.672-1.44-1.44 0-0.864 0.672-1.44 1.44-1.44s1.44 0.576 1.44 1.44c0 0.768-0.672 1.44-1.44 1.44z"></path>
</svg>
