<?xml version="1.0" encoding="UTF-8"?>
<svg width="20px" height="20px" viewBox="0 0 20 20" version="1.1" xmlns="http://www.w3.org/2000/svg" xmlns:xlink="http://www.w3.org/1999/xlink">
    <!-- Generator: Sketch 52.2 (67145) - http://www.bohemiancoding.com/sketch -->
    <title>CheckProgress</title>
    <desc>Created with Sketch.</desc>
    <g id="Page-1" stroke="none" stroke-width="1" fill="none" fill-rule="evenodd">
        <g id="CheckProgress" transform="translate(-2.000000, -2.000000)">
            <polygon id="Path" points="0 0 24 0 24 24 0 24"></polygon>
            <path d="M13,2.03 L13,2.05 L13,4.05 C17.39,4.59 20.5,8.58 19.96,12.97 C19.5,16.61 16.64,19.5 13,19.93 L13,21.93 C18.5,21.38 22.5,16.5 21.95,11 C21.5,6.25 17.73,2.5 13,2.03 Z M11,2.06 C9.05,2.25 7.19,3 5.67,4.26 L7.1,5.74 C8.22,4.84 9.57,4.26 11,4.06 L11,2.06 Z M4.26,5.67 C3,7.19 2.25,9.04 2.05,11 L4.05,11 C4.24,9.58 4.8,8.23 5.69,7.1 L4.26,5.67 Z M15.5,8.5 L10.62,13.38 L8.5,11.26 L7.44,12.32 L10.62,15.5 L16.56,9.56 L15.5,8.5 Z M2.06,13 C2.26,14.96 3.03,16.81 4.27,18.33 L5.69,16.9 C4.81,15.77 4.24,14.42 4.06,13 L2.06,13 Z M7.1,18.37 L5.67,19.74 C7.18,21 9.04,21.79 11,22 L11,20 C9.58,19.82 8.23,19.25 7.1,18.37 Z" id="Shape" fill="#000000" fill-rule="nonzero"></path>
        </g>
    </g>
</svg>