<?xml version="1.0" encoding="UTF-8"?>
<svg width="24px" height="24px" viewBox="0 0 24 24" version="1.1" xmlns="http://www.w3.org/2000/svg" xmlns:xlink="http://www.w3.org/1999/xlink">
    <!-- Generator: Sketch 52.2 (67145) - http://www.bohemiancoding.com/sketch -->
    <title>Slice 1</title>
    <desc>Created with Sketch.</desc>
    <g id="Page-1" stroke="none" stroke-width="1" fill="none" fill-rule="evenodd">
        <g id="CheckProgress">
            <rect id="Rectangle" fill="#E5E5E5" opacity="0" x="0" y="0" width="24" height="24"></rect>
            <path d="M13,2.03 L13,2.05 L13,4.05 C17.39,4.59 20.5,8.58 19.96,12.97 C19.5,16.61 16.64,19.5 13,19.93 L13,21.93 C18.5,21.38 22.5,16.5 21.95,11 C21.5,6.25 17.73,2.5 13,2.03 Z M11,2.06 C9.04999,2.25 7.18999,3 5.66999,4.26 L7.09999,5.74 C8.21999,4.84 9.56999,4.26 11,4.06 L11,2.06 Z M4.25999,5.67 C2.99999,7.19 2.24999,9.04 2.04999,11 L4.04999,11 C4.23999,9.58 4.79999,8.23 5.68999,7.1 L4.25999,5.67 Z M15.5,8.5 L10.62,13.38 L8.49999,11.26 L7.43999,12.32 L10.62,15.5 L16.56,9.56 L15.5,8.5 Z M2.05999,13 C2.25999,14.96 3.02999,16.81 4.26999,18.33 L5.68999,16.9 C4.80999,15.77 4.23999,14.42 4.05999,13 L2.05999,13 Z M7.09999,18.37 L5.66999,19.74 C7.17999,21 9.03999,21.79 11,22 L11,20 C9.57999,19.82 8.22999,19.25 7.09999,18.37 Z" id="Shape" fill="#000000" fill-rule="nonzero"></path>
        </g>
    </g>
</svg>