<svg width="24" height="24" viewBox="0 0 24 24" fill="none" xmlns="http://www.w3.org/2000/svg">
<g clip-path="url(#clip0)">
<path d="M7.5 18.003H9V16.503H7.5V18.003ZM4.5 13.502H6V12.002H4.5V13.502ZM18 6.003H16.5V7.503H18V6.003ZM7.5 7.503H9V6.003H7.5V7.503ZM12 21.002H13.5V19.502H12V21.002ZM13.5 4.502H12V13.502H19.5V12H13.5V4.502V4.502ZM16.5 18.003H18V16.503H16.5V18.003ZM12.75 1.5C6.537 1.5 1.5 6.537 1.5 12.75C1.5 18.965 6.537 24.002 12.75 24.002C18.965 24.002 24 18.965 24 12.75C24 6.537 18.965 1.5 12.75 1.5V1.5ZM12.75 22.502C7.366 22.502 3 18.137 3 12.75C3 7.366 7.365 3.002 12.75 3.002C18.135 3.002 22.5 7.367 22.5 12.75C22.5 18.137 18.135 22.502 12.75 22.502Z" fill="#1C2125"/>
</g>
<defs>
<clipPath id="clip0">
<rect width="24" height="24" fill="white"/>
</clipPath>
</defs>
</svg>
