<!-- Generated by IcoMoon.io -->
<svg version="1.1" xmlns="http://www.w3.org/2000/svg" width="24" height="24" viewBox="0 0 24 24">
<title>clock</title>
<path fill="#444" d="M7.5 18.003h1.5v-1.5h-1.5v1.5zM4.5 13.502h1.5v-1.5h-1.5v1.5zM18 6.003h-1.5v1.5h1.5v-1.5zM7.5 7.503h1.5v-1.5h-1.5v1.5zM12 21.002h1.5v-1.5h-1.5v1.5zM13.5 4.502h-1.5v9h7.5v-1.502h-6v-7.498zM16.5 18.003h1.5v-1.5h-1.5v1.5zM12.75 1.5c-6.213 0-11.25 5.037-11.25 11.25 0 6.215 5.037 11.252 11.25 11.252 6.215 0 11.25-5.037 11.25-11.252 0-6.213-5.035-11.25-11.25-11.25zM12.75 22.502c-5.384 0-9.75-4.365-9.75-9.752 0-5.384 4.365-9.748 9.75-9.748s9.75 4.365 9.75 9.748c0 5.387-4.365 9.752-9.75 9.752z"></path>
</svg>
