<svg width="24" height="24" viewBox="0 0 24 24" fill="none" xmlns="http://www.w3.org/2000/svg">
<path d="M13.044 11.252L22.29 2.005C22.58 1.718 22.58 1.249 22.29 0.963002C22.003 0.675002 21.537 0.675002 21.247 0.963002L11.999 10.209L2.752 0.963002C2.464 0.675002 1.996 0.675002 1.708 0.963002C1.42 1.25 1.42 1.719 1.708 2.005L10.956 11.253L1.71 20.499C1.422 20.787 1.422 21.255 1.71 21.543C1.998 21.831 2.465 21.831 2.754 21.543L12 12.295L21.246 21.542C21.536 21.83 22.002 21.83 22.289 21.542C22.578 21.254 22.578 20.786 22.289 20.498L13.044 11.252V11.252Z" fill="#1C2125"/>
</svg>
