<svg width="24" height="24" viewBox="0 0 24 24" fill="none" xmlns="http://www.w3.org/2000/svg">
<g clip-path="url(#clip0)">
<path d="M14.422 9.624C13.989 9.514 13.506 9.73 13.345 10.109L11.267 15.005C11.261 15.005 11.255 15.003 11.249 15.003C10.007 15.003 8.999 16.009 8.999 17.253C8.999 18.495 10.007 19.501 11.249 19.501C12.491 19.501 13.499 18.495 13.499 17.253C13.499 16.594 13.211 16.007 12.76 15.596L14.92 10.506C15.079 10.128 14.856 9.734 14.422 9.624ZM11.25 18.005C10.835 18.005 10.5 17.669 10.5 17.255C10.5 16.841 10.835 16.505 11.25 16.505C11.663 16.505 12 16.841 12 17.255C12 17.669 11.664 18.005 11.25 18.005ZM12 0.00299835C5.373 0.00299835 0 5.374 0 12.003C0 18.632 5.373 24.001 12 24.001C18.625 24.001 24 18.631 24 12.003C24 5.375 18.627 0.00299835 12 0.00299835V0.00299835ZM12 22.503C6.2 22.503 1.5 17.802 1.5 12.003C1.5 6.204 6.201 1.503 12 1.503C17.797 1.503 22.5 6.204 22.5 12.003C22.5 17.802 17.797 22.503 12 22.503ZM12 4.503C7.857 4.503 4.5 7.86 4.5 12.003H6C6 8.69 8.687 6.003 12 6.003C15.312 6.003 18 8.69 18 12.003H19.5C19.5 7.86 16.143 4.503 12 4.503Z" fill="#1C2125"/>
</g>
<defs>
<clipPath id="clip0">
<rect width="24" height="24" fill="white"/>
</clipPath>
</defs>
</svg>
