<!-- Generated by IcoMoon.io -->
<svg version="1.1" xmlns="http://www.w3.org/2000/svg" width="24" height="24" viewBox="0 0 24 24">
<title>delete-from-trash</title>
<path fill="#444" d="M12.917 11.146h-0.514c-0.265 0-0.48 0.215-0.48 0.48v0 7.937c0 0.265 0.215 0.48 0.48 0.48v0h0.514c0.265 0 0.48-0.215 0.48-0.48v0-7.937c0-0.265-0.215-0.48-0.48-0.48v0zM12.797 19.44h-0.274v-7.694h0.274z"></path>
<path fill="#444" d="M7.942 11.146h-0.516c-0.265 0-0.48 0.215-0.48 0.48v0 7.937c0 0.265 0.215 0.48 0.48 0.48v0h0.516c0.265 0 0.48-0.215 0.48-0.48v0-7.937c0-0.265-0.215-0.48-0.48-0.48v0zM7.822 19.44h-0.276v-7.694h0.276z"></path>
<path fill="#444" d="M10.428 11.146h-0.514c-0.265 0-0.48 0.215-0.48 0.48v0 7.937c0 0.265 0.215 0.48 0.48 0.48v0h0.514c0.265 0 0.48-0.215 0.48-0.48v0-7.937c0-0.265-0.215-0.48-0.48-0.48v0zM10.32 19.44h-0.286v-7.694h0.286z"></path>
<path fill="#444" d="M21.374 16.334l-0.866-3.252c-0.081-0.3-0.352-0.518-0.673-0.518-0.064 0-0.125 0.009-0.184 0.025l0.005-0.001-1.536 0.41-0.943-3.547c-0.021-0.077-0.091-0.133-0.174-0.133-0.017 0-0.033 0.002-0.048 0.007l0.001-0-0.662 0.178v-0.672c0-0.001 0-0.002 0-0.002 0-0.098-0.080-0.178-0.178-0.178-0.001 0-0.002 0-0.003 0h-0.614l0.298-1.402c0.002-0.011 0.003-0.023 0.003-0.036 0-0.087-0.060-0.159-0.141-0.178l-0.001-0-2.998-0.636v-0.773c0-0.099-0.081-0.18-0.18-0.18v0h-4.908c-0.099 0-0.18 0.081-0.18 0.18v0 1.157l-2.515 0.278c-0.090 0.012-0.159 0.088-0.159 0.181 0 0.006 0 0.013 0.001 0.019l-0-0.001 0.154 1.38h-0.638c-0.099 0-0.18 0.081-0.18 0.18v0 1.56c0.001 0.099 0.081 0.179 0.18 0.18h0.353l0.619 10.872c0.006 0.094 0.084 0.168 0.18 0.168 0 0 0 0 0 0h9.576c0 0 0 0 0 0 0.095 0 0.173-0.074 0.18-0.167l0-0.001 0.574-10.006 2.662 10.001c0.022 0.077 0.092 0.133 0.176 0.133 0.016 0 0.032-0.002 0.047-0.006l-0.001 0 1.507-0.403c0.077-0.020 0.133-0.090 0.133-0.172 0-0.017-0.002-0.032-0.006-0.048l0 0.001-0.888-3.336 1.536-0.41c0.3-0.081 0.518-0.352 0.518-0.673 0-0.064-0.009-0.125-0.025-0.184l0.001 0.005zM12.66 7.013l2.46 0.521-0.24 1.106h-2.22zM7.992 6.053h4.080v2.587h-1.901l-0.019-0.18-0.197-1.79c-0.012-0.090-0.088-0.159-0.181-0.159-0.006 0-0.013 0-0.019 0.001l0.001-0-1.764 0.209zM7.392 7.394l0.6-0.067 1.411-0.156 0.166 1.469h-4.080l-0.115-1.039zM14.566 21.007h-8.782l-0.598-10.447h9.974zM15.694 9.506v0.154l-0.24 0.065c-0.077 0.021-0.133 0.091-0.133 0.174 0 0.017 0.002 0.033 0.007 0.048l-0-0.001v0.024h-10.673v-0.72h11.040zM19.534 20.681l-0.696 0.185-2.83-10.678 0.286-0.077 0.41-0.108zM18.574 14.717l0.578-0.154 0.31 1.159-0.581 0.154-0.161-0.588zM20.734 16.608l-0.96 0.254-0.574 0.154-0.017-0.062-0.132-0.497 0.984-0.264c0.078-0.021 0.135-0.091 0.135-0.174 0-0.016-0.002-0.031-0.006-0.045l0 0.001-0.526-1.973c-0.021-0.077-0.091-0.133-0.174-0.133-0.017 0-0.033 0.002-0.048 0.007l0.001-0-0.996 0.262-0.149-0.559 1.541-0.408c0.008-0.002 0.017-0.004 0.027-0.004 0.044 0 0.080 0.030 0.091 0.070l0 0.001 0.866 3.254c0.002 0.007 0.003 0.015 0.003 0.024 0 0.046-0.032 0.084-0.074 0.094l-0.001 0z"></path>
</svg>
