<!-- Generated by IcoMoon.io -->
<svg version="1.1" xmlns="http://www.w3.org/2000/svg" width="24" height="24" viewBox="0 0 24 24">
<title>digital-marketing-analytics-app</title>
<path fill="#444" d="M11.816 8.102h-7.68c-0.509 0-0.998 0.202-1.358 0.562s-0.562 0.848-0.562 1.358v3.84c0 0.509 0.202 0.998 0.562 1.358s0.848 0.562 1.358 0.562h0.96v3.84c0 0.255 0.101 0.499 0.281 0.679s0.424 0.281 0.679 0.281h1.92c0.255 0 0.499-0.101 0.679-0.281s0.281-0.424 0.281-0.679v-3.84h2.88l4.8 3.84v-15.36l-4.8 3.84zM14.696 15.398l-1.92-1.536h-8.64v-3.84h8.64l1.92-1.536v6.912zM20.936 11.942c0 1.642-0.922 3.13-2.4 3.84v-7.68c1.469 0.72 2.4 2.208 2.4 3.84z"></path>
</svg>
