<!-- Generated by IcoMoon.io -->
<svg version="1.1" xmlns="http://www.w3.org/2000/svg" width="24" height="24" viewBox="0 0 24 24">
<title>dimension-fill</title>
<path fill="#444" d="M1.245 7.896c-0.687 0-1.245 0.89-1.245 1.992v3.984c0 1.1 0.558 1.992 1.245 1.992h17.43c0.688 0 1.245-0.892 1.245-1.992v-3.984c0-1.102-0.557-1.992-1.245-1.992h-17.43zM16.949 13.872h-13.897c-0.315 0-1.051-0.446-1.051-0.996v-1.992c0-0.55 0.736-0.996 1.051-0.996h13.897c0.314 0 1.051 0.446 1.051 0.996v1.992c0 0.55-0.737 0.996-1.051 0.996zM5.25 17.856c-0.69 0-1.25 0.445-1.25 0.996v1.992c0 0.55 0.56 0.996 1.25 0.996h17.5c0.691 0 1.25-0.446 1.25-0.996v-1.992c0-0.551-0.559-0.996-1.25-0.996h-17.5zM5.25 1.92c-0.69 0-1.25 0.446-1.25 0.996v1.992c0 0.551 0.56 0.996 1.25 0.996h17.5c0.691 0 1.25-0.445 1.25-0.996v-1.992c0-0.55-0.559-0.996-1.25-0.996h-17.5z"></path>
</svg>
