<svg width="24" height="24" viewBox="0 0 24 24" fill="none" xmlns="http://www.w3.org/2000/svg">
<path d="M1.245 7.89592C0.558 7.89592 0 8.78592 0 9.88792V13.8719C0 14.9719 0.558 15.8639 1.245 15.8639H18.675C19.363 15.8639 19.92 14.9719 19.92 13.8719V9.88792C19.92 8.78592 19.363 7.89592 18.675 7.89592H1.245V7.89592ZM16.949 13.8719H3.052C2.737 13.8719 2.001 13.4259 2.001 12.8759V10.8839C2.001 10.3339 2.737 9.88792 3.052 9.88792H16.949C17.263 9.88792 18 10.3339 18 10.8839V12.8759C18 13.4259 17.263 13.8719 16.949 13.8719V13.8719ZM5.25 17.8559C4.56 17.8559 4 18.3009 4 18.8519V20.8439C4 21.3939 4.56 21.8399 5.25 21.8399H22.75C23.441 21.8399 24 21.3939 24 20.8439V18.8519C24 18.3009 23.441 17.8559 22.75 17.8559H5.25ZM5.25 1.91992C4.56 1.91992 4 2.36592 4 2.91592V4.90792C4 5.45892 4.56 5.90392 5.25 5.90392H22.75C23.441 5.90392 24 5.45892 24 4.90792V2.91592C24 2.36592 23.441 1.91992 22.75 1.91992H5.25V1.91992Z" fill="#1C2125"/>
</svg>
