<!-- Generated by IcoMoon.io -->
<svg version="1.1" xmlns="http://www.w3.org/2000/svg" width="19" height="24" viewBox="0 0 19 24">
<title>document-file</title>
<path fill="#444" d="M0.012 2.4c0-1.32 1.068-2.4 2.388-2.4h9.6l7.2 7.2v14.4c0 1.32-1.080 2.4-2.4 2.4h-14.412c-1.32 0-2.388-1.080-2.388-2.4l0.012-19.2zM10.8 1.8v6.6h6.6l-6.6-6.6zM8.523 20.663c0.818-0.802 1.227-1.944 1.227-3.427 0-1.377-0.389-2.431-1.167-3.16-0.774-0.729-1.874-1.094-3.3-1.094h-3.075v8.884h2.874c1.478 0 2.625-0.401 3.439-1.203zM6.773 15.511c0.324 0.393 0.486 0.997 0.486 1.811 0 0.871-0.17 1.519-0.51 1.944-0.34 0.421-0.875 0.632-1.604 0.632h-0.535v-4.977h0.699c0.656 0 1.144 0.196 1.465 0.589zM16.498 21.046c0.608-0.632 0.911-1.511 0.911-2.637 0-0.717-0.142-1.343-0.425-1.878-0.28-0.539-0.678-0.952-1.197-1.24s-1.116-0.431-1.793-0.431c-1.094 0-1.944 0.312-2.552 0.936-0.603 0.62-0.905 1.491-0.905 2.613 0 1.098 0.308 1.969 0.924 2.613 0.62 0.644 1.452 0.966 2.497 0.966 1.090 0 1.936-0.314 2.54-0.942zM13.187 19.764c-0.158-0.312-0.237-0.764-0.237-1.355s0.079-1.035 0.237-1.331c0.158-0.3 0.419-0.45 0.784-0.45 0.373 0 0.636 0.15 0.79 0.45s0.231 0.743 0.231 1.331c0 0.591-0.077 1.043-0.231 1.355-0.15 0.308-0.409 0.462-0.778 0.462-0.373 0-0.638-0.154-0.796-0.462z"></path>
</svg>
