<svg width="24" height="24" viewBox="0 0 24 24" fill="none" xmlns="http://www.w3.org/2000/svg">
<g clip-path="url(#clip0)">
<path d="M12.317 14.241L23.979 2.574L22.919 1.514L11.258 13.18L12.317 14.242V14.241ZM19.494 21.752C19.494 22.166 19.157 22.504 18.744 22.504H3.75C3.334 22.504 3 22.166 3 21.752V6.752C3 6.339 3.336 6.002 3.75 6.002H14.995V4.502H3C2.172 4.502 1.5 5.174 1.5 6.002V22.504C1.5 23.33 2.171 24.002 3 24.002H19.495C20.321 24.002 20.992 23.33 20.992 22.504V10.502H19.495V21.752H19.494Z" fill="#1C2125"/>
</g>
<defs>
<clipPath id="clip0">
<rect width="24" height="24" fill="white"/>
</clipPath>
</defs>
</svg>
