<!-- Generated by IcoMoon.io -->
<svg version="1.1" xmlns="http://www.w3.org/2000/svg" width="24" height="24" viewBox="0 0 24 24">
<title>ellipsis</title>
<path fill="#444" d="M3.6 9.36c-1.458 0-2.64 1.182-2.64 2.64s1.182 2.64 2.64 2.64 2.64-1.182 2.64-2.64c0-1.458-1.182-2.64-2.64-2.64zM12 9.36c-1.458 0-2.64 1.182-2.64 2.64s1.182 2.64 2.64 2.64 2.639-1.182 2.639-2.64c0-1.458-1.181-2.64-2.639-2.64zM20.4 9.36c-1.458 0-2.64 1.182-2.64 2.64s1.182 2.64 2.64 2.64 2.64-1.182 2.64-2.64c0-1.458-1.182-2.64-2.64-2.64z"></path>
</svg>
