<!-- Generated by IcoMoon.io -->
<svg version="1.1" xmlns="http://www.w3.org/2000/svg" width="24" height="24" viewBox="0 0 24 24">
<title>expand-collapse</title>
<path fill="#444" d="M21.273 2.182c0-0.301-0.244-0.545-0.545-0.545s-0.545 0.244-0.545 0.545v19.636c0 0.301 0.244 0.545 0.545 0.545s0.545-0.244 0.545-0.545v-19.636z"></path>
<path fill="#444" d="M14.938 12.431c0.238 0.185 0.58 0.142 0.765-0.096s0.142-0.58-0.096-0.765l-4.909-3.818c-0.238-0.185-0.58-0.142-0.765 0.096s-0.142 0.58 0.096 0.765l4.909 3.818z"></path>
<path fill="#444" d="M15.608 12.431c0.238-0.185 0.281-0.528 0.096-0.765s-0.528-0.281-0.765-0.096l-4.909 3.818c-0.238 0.185-0.281 0.528-0.096 0.765s0.528 0.281 0.765 0.096l4.909-3.818z"></path>
<path fill="#444" d="M15.273 12.545c0.301 0 0.545-0.244 0.545-0.545s-0.244-0.545-0.545-0.545h-12.545c-0.301 0-0.545 0.244-0.545 0.545s0.244 0.545 0.545 0.545h12.545z"></path>
</svg>
