<!-- Generated by IcoMoon.io -->
<svg version="1.1" xmlns="http://www.w3.org/2000/svg" width="24" height="24" viewBox="0 0 24 24">
<title>explore</title>
<path fill="#444" d="M21 7.502h-3c-1.107 0-2.066 0.608-2.585 1.5h-3.415v-1.5h-6v1.5h-4.5c-0.828 0-1.5 0.672-1.5 1.5v4.5c0 0.83 0.672 1.5 1.5 1.5h13.915c0.519 0.894 1.476 1.5 2.585 1.5h6v-10.5h-3zM7.5 9.002h3v1.5h-3v-1.5zM15 15.002h-12.75c-0.414 0-0.75-0.336-0.75-0.75v-3c0-0.414 0.336-0.75 0.75-0.75h3.75v1.5h6v-1.5h3v4.5zM19.5 16.502h-1.5c-0.83 0-1.5-0.671-1.5-1.5v-4.5c0-0.828 0.67-1.5 1.5-1.5h1.5v7.5zM22.5 16.502h-1.5v-7.5h1.5v7.5z"></path>
</svg>
