<svg width="24" height="24" viewBox="0 0 24 24" fill="none" xmlns="http://www.w3.org/2000/svg">
<path d="M21 7.50195H18C16.893 7.50195 15.934 8.10995 15.415 9.00195H12V7.50195H6V9.00195H1.5C0.672 9.00195 0 9.67395 0 10.502V15.002C0 15.832 0.672 16.502 1.5 16.502H15.415C15.934 17.396 16.891 18.002 18 18.002H24V7.50195H21V7.50195ZM7.5 9.00195H10.5V10.502H7.5V9.00195ZM15 15.002H2.25C1.836 15.002 1.5 14.666 1.5 14.252V11.252C1.5 10.838 1.836 10.502 2.25 10.502H6V12.002H12V10.502H15V15.002ZM19.5 16.502H18C17.17 16.502 16.5 15.831 16.5 15.002V10.502C16.5 9.67395 17.17 9.00195 18 9.00195H19.5V16.502ZM22.5 16.502H21V9.00195H22.5V16.502Z" fill="#1C2125"/>
</svg>
