<!-- Generated by IcoMoon.io -->
<svg version="1.1" xmlns="http://www.w3.org/2000/svg" width="24" height="24" viewBox="0 0 24 24">
<title>find-selected</title>
<path fill="#444" d="M9.596 2.741c1.892 0 3.605 0.768 4.853 2.001l-3.482 3.482h8.225v-8.224l-2.81 2.81c-1.741-1.741-4.14-2.81-6.786-2.81-4.839 0-8.814 3.578-9.486 8.224h2.769c0.631-3.125 3.4-5.483 6.717-5.483zM17.327 15.27c0.905-1.234 1.535-2.7 1.755-4.304h-2.769c-0.631 3.125-3.4 5.483-6.717 5.483-1.892 0-3.605-0.768-4.853-2.001l3.482-3.482h-8.225v8.224l2.81-2.81c1.741 1.741 4.14 2.81 6.786 2.81 2.125 0 4.085-0.699 5.675-1.864l6.662 6.648 2.042-2.042-6.648-6.662z"></path>
</svg>
