<svg width="24" height="24" viewBox="0 0 24 24" fill="none" xmlns="http://www.w3.org/2000/svg">
<path d="M19.4289 12.98C19.4689 12.66 19.4989 12.34 19.4989 12C19.4989 11.66 19.4689 11.34 19.4289 11.02L21.5389 9.37C21.7289 9.22 21.7789 8.95 21.6589 8.73L19.6589 5.27C19.5689 5.11 19.3989 5.02 19.2189 5.02C19.1589 5.02 19.0989 5.03 19.0489 5.05L16.5589 6.05C16.0389 5.65 15.4789 5.32 14.8689 5.07L14.4889 2.42C14.4589 2.18 14.2489 2 13.9989 2H9.99886C9.74886 2 9.53886 2.18 9.50886 2.42L9.12886 5.07C8.51886 5.32 7.95886 5.66 7.43886 6.05L4.94886 5.05C4.88886 5.03 4.82886 5.02 4.76886 5.02C4.59886 5.02 4.42886 5.11 4.33886 5.27L2.33886 8.73C2.20886 8.95 2.26886 9.22 2.45886 9.37L4.56886 11.02C4.52886 11.34 4.49886 11.67 4.49886 12C4.49886 12.33 4.52886 12.66 4.56886 12.98L2.45886 14.63C2.26886 14.78 2.21886 15.05 2.33886 15.27L4.33886 18.73C4.42886 18.89 4.59886 18.98 4.77886 18.98C4.83886 18.98 4.89886 18.97 4.94886 18.95L7.43886 17.95C7.95886 18.35 8.51886 18.68 9.12886 18.93L9.50886 21.58C9.53886 21.82 9.74886 22 9.99886 22H13.9989C14.2489 22 14.4589 21.82 14.4889 21.58L14.8689 18.93C15.4789 18.68 16.0389 18.34 16.5589 17.95L19.0489 18.95C19.1089 18.97 19.1689 18.98 19.2289 18.98C19.3989 18.98 19.5689 18.89 19.6589 18.73L21.6589 15.27C21.7789 15.05 21.7289 14.78 21.5389 14.63L19.4289 12.98ZM17.4489 11.27C17.4889 11.58 17.4989 11.79 17.4989 12C17.4989 12.21 17.4789 12.43 17.4489 12.73L17.3089 13.86L18.1989 14.56L19.2789 15.4L18.5789 16.61L17.3089 16.1L16.2689 15.68L15.3689 16.36C14.9389 16.68 14.5289 16.92 14.1189 17.09L13.0589 17.52L12.8989 18.65L12.6989 20H11.2989L11.1089 18.65L10.9489 17.52L9.88886 17.09C9.45886 16.91 9.05886 16.68 8.65886 16.38L7.74886 15.68L6.68886 16.11L5.41886 16.62L4.71886 15.41L5.79886 14.57L6.68886 13.87L6.54886 12.74C6.51886 12.43 6.49886 12.2 6.49886 12C6.49886 11.8 6.51886 11.57 6.54886 11.27L6.68886 10.14L5.79886 9.44L4.71886 8.6L5.41886 7.39L6.68886 7.9L7.72886 8.32L8.62886 7.64C9.05886 7.32 9.46886 7.08 9.87886 6.91L10.9389 6.48L11.0989 5.35L11.2989 4H12.6889L12.8789 5.35L13.0389 6.48L14.0989 6.91C14.5289 7.09 14.9289 7.32 15.3289 7.62L16.2389 8.32L17.2989 7.89L18.5689 7.38L19.2689 8.59L18.1989 9.44L17.3089 10.14L17.4489 11.27Z" fill="#1C2125"/>
<path d="M12 8C9.79 8 8 9.79 8 12C8 14.21 9.79 16 12 16C14.21 16 16 14.21 16 12C16 9.79 14.21 8 12 8ZM12 14C10.9 14 10 13.1 10 12C10 10.9 10.9 10 12 10C13.1 10 14 10.9 14 12C14 13.1 13.1 14 12 14Z" fill="#1C2125"/>
</svg>
