<!-- Generated by IcoMoon.io -->
<svg version="1.1" xmlns="http://www.w3.org/2000/svg" width="24" height="24" viewBox="0 0 24 24">
<title>gear</title>
<path fill="#444" d="M24 12c0-1.575-1.22-2.851-2.763-2.975-0.163-0.514-0.366-1.005-0.612-1.478 0.99-1.179 0.969-2.922-0.141-4.032-1.107-1.108-2.85-1.131-4.029-0.141-0.474-0.244-0.966-0.447-1.479-0.612-0.126-1.544-1.399-2.762-2.976-2.762-1.575 0-2.851 1.218-2.976 2.762-0.515 0.165-1.007 0.367-1.479 0.612-1.179-0.99-2.922-0.969-4.030 0.141s-1.131 2.852-0.141 4.030c-0.244 0.474-0.446 0.964-0.612 1.479-1.543 0.123-2.761 1.399-2.761 2.974 0 1.577 1.218 2.852 2.761 2.976 0.167 0.514 0.368 1.006 0.614 1.479-0.992 1.178-0.969 2.92 0.139 4.030 1.11 1.108 2.852 1.131 4.030 0.141 0.473 0.244 0.964 0.447 1.479 0.612 0.123 1.545 1.401 2.763 2.976 2.763 1.576 0 2.853-1.22 2.976-2.763 0.513-0.165 1.005-0.367 1.479-0.612 1.177 0.99 2.921 0.969 4.029-0.141 1.11-1.109 1.131-2.852 0.141-4.030 0.246-0.473 0.448-0.966 0.612-1.479 1.545-0.124 2.763-1.399 2.763-2.976zM20.112 13.502c-0.215 1.159-0.686 2.224-1.331 3.159l0.642 0.643c0.586 0.587 0.586 1.535 0 2.121s-1.535 0.587-2.121 0l-0.648-0.648c-0.934 0.642-1.998 1.11-3.154 1.322v0.902c0 0.83-0.67 1.502-1.5 1.502s-1.5-0.672-1.5-1.502v-0.901c-1.158-0.213-2.221-0.679-3.156-1.322l-0.646 0.648c-0.587 0.587-1.536 0.587-2.121 0-0.587-0.586-0.587-1.534 0-2.121l0.643-0.643c-0.646-0.934-1.116-2-1.33-3.159h-0.889c-0.828 0-1.5-0.672-1.5-1.501 0-0.828 0.672-1.498 1.5-1.498h0.888c0.215-1.161 0.686-2.226 1.331-3.161l-0.644-0.644c-0.587-0.587-0.587-1.534 0-2.121 0.585-0.587 1.535-0.587 2.121 0l0.648 0.646c0.934-0.64 1.998-1.108 3.156-1.32v-0.901c0-0.829 0.672-1.5 1.5-1.5s1.5 0.671 1.5 1.5v0.901c1.158 0.213 2.221 0.681 3.156 1.322l0.648-0.648c0.587-0.587 1.535-0.587 2.121 0s0.587 1.535 0 2.121l-0.642 0.644c0.645 0.934 1.116 1.999 1.331 3.16h0.886c0.83 0 1.5 0.671 1.5 1.499 0 0.83-0.67 1.501-1.5 1.501h-0.888zM12 7.502c-2.486 0-4.5 2.014-4.5 4.498 0 2.486 2.014 4.502 4.5 4.502 2.484 0 4.5-2.016 4.5-4.502 0-2.484-2.016-4.499-4.5-4.499zM12 15c-1.656 0-3-1.342-3-3 0-1.656 1.344-2.998 3-2.998s3 1.344 3 2.998c0 1.659-1.344 3-3 3z"></path>
</svg>
