<svg width="24" height="24" viewBox="0 0 24 24" fill="none" xmlns="http://www.w3.org/2000/svg">
<path d="M5.25 7.502H18.75C19.163 7.502 19.5 7.165 19.5 6.752C19.5 6.338 19.163 6.002 18.75 6.002H5.25C4.836 6.002 4.5 6.338 4.5 6.752C4.5 7.165 4.836 7.502 5.25 7.502ZM18.75 18.002H5.25C4.836 18.002 4.5 18.338 4.5 18.752C4.5 19.165 4.836 19.502 5.25 19.502H18.75C19.163 19.502 19.5 19.165 19.5 18.752C19.5 18.338 19.163 18.002 18.75 18.002ZM18.75 12.002H5.25C4.836 12.002 4.5 12.338 4.5 12.752C4.5 13.164 4.836 13.502 5.25 13.502H18.75C19.163 13.502 19.5 13.164 19.5 12.752C19.5 12.338 19.163 12.002 18.75 12.002Z" fill="#1C2125"/>
</svg>
