<!-- Generated by IcoMoon.io -->
<svg version="1.1" xmlns="http://www.w3.org/2000/svg" width="23" height="24" viewBox="0 0 23 24">
<title>heart-new</title>
<path fill="#c1c6cc" d="M15.84 3.36c-1.67 0-3.274 0.778-4.32 2.006-1.046-1.229-2.65-2.006-4.32-2.006-2.957 0-5.28 2.323-5.28 5.28 0 3.629 3.264 6.586 8.208 11.078l1.392 1.258 1.392-1.267c4.944-4.483 8.208-7.44 8.208-11.069 0-2.957-2.323-5.28-5.28-5.28zM11.616 18.288l-0.096 0.096-0.096-0.096c-4.57-4.138-7.584-6.874-7.584-9.648 0-1.92 1.44-3.36 3.36-3.36 1.478 0 2.918 0.95 3.427 2.266h1.795c0.499-1.315 1.939-2.266 3.418-2.266 1.92 0 3.36 1.44 3.36 3.36 0 2.774-3.014 5.51-7.584 9.648z"></path>
</svg>
