<!-- Generated by IcoMoon.io -->
<svg version="1.1" xmlns="http://www.w3.org/2000/svg" width="24" height="24" viewBox="0 0 24 24">
<title>heart-outline</title>
<path fill="#444" d="M12.208 21.16l-0.208-0.139c-0.416-0.278-9.993-6.384-9.993-12.283 0-2.706 1.18-4.719 3.123-5.621 2.082-0.972 4.788-0.416 7.078 1.457 2.012-1.874 4.511-2.498 6.731-1.527 2.151 0.902 3.47 3.053 3.47 5.76 0 5.829-9.646 12.005-9.993 12.283l-0.208 0.069zM7.351 3.326c-0.694 0-1.318 0.139-1.874 0.416-1.735 0.763-2.706 2.637-2.706 4.996 0 4.996 8.119 10.617 9.507 11.519 1.388-0.902 9.507-6.523 9.507-11.519 0-2.429-1.11-4.302-3.053-5.066-2.012-0.833-4.372-0.208-6.176 1.596l-0.208 0.278-0.347-0.208c-1.457-1.318-3.123-2.012-4.649-2.012z"></path>
</svg>
