<!-- Generated by IcoMoon.io -->
<svg version="1.1" xmlns="http://www.w3.org/2000/svg" width="24" height="24" viewBox="0 0 24 24">
<title>help</title>
<path fill="#c1c6cc" d="M19 2h-14c-1.11 0-2 0.9-2 2v14c0 1.1 0.89 2 2 2h4l3 3 3-3h4c1.1 0 2-0.9 2-2v-14c0-1.1-0.9-2-2-2zM19 18h-4.83l-2.17 2.17-2.17-2.17h-4.83v-14h14v14z"></path>
<path fill="#c1c6cc" d="M13 15h-2v2h2v-2z"></path>
<path fill="#c1c6cc" d="M12 7c1.1 0 2 0.9 2 2 0 2-3 1.75-3 5h2c0-2.25 3-2.5 3-5 0-2.21-1.79-4-4-4s-4 1.79-4 4h2c0-1.1 0.9-2 2-2z"></path>
</svg>
