<svg width="24" height="24" viewBox="0 0 24 24" fill="none" xmlns="http://www.w3.org/2000/svg">
<path d="M2 10.2353V19.7609C2 20.2922 2.11385 20.7223 2.34156 21.0512C2.49336 21.2789 2.77166 21.5066 3.17647 21.7343L3.89753 21.9621H4.23909V22H9.81784V15.9279C9.81784 15.5484 9.90639 15.2448 10.0835 15.0171C10.1594 14.8906 10.3238 14.7514 10.5768 14.5996C10.6781 14.549 10.8805 14.4858 11.1841 14.4099H11.4497V14.3719H12.2467V14.4099H12.5123C12.8159 14.4858 13.0183 14.549 13.1195 14.5996C13.3725 14.7514 13.537 14.8906 13.6129 15.0171C13.79 15.2448 13.8786 15.5484 13.8786 15.9279V22H19.4573V21.9621H19.7989L20.5199 21.7343C20.9247 21.5066 21.203 21.2789 21.3548 21.0512C21.6078 20.6717 21.7343 20.2416 21.7343 19.7609V10.2353L11.8672 2L2 10.2353ZM11.4497 12.8918H11.2979L10.9564 12.9298C10.5768 12.9804 10.2353 13.0816 9.93169 13.2334C9.45098 13.4864 9.08412 13.79 8.83112 14.1442C8.47691 14.6249 8.29981 15.2195 8.29981 15.9279V20.482H4.27704L4.23909 20.444H4.12524L3.82163 20.3681L3.59393 20.1784C3.54333 20.0772 3.51803 19.938 3.51803 19.7609V10.9564L11.8672 4.01139L20.2163 10.9564V19.7609C20.2163 19.8874 20.1784 20.0266 20.1025 20.1784L19.8748 20.3681L19.5712 20.444H19.4573L19.4194 20.482H15.3966V15.9279C15.3966 15.2195 15.2195 14.6249 14.8653 14.1442C14.6376 13.79 14.2707 13.4864 13.7647 13.2334C13.4611 13.0816 13.1195 12.9804 12.74 12.9298L12.3985 12.8918H12.2467V12.8539H11.4497V12.8918Z" fill="#1C2125"/>
</svg>
