<svg width="24" height="24" viewBox="0 0 24 24" fill="none" xmlns="http://www.w3.org/2000/svg">
<path fill-rule="evenodd" clip-rule="evenodd" d="M12 20C16.4183 20 20 16.4183 20 12C20 7.58172 16.4183 4 12 4C7.58172 4 4 7.58172 4 12C4 16.4183 7.58172 20 12 20ZM12 22C17.5228 22 22 17.5228 22 12C22 6.47715 17.5228 2 12 2C6.47715 2 2 6.47715 2 12C2 17.5228 6.47715 22 12 22Z" fill="#1C2125"/>
<path fill-rule="evenodd" clip-rule="evenodd" d="M10.7678 10.7678L10.3573 13.6429L13.2325 13.2321L13.6431 10.357L10.7678 10.7678ZM9 9L8.00037 15.9999L15.0004 14.9999L16 8L9 9Z" fill="#1C2125"/>
</svg>
