<svg width="24" height="24" viewBox="0 0 24 24" fill="none" xmlns="http://www.w3.org/2000/svg">
<path fill-rule="evenodd" clip-rule="evenodd" d="M8 3C7.44772 3 7 3.44772 7 4V7L4 7C3.44772 7 3 7.44771 3 8C3 8.55228 3.44772 9 4 9H7V15H4C3.44772 15 3 15.4477 3 16C3 16.5523 3.44772 17 4 17H7V20C7 20.5523 7.44772 21 8 21C8.55228 21 9 20.5523 9 20V17L15 17V20C15 20.5523 15.4477 21 16 21C16.5523 21 17 20.5523 17 20V17H20C20.5523 17 21 16.5523 21 16C21 15.4477 20.5523 15 20 15H17V9H20C20.5523 9 21 8.55229 21 8C21 7.44772 20.5523 7 20 7L17 7V4C17 3.44772 16.5523 3 16 3C15.4477 3 15 3.44772 15 4V7L9 7V4C9 3.44772 8.55228 3 8 3ZM15 15V9H9V15L15 15Z" fill="#1C2125"/>
</svg>
