<!-- Generated by IcoMoon.io -->
<svg version="1.1" xmlns="http://www.w3.org/2000/svg" width="24" height="24" viewBox="0 0 24 24">
<title>info-filled</title>
<path fill="#444" d="M11.852 0.962c-6.096 0.082-10.973 5.090-10.892 11.188 0.082 6.094 5.090 10.972 11.186 10.89s10.973-5.090 10.892-11.188c-0.080-6.094-5.090-10.972-11.186-10.89zM13.076 4.64c1.122 0 1.454 0.65 1.454 1.396 0 0.93-0.745 1.79-2.016 1.79-1.063 0-1.568-0.535-1.538-1.418 0-0.745 0.624-1.768 2.102-1.768zM10.199 18.9c-0.767 0-1.328-0.466-0.792-2.512l0.88-3.629c0.152-0.582 0.178-0.814 0-0.814-0.229 0-1.226 0.402-1.814 0.798l-0.383-0.628c1.866-1.558 4.012-2.472 4.93-2.472 0.766 0 0.894 0.908 0.511 2.303l-1.008 3.816c-0.178 0.674-0.101 0.908 0.076 0.908 0.23 0 0.984-0.278 1.726-0.862l0.433 0.582c-1.813 1.814-3.792 2.512-4.56 2.512z"></path>
</svg>
