<!-- Generated by IcoMoon.io -->
<svg version="1.1" xmlns="http://www.w3.org/2000/svg" width="17" height="24" viewBox="0 0 17 24">
<title>logo-rings-ish</title>
<path fill="#444" d="M10.911 11.361c-1.165 0-2.258 0.316-3.199 0.864l0.914 1.207c0.682-0.364 1.46-0.572 2.286-0.572 2.688 0 4.875 2.187 4.875 4.875s-2.187 4.875-4.875 4.875c-2.688 0-4.875-2.187-4.875-4.875 0-1.323 0.531-2.523 1.39-3.402l-0.913-1.206c-1.217 1.162-1.977 2.797-1.977 4.608 0 3.515 2.86 6.375 6.375 6.375s6.375-2.86 6.375-6.375c0-3.515-2.86-6.375-6.375-6.375v0z"></path>
<path fill="#444" d="M6.786 8.736c0 0.589-0.198 1.132-0.527 1.57l0.927 1.224c0.68-0.736 1.1-1.716 1.1-2.795 0-0.898-0.292-1.728-0.781-2.406l-1.099 1.052c0.239 0.396 0.38 0.858 0.38 1.354v0z"></path>
<path fill="#444" d="M4.161 11.361c-1.447 0-2.625-1.178-2.625-2.625s1.177-2.625 2.625-2.625c0.405 0 0.789 0.095 1.132 0.26l1.13-1.081c-0.65-0.428-1.427-0.679-2.262-0.679-2.274 0-4.125 1.851-4.125 4.125s1.851 4.125 4.125 4.125c0.655 0 1.273-0.158 1.824-0.431l-0.93-1.229c-0.28 0.102-0.58 0.16-0.894 0.16v0z"></path>
<path fill="#444" d="M8.286 3.111c0-0.827 0.673-1.5 1.5-1.5s1.5 0.673 1.5 1.5c0 0.827-0.673 1.5-1.5 1.5-0.146 0-0.286-0.022-0.42-0.061l-1.158 1.108c0.459 0.285 0.999 0.453 1.578 0.453 1.654 0 3-1.346 3-3s-1.346-3-3-3c-1.654 0-3 1.346-3 3 0 0.532 0.141 1.031 0.384 1.464l1.16-1.11c-0.028-0.114-0.044-0.232-0.044-0.355v0z"></path>
<path fill="#444" d="M7.186 11.53c-0.341 0.369-0.747 0.674-1.2 0.899l0.528 0.697c0.362-0.345 0.764-0.648 1.199-0.902l-0.526-0.695z"></path>
<path fill="#444" d="M7.505 6.33l0.703-0.673c-0.431-0.268-0.789-0.64-1.038-1.083l-0.747 0.715c0.422 0.278 0.788 0.631 1.083 1.041v0z"></path>
<path fill="#444" d="M8.625 13.433l-0.914-1.207c-0.435 0.253-0.837 0.556-1.199 0.902l0.913 1.206c0.35-0.358 0.754-0.663 1.199-0.901v0z"></path>
<path fill="#444" d="M6.406 7.382l1.099-1.052c-0.295-0.409-0.661-0.762-1.083-1.040l-1.13 1.081c0.462 0.222 0.849 0.575 1.113 1.011v0z"></path>
<path fill="#444" d="M7.186 11.53l-0.927-1.224c-0.304 0.405-0.72 0.718-1.204 0.894l0.93 1.229c0.454-0.225 0.86-0.531 1.201-0.899v0z"></path>
<path fill="#444" d="M8.208 5.658l1.158-1.108c-0.512-0.149-0.909-0.564-1.036-1.084l-1.16 1.11c0.249 0.443 0.608 0.815 1.038 1.083v0z"></path>
</svg>
