<svg width="75" height="33" viewBox="0 0 75 33" fill="none" xmlns="http://www.w3.org/2000/svg">
<g>
<path d="M2.50537 26.058V9.49219H0V26.1479C0 30.074 2.47544 32.2017 6.08612 31.7757V29.3809C4.17716 29.473 2.50537 28.7822 2.50537 26.058Z" fill="#282828"/>
<path d="M17.6096 27.6738C17.5037 27.812 17.3794 27.9456 17.2734 28.0722C17.3909 27.9456 17.5014 27.812 17.6096 27.6738Z" fill="#282828"/>
<path d="M9.9628 28.0722C9.84767 27.9456 9.73253 27.812 9.62891 27.6738C9.73483 27.812 9.84767 27.9456 9.9628 28.0722Z" fill="#282828"/>
<path d="M16.9023 28.4336C16.7758 28.5487 16.6428 28.6563 16.5039 28.756C16.6428 28.6563 16.7758 28.5487 16.9023 28.4336Z" fill="#282828"/>
<path d="M10.7304 28.756C10.5919 28.6557 10.459 28.5481 10.332 28.4336C10.459 28.5481 10.5919 28.6557 10.7304 28.756Z" fill="#282828"/>
<path d="M18.7697 24.6875C18.7513 24.874 18.7259 25.0605 18.6914 25.2425C18.7259 25.0605 18.7513 24.8694 18.7697 24.6875Z" fill="#282828"/>
<path d="M18.1665 26.7793C18.0859 26.9382 17.9984 27.0925 17.9062 27.2398C17.9984 27.0925 18.0859 26.9405 18.1665 26.7793Z" fill="#282828"/>
<path d="M18.6325 25.5117C18.5895 25.6913 18.5388 25.8663 18.4805 26.0367C18.5388 25.8725 18.5895 25.6975 18.6325 25.5117Z" fill="#282828"/>
<path d="M16.9023 28.4338C17.0313 28.3198 17.1543 28.1991 17.2708 28.0723C17.1543 28.1991 17.0313 28.3198 16.9023 28.4338Z" fill="#282828"/>
<path d="M9.33052 27.2437C9.23611 27.0941 9.15091 26.9398 9.07031 26.7832C9.15091 26.9421 9.23611 27.0941 9.33052 27.2437Z" fill="#282828"/>
<path d="M9.96094 28.0723C10.0784 28.1989 10.2027 28.321 10.3294 28.4338C10.2027 28.3233 10.0784 28.1989 9.96094 28.0723Z" fill="#282828"/>
<path d="M8.54704 25.2425C8.5125 25.0605 8.48717 24.874 8.46875 24.6875C8.48717 24.8694 8.51941 25.0605 8.54704 25.2425Z" fill="#282828"/>
<path d="M8.75124 26.0367C8.69367 25.8663 8.64301 25.6913 8.60156 25.5117C8.64992 25.6913 8.70058 25.8663 8.75124 26.0367Z" fill="#282828"/>
<path d="M13.6069 15.9648C9.25241 15.9648 5.87891 19.6193 5.87891 24.1165C5.87891 28.5493 9.25241 32.1761 13.6069 32.1761C17.9613 32.1761 21.3325 28.5539 21.3325 24.1165C21.3325 19.6193 17.9913 15.9648 13.6069 15.9648ZM18.7673 24.6876C18.7489 24.8741 18.7235 25.0606 18.689 25.2426C18.6706 25.3324 18.6522 25.4222 18.6314 25.512C18.5885 25.6916 18.5378 25.8666 18.4795 26.037C18.3933 26.2919 18.2895 26.5404 18.1686 26.7808C18.088 26.9397 18.0005 27.094 17.9084 27.2413C17.8163 27.3887 17.7149 27.5338 17.609 27.6719C17.5031 27.8101 17.3787 27.9437 17.2728 28.0703C17.1564 28.1971 17.0334 28.3178 16.9044 28.4318C16.7779 28.5469 16.6449 28.6545 16.506 28.7542C15.6713 29.376 14.6581 29.7119 13.6172 29.7119C12.5763 29.7119 11.5632 29.376 10.7285 28.7542C10.59 28.654 10.457 28.5463 10.3301 28.4318C10.2034 28.319 10.0791 28.2016 9.96165 28.0703C9.84421 27.9391 9.73138 27.8101 9.62775 27.6719C9.52143 27.5336 9.42228 27.3899 9.3307 27.2413C9.23629 27.0917 9.15109 26.9374 9.07049 26.7808C8.94647 26.5407 8.83952 26.2921 8.75041 26.037C8.69284 25.8666 8.64218 25.6916 8.60073 25.512C8.57771 25.4222 8.55929 25.3324 8.54086 25.2426C8.50632 25.0606 8.48099 24.8741 8.46257 24.6876C8.44415 24.5011 8.43494 24.3076 8.43494 24.1165C8.43494 20.9664 10.7676 18.3896 13.6 18.3896C16.4323 18.3896 18.788 20.9664 18.788 24.1165C18.7949 24.3076 18.7857 24.4988 18.7673 24.6876Z" fill="#282828"/>
<path d="M51.9729 16.3543H48.2447L41.2329 23.274V9.49219H38.6953V31.7803H41.2329V26.8087L44.185 23.9303L49.4353 31.7803H52.5071L46.0341 22.1342L51.9729 16.3543Z" fill="#282828"/>
<path d="M58.6232 29.8365C56.0902 29.8365 53.6424 27.946 53.327 24.7452H66.243C66.2729 19.2601 62.4527 15.9648 58.4851 15.9648C54.2204 15.9648 50.7617 19.6193 50.7617 24.0843C50.7617 28.6068 54.2158 32.1438 58.6348 32.1438C62.1879 32.1438 64.8107 30.2878 65.8838 26.9926H63.185C62.3514 28.7842 60.7947 29.8365 58.6232 29.8365ZM58.4736 18.2722C60.7118 18.2722 62.8004 19.9486 63.4291 22.4678H53.4628C54.1168 19.8311 56.3551 18.2722 58.4736 18.2722Z" fill="#282828"/>
<path d="M69.9869 18.0909V16.3477H67.5391V31.776H70.0721V22.8529C70.0721 19.7673 72.3403 18.3603 74.9953 18.51V15.9954C73.2383 15.7835 71.1544 16.4444 69.9869 18.0909Z" fill="#282828"/>
<path d="M21.821 15.5028C21.3307 15.503 20.8473 15.3869 20.4106 15.164C19.9738 14.9411 19.5962 14.6177 19.3087 14.2205C19.0213 13.8233 18.8321 13.3636 18.7569 12.879C18.6816 12.3945 18.7224 11.8991 18.8758 11.4334C19.0292 10.9676 19.291 10.545 19.6395 10.2001C19.9881 9.85523 20.4135 9.59795 20.8808 9.44943C21.3481 9.30091 21.8439 9.26537 22.3276 9.34574C22.8113 9.42611 23.2691 9.62009 23.6632 9.91174L25.0264 8.54853C24.1348 7.78211 22.9968 7.36272 21.821 7.36722C20.4823 7.36722 19.1984 7.89902 18.2518 8.84563C17.3052 9.79224 16.7734 11.0761 16.7734 12.4148C16.7734 13.7535 17.3052 15.0374 18.2518 15.984C19.1984 16.9306 20.4823 17.4624 21.821 17.4624C22.6711 17.4601 23.5057 17.2346 24.2412 16.8084L23.0898 15.2288C22.691 15.4087 22.2586 15.5021 21.821 15.5028Z" fill="#282828"/>
<path d="M26.7769 12.4068C26.7795 11.217 26.3647 10.064 25.6048 9.14844L24.2577 10.4932C24.7167 11.0754 24.9511 11.8032 24.9181 12.5438C24.8851 13.2844 24.587 13.9885 24.0781 14.5276L25.2157 16.082C25.7113 15.6071 26.1053 15.0365 26.3737 14.4047C26.642 13.7729 26.7792 13.0932 26.7769 12.4068Z" fill="#282828"/>
<path d="M35.6933 18.8109C33.2616 15.8473 29.1651 15.0712 25.8699 17.0378L27.2653 19.0688C28.2694 18.4734 29.4531 18.2562 30.6032 18.4563C31.7533 18.6564 32.794 19.2607 33.538 20.1603C34.4879 21.2832 35.0071 22.7077 35.0025 24.1785C34.9999 24.9781 34.8295 25.7681 34.5022 26.4976C34.175 27.2271 33.6982 27.8797 33.1028 28.4133C32.6142 28.8644 32.0398 29.2127 31.4138 29.4372C30.7878 29.6617 30.123 29.7579 29.4591 29.7201C28.7951 29.6823 28.1455 29.5112 27.5491 29.217C26.9526 28.9229 26.4215 28.5117 25.9873 28.008C24.9813 26.8544 24.4553 25.3594 24.5174 23.83C24.5795 22.3006 25.225 20.8531 26.3212 19.7849L24.8981 17.7125C24 18.4173 23.2691 19.3123 22.7578 20.3331C22.2466 21.3539 21.9678 22.4753 21.9414 23.6167C21.9414 26.1658 22.6322 28.0126 23.9632 29.5623C26.7771 32.823 31.9422 33.0556 35.044 30.0597C36.5231 28.5964 37.408 26.6372 37.5279 24.56C37.6478 22.4827 36.9943 20.4347 35.6933 18.8109Z" fill="#282828"/>
<path d="M28.2576 2.83789C27.5466 2.83701 26.8584 3.08924 26.3164 3.54944L27.173 4.37382C27.4551 4.17894 27.7848 4.06405 28.1269 4.04133C28.469 4.01861 28.8109 4.08892 29.1163 4.24479C29.4218 4.40066 29.6793 4.63629 29.8616 4.92667C30.044 5.21706 30.1443 5.55138 30.152 5.89418C30.1597 6.23699 30.0745 6.57548 29.9054 6.87378C29.7363 7.17207 29.4897 7.41904 29.1916 7.58848C28.8935 7.75793 28.5551 7.84354 28.2123 7.83623C27.8695 7.82893 27.535 7.72898 27.2444 7.54698L26.3993 8.38748C26.9241 8.80217 27.5726 9.02916 28.2415 9.03224C29.0623 9.03224 29.8495 8.70618 30.4299 8.12578C31.0103 7.54537 31.3364 6.75818 31.3364 5.93737C31.3364 5.11656 31.0103 4.32937 30.4299 3.74897C29.8495 3.16856 29.0623 2.8425 28.2415 2.8425L28.2576 2.83789Z" fill="#282828"/>
<path d="M26.3562 5.93451C26.3567 5.59471 26.4489 5.26135 26.6233 4.96967L25.7667 4.16602C25.4002 4.70062 25.2088 5.3359 25.2191 5.98398C25.2295 6.63207 25.4409 7.26094 25.8242 7.78361L26.6555 6.95462C26.46 6.65033 26.3561 6.29622 26.3562 5.93451Z" fill="#282828"/>
<path d="M24.0024 3.05503C23.7548 3.05318 23.5145 2.97159 23.3169 2.82235C23.1194 2.67312 22.9752 2.46419 22.9058 2.22655C22.8364 1.98892 22.8454 1.73524 22.9315 1.50314C23.0177 1.27104 23.1763 1.07288 23.3839 0.938055C23.5916 0.80323 23.8371 0.738919 24.0842 0.754661C24.3313 0.770404 24.5667 0.865361 24.7555 1.02545C24.9444 1.18554 25.0766 1.40223 25.1325 1.64338C25.1885 1.88454 25.1653 2.13731 25.0662 2.36421L25.5959 2.86851C25.7685 2.5737 25.8599 2.23839 25.8607 1.89676C25.8695 1.64706 25.8279 1.39816 25.7384 1.16489C25.6489 0.931616 25.5134 0.718757 25.3398 0.539008C25.1663 0.359259 24.9583 0.216301 24.7283 0.118662C24.4984 0.0210234 24.2511 -0.0292969 24.0012 -0.0292969C23.7514 -0.0292969 23.5041 0.0210234 23.2741 0.118662C23.0441 0.216301 22.8362 0.359259 22.6626 0.539008C22.4891 0.718757 22.3536 0.931616 22.2641 1.16489C22.1746 1.39816 22.133 1.64706 22.1418 1.89676C22.1375 2.39472 22.331 2.87402 22.6799 3.22937C23.0288 3.58471 23.5044 3.78704 24.0024 3.79191C24.3677 3.79067 24.7244 3.68086 25.0271 3.47643L24.4744 2.95832C24.3257 3.02349 24.1648 3.05645 24.0024 3.05503Z" fill="#282828"/>
</g>
</svg>

