<!-- Generated by IcoMoon.io -->
<svg version="1.1" xmlns="http://www.w3.org/2000/svg" width="24" height="24" viewBox="0 0 24 24">
<title>more</title>
<path fill="#444" d="M12 22.667c5.891 0 10.667-4.776 10.667-10.667s-4.776-10.667-10.667-10.667c-5.891 0-10.667 4.776-10.667 10.667s4.776 10.667 10.667 10.667zM24 12c0 6.627-5.373 12-12 12s-12-5.373-12-12c0-6.627 5.373-12 12-12s12 5.373 12 12z"></path>
<path fill="#444" d="M12.113 13.126c-0.622 0-1.126-0.504-1.126-1.126s0.504-1.126 1.126-1.126c0.622 0 1.126 0.504 1.126 1.126s-0.504 1.126-1.126 1.126zM7.45 13.126c-0.622 0-1.126-0.504-1.126-1.126s0.504-1.126 1.126-1.126c0.622 0 1.126 0.504 1.126 1.126s-0.504 1.126-1.126 1.126zM16.777 13.126c-0.622 0-1.126-0.504-1.126-1.126s0.504-1.126 1.126-1.126c0.622 0 1.126 0.504 1.126 1.126s-0.504 1.126-1.126 1.126z"></path>
</svg>
