<!-- Generated by IcoMoon.io -->
<svg version="1.1" xmlns="http://www.w3.org/2000/svg" width="24" height="24" viewBox="0 0 24 24">
<title>move-to-trash</title>
<path fill="#444" d="M4.116 20.99h-1.634c-0.133 0-0.24 0.107-0.24 0.24s0.107 0.24 0.24 0.24v0h1.634c0.133 0 0.24-0.107 0.24-0.24s-0.107-0.24-0.24-0.24v0z"></path>
<path fill="#444" d="M4.243 20.21h-1.123c-0.133 0-0.24 0.107-0.24 0.24s0.107 0.24 0.24 0.24v0h1.13c0.133 0 0.24-0.107 0.24-0.24s-0.107-0.24-0.24-0.24v0z"></path>
<path fill="#444" d="M18.259 20.042h0.516c0.265 0 0.48-0.215 0.48-0.48v0-7.937c0-0.265-0.215-0.48-0.48-0.48v0h-0.516c-0.265 0-0.48 0.215-0.48 0.48v0 7.937c0 0.265 0.215 0.48 0.48 0.48v0zM18.379 11.746h0.276v7.694h-0.276z"></path>
<path fill="#444" d="M15.773 20.042h0.514c0.265 0 0.48-0.215 0.48-0.48v0-7.937c0-0.265-0.215-0.48-0.48-0.48v0h-0.514c-0.265 0-0.48 0.215-0.48 0.48v0 7.937c0 0.265 0.215 0.48 0.48 0.48v0zM15.893 11.746h0.274v7.694h-0.274z"></path>
<path fill="#444" d="M13.284 20.042h0.514c0.265 0 0.48-0.215 0.48-0.48v0-7.937c0-0.265-0.215-0.48-0.48-0.48v0h-0.514c-0.265 0-0.48 0.215-0.48 0.48v0 7.937c0 0.265 0.215 0.48 0.48 0.48v0zM13.404 11.746h0.276v7.694h-0.276z"></path>
<path fill="#444" d="M21.972 8.16h-3.451v-1.589c0-0.384-0.312-0.696-0.696-0.696v0h-3.36c-0.384 0-0.696 0.312-0.696 0.696v0 1.589h-3.677c-0.099 0.001-0.179 0.081-0.18 0.18v1.56c0.001 0.099 0.081 0.179 0.18 0.18h0.324l0.413 7.248h-1.339v-2.928c-0.001-0.097-0.080-0.175-0.178-0.175-0.001 0-0.002 0-0.003 0h-1.063c-0.001 0-0.002-0-0.002-0-0.097 0-0.176 0.078-0.178 0.175v2.928h-1.486c-0.001 0-0.001 0-0.002 0-0.603 0-1.115 0.391-1.296 0.934l-0.003 0.010v0.017c-0.040 0.119-0.062 0.257-0.062 0.4 0 0.001 0 0.002 0 0.003v-0c0 0 0 0 0 0 0 0.033 0.027 0.060 0.060 0.060 0.001 0 0.002-0 0.003-0h0.24l-0.403 2.64c-0.001 0.008-0.002 0.017-0.002 0.026 0 0.099 0.080 0.18 0.18 0.18h15.526c0 0 0 0 0 0 0.095 0 0.173-0.074 0.18-0.167l0-0.001 0.648-11.35h0.324c0.099-0.001 0.179-0.081 0.18-0.18v-1.56c-0.001-0.099-0.081-0.179-0.18-0.18h-0zM14.362 7.56v-0.989c-0-0.001-0-0.002-0-0.002 0-0.052 0.042-0.094 0.094-0.094 0.001 0 0.002 0 0.003 0h3.36c0.001-0 0.002-0 0.002-0 0.052 0 0.094 0.042 0.094 0.094 0 0.001 0 0.002-0 0.003v-0 1.589h-0.574v-1.020c-0.001-0.099-0.081-0.179-0.18-0.18h-2.040c-0.099 0.001-0.179 0.081-0.18 0.18v1.020h-0.578zM16.74 7.56v0.6h-1.2v-0.6zM8.546 14.686h0.463v2.64h-0.463zM6.581 17.806h4.394c0.184 0.001 0.354 0.058 0.495 0.155l-0.003-0.002c0.107 0.074 0.195 0.167 0.259 0.277l0.002 0.004h-5.904c0.156-0.26 0.436-0.431 0.756-0.432h0zM11.114 21.12v-0.838c-0.001-0.090-0.052-0.168-0.126-0.208l-0.001-0.001c-0.033-0.018-0.071-0.030-0.112-0.031l-0-0c-0.133 0-0.24 0.107-0.24 0.24v0 0.838h-0.6v-0.838c0-0.133-0.107-0.24-0.24-0.24s-0.24 0.107-0.24 0.24v0 0.838h-0.602v-0.838c0-0.133-0.107-0.24-0.24-0.24s-0.24 0.107-0.24 0.24v0 0.838h-0.6v-0.838c0-0.133-0.107-0.24-0.24-0.24s-0.24 0.107-0.24 0.24v0 0.838h-0.602v-0.838c0-0.133-0.107-0.24-0.24-0.24s-0.24 0.107-0.24 0.24v0 0.838h-0.662l0.353-2.369h5.546l0.343 2.256 0.019 0.113zM20.422 21.007h-8.045l-0.343-2.256h0.24c0.033 0 0.060-0.027 0.060-0.060v0c0-0.003 0-0.007 0-0.011 0-0.14-0.022-0.275-0.063-0.402l0.003 0.009v-0.017c-0.134-0.402-0.438-0.715-0.826-0.856l-0.009-0.003-0.42-7.332h10.027zM21.552 9.487h-11.040v-0.72h11.040z"></path>
</svg>
