<svg width="24" height="24" viewBox="0 0 24 24" fill="none" xmlns="http://www.w3.org/2000/svg">
<path d="M6.82069 8.57852C6.08769 8.57852 5.50969 9.17852 5.50969 9.88952C5.50969 10.6225 6.10969 11.2005 6.82069 11.2005C7.55369 11.2005 8.13169 10.6005 8.13169 9.88952C8.13169 9.17852 7.55369 8.57852 6.82069 8.57852V8.57852ZM12.0877 8.57852C11.3547 8.57852 10.7767 9.17852 10.7767 9.88952C10.7767 10.6225 11.3767 11.2005 12.0877 11.2005C12.8207 11.2005 13.3987 10.6005 13.3987 9.88952C13.4207 9.17852 12.8207 8.57852 12.0877 8.57852ZM20.6657 1.97852H3.53269C2.44369 1.97852 1.55469 2.86752 1.55469 3.95652V17.1565C1.55469 18.2455 2.44369 19.1345 3.53269 19.1345H9.46569L12.0877 21.7785L14.7317 19.1345H20.6647C21.7537 19.1345 22.6427 18.2455 22.6427 17.1565V3.97852C22.6427 2.86752 21.7757 1.97852 20.6647 1.97852H20.6657ZM21.3317 17.1565C21.3317 17.5125 21.0427 17.8235 20.6647 17.8235H14.0867L12.1087 19.8015L10.1307 17.8235H3.53069C3.17469 17.8235 2.86369 17.5345 2.86369 17.1565V3.97852C2.86369 3.62252 3.15269 3.31152 3.53069 3.31152H20.6637C21.0197 3.31152 21.3307 3.60052 21.3307 3.97852V17.1565H21.3317ZM17.3767 8.57852C16.6437 8.57852 16.0657 9.17852 16.0657 9.88952C16.0657 10.6225 16.6657 11.2005 17.3767 11.2005C18.1097 11.2005 18.6877 10.6005 18.6877 9.88952C18.6877 9.17852 18.1097 8.57852 17.3767 8.57852Z" fill="#1C2125"/>
</svg>
