<!-- Generated by IcoMoon.io -->
<svg version="1.1" xmlns="http://www.w3.org/2000/svg" width="24" height="24" viewBox="0 0 24 24">
<title>notes</title>
<path fill="#444" d="M6.822 8.578c-0.733 0-1.311 0.6-1.311 1.311 0 0.733 0.6 1.311 1.311 1.311 0.733 0 1.311-0.6 1.311-1.311s-0.578-1.311-1.311-1.311zM12.089 8.578c-0.733 0-1.311 0.6-1.311 1.311 0 0.733 0.6 1.311 1.311 1.311 0.733 0 1.311-0.6 1.311-1.311 0.022-0.711-0.578-1.311-1.311-1.311zM20.667 1.978h-17.133c-1.089 0-1.978 0.889-1.978 1.978v13.2c0 1.089 0.889 1.978 1.978 1.978h5.933l2.622 2.644 2.644-2.644h5.933c1.089 0 1.978-0.889 1.978-1.978v-13.178c0-1.111-0.867-2-1.978-2zM21.333 17.156c0 0.356-0.289 0.667-0.667 0.667h-6.578l-1.978 1.978-1.978-1.978h-6.6c-0.356 0-0.667-0.289-0.667-0.667v-13.178c0-0.356 0.289-0.667 0.667-0.667h17.133c0.356 0 0.667 0.289 0.667 0.667v13.178zM17.378 8.578c-0.733 0-1.311 0.6-1.311 1.311 0 0.733 0.6 1.311 1.311 1.311 0.733 0 1.311-0.6 1.311-1.311s-0.578-1.311-1.311-1.311z"></path>
</svg>
