<!-- Generated by IcoMoon.io -->
<svg version="1.1" xmlns="http://www.w3.org/2000/svg" width="24" height="24" viewBox="0 0 24 24">
<title>public</title>
<path fill="#444" d="M23.974 11.248c-0.387-6.277-5.599-11.25-11.974-11.25s-11.587 4.973-11.974 11.25h-0.026v1.5h0.026c0.387 6.277 5.599 11.249 11.974 11.249s11.587-4.972 11.974-11.249h0.026v-1.5h-0.026zM20.031 5.248h-1.337c-0.794 0.221-1.762 0.402-2.847 0.531-0.372-1.634-0.886-3.013-1.497-4.014 2.261 0.517 4.239 1.767 5.68 3.482v0zM9.008 12.748h5.983c-0.028 1.382-0.132 2.69-0.299 3.873-0.861-0.079-1.761-0.123-2.693-0.123s-1.832 0.044-2.693 0.123c-0.166-1.183-0.271-2.491-0.299-3.873v0zM9.008 11.248c0.028-1.384 0.133-2.693 0.299-3.877 0.86 0.081 1.761 0.127 2.693 0.127s1.833-0.046 2.692-0.127c0.166 1.184 0.271 2.493 0.299 3.877h-5.983zM12 1.498c1.008 0 1.899 1.742 2.443 4.412-0.778 0.055-1.594 0.088-2.443 0.088s-1.665-0.033-2.443-0.088c0.543-2.67 1.434-4.412 2.443-4.412v0zM9.648 1.766c-0.611 1.001-1.125 2.379-1.497 4.014-1.084-0.129-2.053-0.31-2.847-0.531h-1.337c1.442-1.715 3.42-2.965 5.681-3.483v0zM3.449 5.921c1.113 0.558 2.643 1.002 4.428 1.275-0.206 1.254-0.335 2.619-0.368 4.053h-5.977c0.14-1.979 0.832-3.804 1.917-5.328v0zM7.509 12.748c0.033 1.431 0.162 2.792 0.367 4.044-1.786 0.265-3.325 0.695-4.458 1.238-1.066-1.516-1.747-3.323-1.885-5.282h5.977zM3.968 18.748h1.239c0.819-0.225 1.82-0.409 2.943-0.539 0.372 1.638 0.887 3.020 1.499 4.022-2.261-0.517-4.239-1.767-5.681-3.483v0zM12 22.498c-1.008 0-1.9-1.744-2.444-4.416 0.779-0.054 1.595-0.085 2.444-0.085s1.665 0.032 2.444 0.085c-0.543 2.672-1.435 4.416-2.444 4.416v0zM14.35 22.231c0.612-1.002 1.127-2.384 1.499-4.021 1.123 0.13 2.124 0.314 2.943 0.539h1.239c-1.442 1.715-3.42 2.965-5.681 3.482v0zM20.581 18.030c-1.133-0.543-2.672-0.973-4.458-1.237 0.205-1.252 0.334-2.613 0.367-4.044h5.977c-0.139 1.959-0.819 3.766-1.886 5.281v0zM16.49 11.248c-0.033-1.435-0.162-2.799-0.368-4.053 1.785-0.273 3.315-0.717 4.428-1.275 1.085 1.525 1.776 3.349 1.917 5.328l-5.977 0z"></path>
</svg>
