<!-- Generated by IcoMoon.io -->
<svg version="1.1" xmlns="http://www.w3.org/2000/svg" width="24" height="24" viewBox="0 0 24 24">
<title>question-outline</title>
<path fill="#444" d="M12.111-0.002c-6.627 0-12 5.373-12 12.001s5.373 12 12 12c6.628 0 12-5.372 12-12s-5.372-12.001-12-12.001v0zM12.111 22.498c-5.799 0-10.5-4.701-10.5-10.5s4.701-10.5 10.5-10.5c5.799 0 10.5 4.701 10.5 10.5s-4.701 10.5-10.5 10.5v0z"></path>
<path fill="#444" d="M12.282 6.377c-1.551 0-2.76 0.638-3.544 1.669l0.816 0.884c0.604-0.818 1.372-1.341 2.613-1.341 1.274 0 1.911 0.703 1.911 1.521 0 1.735-2.94 1.898-2.94 3.977 0 0.507 0.18 0.967 0.621 1.342l0.996-0.442c-0.278-0.195-0.425-0.524-0.425-0.786 0-1.603 3.152-1.816 3.152-4.288 0-1.407-1.208-2.536-3.201-2.536v0zM12.103 15.819c-0.49 0-0.899 0.41-0.899 0.9s0.408 0.9 0.899 0.9 0.899-0.409 0.899-0.9c-0-0.49-0.409-0.9-0.899-0.9v0z"></path>
</svg>
