<!-- Generated by IcoMoon.io -->
<svg version="1.1" xmlns="http://www.w3.org/2000/svg" width="24" height="24" viewBox="0 0 24 24">
<title>question-filled</title>
<path fill="#444" d="M11.854 0.962c-6.098 0.082-10.974 5.090-10.892 11.188 0.082 6.094 5.090 10.972 11.188 10.89 6.095-0.082 10.973-5.090 10.89-11.188-0.080-6.094-5.089-10.972-11.186-10.89zM11.822 18.72h-0.062c-0.938-0.028-1.601-0.72-1.574-1.645 0.026-0.908 0.704-1.57 1.613-1.57l0.056 0.002c0.965 0.028 1.62 0.714 1.591 1.666-0.026 0.91-0.694 1.548-1.624 1.548zM15.77 10.882c-0.222 0.313-0.707 0.704-1.319 1.18l-0.674 0.466c-0.37 0.288-0.592 0.558-0.676 0.823-0.068 0.212-0.098 0.265-0.104 0.692l-0.002 0.11h-2.572l0.007-0.218c0.032-0.895 0.054-1.42 0.425-1.856 0.582-0.683 1.866-1.51 1.92-1.544 0.184-0.139 0.338-0.296 0.455-0.464 0.27-0.372 0.389-0.666 0.389-0.953 0-0.4-0.119-0.769-0.352-1.098-0.226-0.318-0.654-0.479-1.274-0.479-0.614 0-1.034 0.196-1.286 0.596-0.26 0.412-0.39 0.842-0.39 1.284v0.11h-2.652l0.005-0.116c0.068-1.624 0.648-2.794 1.723-3.476 0.674-0.436 1.514-0.655 2.494-0.655 1.282 0 2.368 0.312 3.22 0.926 0.864 0.623 1.302 1.556 1.302 2.774 0 0.682-0.215 1.322-0.638 1.902z"></path>
</svg>
