<svg width="24" height="24" viewBox="0 0 24 24" fill="none" xmlns="http://www.w3.org/2000/svg">
<path d="M3.00122 10.12H9.78122L7.04122 7.3C9.77122 4.6 14.1912 4.5 16.9212 7.2C19.6512 9.91 19.6512 14.28 16.9212 16.99C14.1912 19.7 9.77122 19.7 7.04122 16.99C5.68122 15.65 5.00122 14.08 5.00122 12.1H3.00122C3.00122 14.08 3.88122 16.65 5.64122 18.39C9.15122 21.87 14.8512 21.87 18.3612 18.39C21.8612 14.92 21.8912 9.28 18.3812 5.81C14.8712 2.34 9.24122 2.34 5.73122 5.81L3.00122 3V10.12Z" fill="#262D33"/>
<path d="M12.5 12.25V8H11V13L15.28 15.54L16 14.33L12.5 12.25Z" fill="#262D33"/>
</svg>
