<!-- Generated by IcoMoon.io -->
<svg version="1.1" xmlns="http://www.w3.org/2000/svg" width="23" height="24" viewBox="0 0 23 24">
<title>recent</title>
<path fill="#c1c6cc" d="M2.88 10.195h6.509l-2.63-2.707c2.621-2.592 6.864-2.688 9.485-0.096 2.621 2.602 2.621 6.797 0 9.398s-6.864 2.602-9.485 0c-1.306-1.286-1.958-2.794-1.958-4.694h-1.92c0 1.901 0.845 4.368 2.534 6.038 3.37 3.341 8.842 3.341 12.211 0 3.36-3.331 3.389-8.746 0.019-12.077s-8.774-3.331-12.144 0l-2.621-2.698v6.835z"></path>
<path fill="#c1c6cc" d="M11.999 12.24v-4.080h-1.44v4.8l4.109 2.438 0.691-1.162-3.36-1.997z"></path>
</svg>
