<svg width="24" height="24" viewBox="0 0 24 24" fill="none" xmlns="http://www.w3.org/2000/svg">
<path d="M20.852 3.898C18.658 1.502 15.505 0 12 0C5.373 0 0 5.373 0 12H2.25C2.25 6.615 6.615 2.25 12 2.25C14.883 2.25 17.474 3.502 19.258 5.492L15.749 9H23.999V0.75L20.851 3.898H20.852Z" fill="#1C2125"/>
<path d="M21.75 12C21.75 17.385 17.385 21.75 12 21.75C9.117 21.75 6.526 20.498 4.742 18.508L8.25 15H0V23.25L3.148 20.102C5.342 22.498 8.495 24 12 24C18.627 24 24 18.627 24 12H21.75Z" fill="#1C2125"/>
</svg>
