<!-- Generated by IcoMoon.io -->
<svg version="1.1" xmlns="http://www.w3.org/2000/svg" width="24" height="24" viewBox="0 0 24 24">
<title>reports</title>
<path fill="#444" d="M8.25 7.502h6c0.413 0 0.75-0.336 0.75-0.75s-0.337-0.75-0.75-0.75h-6c-0.414 0-0.75 0.336-0.75 0.75s0.336 0.75 0.75 0.75zM3 4.502c-0.828 0-1.5 0.67-1.5 1.5v16.498c0 0.83 0.672 1.502 1.5 1.502h16.5c0.83 0 1.5-0.672 1.5-1.501h-18v-17.998zM18.75 10.502h-10.5c-0.414 0-0.75 0.336-0.75 0.75 0 0.413 0.336 0.75 0.75 0.75h10.5c0.413 0 0.75-0.338 0.75-0.75 0-0.414-0.337-0.75-0.75-0.75zM18.75 15.002h-10.5c-0.414 0-0.75 0.336-0.75 0.75 0 0.413 0.336 0.75 0.75 0.75h10.5c0.413 0 0.75-0.337 0.75-0.75 0-0.414-0.337-0.75-0.75-0.75zM21 1.501h-15c-0.828 0-1.5 0.67-1.5 1.5v16.5c0 0.828 0.672 1.5 1.5 1.5h15c0.83 0 1.5-0.672 1.5-1.5v-16.5c0-0.829-0.67-1.5-1.5-1.5zM21 18.752c0 0.413-0.337 0.75-0.75 0.75h-13.5c-0.414 0-0.75-0.337-0.75-0.75v-15c0-0.414 0.336-0.75 0.75-0.75h13.5c0.413 0 0.75 0.336 0.75 0.75v15z"></path>
</svg>
