<!-- Generated by IcoMoon.io -->
<svg version="1.1" xmlns="http://www.w3.org/2000/svg" width="24" height="24" viewBox="0 0 24 24">
<title>restore-from-trash</title>
<path fill="#444" d="M12.917 11.146h-0.514c-0.265 0-0.48 0.215-0.48 0.48v0 7.937c0 0.265 0.215 0.48 0.48 0.48v0h0.514c0.265 0 0.48-0.215 0.48-0.48v0-7.937c0-0.265-0.215-0.48-0.48-0.48v0zM12.797 19.44h-0.274v-7.694h0.274z"></path>
<path fill="#444" d="M7.942 11.146h-0.516c-0.265 0-0.48 0.215-0.48 0.48v0 7.937c0 0.265 0.215 0.48 0.48 0.48v0h0.516c0.265 0 0.48-0.215 0.48-0.48v0-7.937c0-0.265-0.215-0.48-0.48-0.48v0zM7.822 19.44h-0.276v-7.694h0.276z"></path>
<path fill="#444" d="M10.428 11.146h-0.514c-0.265 0-0.48 0.215-0.48 0.48v0 7.937c0 0.265 0.215 0.48 0.48 0.48v0h0.514c0.265 0 0.48-0.215 0.48-0.48v0-7.937c0-0.265-0.215-0.48-0.48-0.48v0zM10.32 19.44h-0.286v-7.694h0.286z"></path>
<path fill="#444" d="M21.374 16.334l-0.866-3.252c-0.081-0.3-0.352-0.518-0.673-0.518-0.064 0-0.125 0.009-0.184 0.025l0.005-0.001-1.536 0.41-0.943-3.547c-0.021-0.077-0.091-0.133-0.174-0.133-0.017 0-0.033 0.002-0.048 0.007l0.001-0-0.662 0.178v-0.672c0-0.001 0-0.002 0-0.002 0-0.098-0.080-0.178-0.178-0.178-0.001 0-0.002 0-0.003 0h-11.88c-0.099 0-0.18 0.081-0.18 0.18v0 1.56c0.001 0.099 0.081 0.179 0.18 0.18h0.353l0.619 10.862c0.006 0.094 0.084 0.168 0.18 0.168 0 0 0 0 0 0h9.576c0 0 0 0 0 0 0.095 0 0.173-0.074 0.18-0.167l0-0.001 0.574-10.006 2.662 10.001c0.022 0.077 0.092 0.133 0.176 0.133 0.016 0 0.032-0.002 0.047-0.006l-0.001 0 1.507-0.403c0.077-0.020 0.133-0.090 0.133-0.172 0-0.017-0.002-0.032-0.006-0.048l0 0.001-0.888-3.336 1.536-0.41c0.3-0.081 0.518-0.352 0.518-0.673 0-0.064-0.009-0.125-0.025-0.184l0.001 0.005zM14.566 21.007h-8.782l-0.598-10.447h9.974zM15.694 9.506v0.154l-0.24 0.065c-0.077 0.021-0.133 0.091-0.133 0.174 0 0.017 0.002 0.033 0.007 0.048l-0-0.001v0.024h-10.673v-0.72h11.040zM19.534 20.681l-0.696 0.185-2.83-10.678 0.286-0.077 0.41-0.108zM18.574 14.717l0.578-0.154 0.31 1.159-0.581 0.154-0.161-0.588zM20.734 16.608l-0.96 0.254-0.574 0.154-0.017-0.062-0.132-0.497 0.984-0.264c0.078-0.021 0.135-0.091 0.135-0.174 0-0.016-0.002-0.031-0.006-0.045l0 0.001-0.526-1.973c-0.021-0.077-0.091-0.133-0.174-0.133-0.017 0-0.033 0.002-0.048 0.007l0.001-0-0.996 0.262-0.149-0.559 1.541-0.408c0.008-0.002 0.017-0.004 0.027-0.004 0.044 0 0.080 0.030 0.091 0.070l0 0.001 0.866 3.254c0.002 0.007 0.003 0.015 0.003 0.024 0 0.046-0.032 0.084-0.074 0.094l-0.001 0z"></path>
<path fill="#444" d="M11.081 5.566v0l0.367 0.086c0.264 0.052 0.47 0.252 0.529 0.509l0.001 0.005 0.089 0.374c0.036 0.156 0.173 0.27 0.337 0.27s0.301-0.114 0.337-0.268l0-0.002 0.089-0.374c0.050-0.258 0.249-0.459 0.502-0.513l0.004-0.001 0.37-0.082c0.093-0.013 0.172-0.066 0.22-0.14l0.001-0.001c0.036-0.053 0.058-0.119 0.058-0.19 0-0.001 0-0.001 0-0.002v0c0-0.001 0-0.003 0-0.005 0-0.155-0.099-0.287-0.238-0.335l-0.002-0.001-0.386-0.096c-0.265-0.042-0.474-0.238-0.534-0.492l-0.001-0.004-0.065-0.386c-0.036-0.156-0.173-0.27-0.337-0.27s-0.301 0.114-0.337 0.268l-0 0.002-0.089 0.372c-0.056 0.269-0.26 0.48-0.521 0.544l-0.005 0.001-0.367 0.065c-0.155 0.035-0.269 0.172-0.269 0.335 0 0 0 0.001 0 0.001v-0c0.001 0.155 0.104 0.287 0.245 0.331l0.002 0.001zM12.396 4.714c0.121 0.226 0.306 0.405 0.531 0.515l0.007 0.003c-0.229 0.117-0.41 0.299-0.523 0.521l-0.003 0.007c-0.12-0.226-0.302-0.406-0.524-0.52l-0.007-0.003c0.223-0.119 0.401-0.299 0.515-0.516l0.003-0.007z"></path>
<path fill="#444" d="M6.96 6.55v0l0.286 0.067c0.191 0.036 0.339 0.181 0.381 0.366l0.001 0.003 0.067 0.29c0.032 0.138 0.153 0.239 0.297 0.24h0c0.145-0 0.265-0.102 0.295-0.238l0-0.002 0.070-0.293c0.040-0.184 0.181-0.327 0.362-0.369l0.003-0.001 0.286-0.062c0.082-0.012 0.151-0.058 0.194-0.124l0.001-0.001c0.031-0.048 0.050-0.107 0.050-0.17v-0c0-0.001 0-0.003 0-0.005 0-0.134-0.085-0.247-0.204-0.29l-0.002-0.001-0.302-0.070c-0.19-0.028-0.341-0.169-0.383-0.352l-0.001-0.003-0.050-0.302c-0.031-0.137-0.151-0.239-0.295-0.24h-0c-0.145 0.002-0.265 0.103-0.297 0.238l-0 0.002-0.089 0.286c-0.040 0.195-0.187 0.348-0.376 0.395l-0.003 0.001-0.288 0.041c-0.135 0.033-0.234 0.153-0.234 0.296s0.099 0.263 0.232 0.296l0.002 0zM7.987 5.928c0.084 0.137 0.198 0.249 0.334 0.326l0.005 0.002c-0.137 0.083-0.249 0.196-0.329 0.329l-0.002 0.004c-0.084-0.136-0.197-0.247-0.332-0.326l-0.004-0.002c0.133-0.086 0.242-0.198 0.321-0.329l0.003-0.005z"></path>
<path fill="#444" d="M9.36 3.631h0.173v0.17c0 0.133 0.107 0.24 0.24 0.24s0.24-0.107 0.24-0.24v0-0.17h0.187c0.133 0 0.24-0.107 0.24-0.24s-0.107-0.24-0.24-0.24v0h-0.187v-0.19c0-0.133-0.107-0.24-0.24-0.24s-0.24 0.107-0.24 0.24v0 0.19h-0.173c-0.133 0-0.24 0.107-0.24 0.24s0.107 0.24 0.24 0.24v0z"></path>
</svg>
