<svg width="24" height="24" viewBox="0 0 24 24" fill="none" xmlns="http://www.w3.org/2000/svg">
<g clip-path="url(#clip0)">
<path d="M23.785 22.774L17.128 16.117C18.604 14.408 19.499 12.183 19.499 9.748C19.499 4.363 15.134 -0.0019989 9.74902 -0.0019989C4.36402 -0.0019989 -0.000976562 4.363 -0.000976562 9.748C-0.000976562 15.133 4.36402 19.498 9.74902 19.498C12.184 19.498 14.41 18.603 16.118 17.127L22.775 23.784C23.054 24.063 23.506 24.063 23.784 23.784C24.062 23.505 24.063 23.053 23.784 22.775L23.785 22.774ZM9.75002 17.998C5.19402 17.998 1.50002 14.305 1.50002 9.748C1.50002 5.191 5.19402 1.498 9.75002 1.498C14.306 1.498 18 5.192 18 9.748C18 14.305 14.306 17.998 9.75002 17.998Z" fill="#1C2125"/>
</g>
<defs>
<clipPath id="clip0">
<rect width="24" height="24" fill="white"/>
</clipPath>
</defs>
</svg>
