<!-- Generated by IcoMoon.io -->
<svg version="1.1" xmlns="http://www.w3.org/2000/svg" width="24" height="24" viewBox="0 0 24 24">
<title>shared</title>
<path fill="#c1c6cc" d="M20 6h-8l-2-2h-6c-1.1 0-1.99 0.9-1.99 2l-0.010 12c0 1.1 0.9 2 2 2h16c1.1 0 2-0.9 2-2v-10c0-1.1-0.9-2-2-2zM20 18h-16v-12h5.17l2 2h8.83v10z"></path>
<path fill="#c1c6cc" d="M15 13c1.1 0 2-0.9 2-2s-0.9-2-2-2c-1.1 0-2 0.9-2 2s0.9 2 2 2z"></path>
<path fill="#c1c6cc" d="M11 17h8v-1c0-1.33-2.67-2-4-2s-4 0.67-4 2v1z"></path>
</svg>
