<svg width="24" height="24" viewBox="0 0 24 24" fill="none" xmlns="http://www.w3.org/2000/svg">
<path d="M15.0731 11.173C15.9341 10.486 16.4971 9.44095 16.4971 8.25195C16.4971 6.43795 15.2081 4.92495 13.5001 4.57895V1.50195H12.0021V4.57895C10.2931 4.92495 9.00709 6.43895 9.00709 8.25195C9.00709 9.43995 9.57009 10.485 10.4291 11.173L7.32509 16.219C5.30409 14.876 3.75809 12.878 3.04809 10.502H1.49609C2.25009 13.418 4.09409 15.873 6.54509 17.491L3.00909 23.243L4.28409 23.995L7.82609 18.234C9.43109 19.028 11.2261 19.503 13.1411 19.503C14.8191 19.503 16.4041 19.142 17.8541 18.522L21.2201 23.996L22.4951 23.244L15.0741 11.174L15.0731 11.173ZM12.7501 6.00295C13.9921 6.00295 14.9971 7.01095 14.9971 8.25295C14.9971 9.49495 13.9921 10.503 12.7501 10.503C11.5091 10.503 10.5031 9.49495 10.5031 8.25295C10.5031 7.01095 11.5111 6.00295 12.7501 6.00295V6.00295ZM13.1401 18.003C11.5141 18.003 9.98509 17.611 8.61009 16.956L11.7481 11.851C12.0691 11.939 12.4021 12.003 12.7501 12.003C13.1001 12.003 13.4311 11.94 13.7501 11.85L17.0611 17.234C15.8491 17.723 14.5321 18.004 13.1401 18.004V18.003Z" fill="#1C2125"/>
</svg>
