<!-- Generated by IcoMoon.io -->
<svg version="1.1" xmlns="http://www.w3.org/2000/svg" width="24" height="24" viewBox="0 0 24 24">
<title>sql-runner</title>
<path fill="#444" d="M15.073 11.172c0.861-0.687 1.424-1.732 1.424-2.921 0-1.814-1.289-3.327-2.997-3.673v-3.077h-1.498v3.077c-1.709 0.346-2.995 1.86-2.995 3.673 0 1.188 0.563 2.233 1.422 2.921l-3.104 5.046c-2.021-1.343-3.567-3.341-4.277-5.717h-1.552c0.754 2.916 2.598 5.371 5.049 6.989l-3.536 5.752 1.275 0.752 3.542-5.761c1.605 0.794 3.4 1.269 5.315 1.269 1.678 0 3.263-0.361 4.713-0.981l3.366 5.474 1.275-0.752-7.421-12.070zM12.75 6.002c1.242 0 2.247 1.008 2.247 2.25s-1.005 2.25-2.247 2.25c-1.241 0-2.247-1.008-2.247-2.25s1.008-2.25 2.247-2.25zM13.14 18.002c-1.626 0-3.155-0.392-4.53-1.047l3.138-5.105c0.321 0.088 0.654 0.152 1.002 0.152 0.35 0 0.681-0.063 1-0.153l3.311 5.384c-1.212 0.489-2.529 0.77-3.921 0.77z"></path>
</svg>
