<!-- Generated by IcoMoon.io -->
<svg version="1.1" xmlns="http://www.w3.org/2000/svg" width="24" height="24" viewBox="0 0 24 24">
<title>thumbtack</title>
<path fill="#444" d="M7.944 2.88c0 0 0 0 0 0 0 0.12-0.096 0.336-0.144 0.504-0.144 0.36-0.312 0.84-0.312 1.368 0 1.152 1.392 2.76 2.592 3.912 2.808 2.904 3.84 2.904 4.176 2.904 0.024 0 0.048 0 0.048 0 1.056-0.048 1.8-0.336 2.376-0.6 0.48-0.192 0.744-0.312 1.080-0.312 0.048 0 0.072 0 0.12 0 0.024 0 0.072 0 0.12 0.024l-7.488 7.488c0-0.048-0.024-0.072-0.024-0.12-0.024-0.408 0.096-0.696 0.312-1.2 0.24-0.576 0.552-1.32 0.6-2.376 0.024-0.336 0.048-1.368-2.904-4.248-1.152-1.176-2.76-2.592-3.912-2.592-0.528 0-0.984 0.168-1.368 0.312-0.168 0.072-0.384 0.144-0.504 0.168 0 0 0 0 0 0v0 0l5.232-5.232zM7.92 1.656c-0.288 0-0.6 0.12-0.816 0.336l-5.304 5.304c-0.432 0.432-0.456 1.128-0.048 1.608 0.024 0.024 0 0.024 0.024 0.048 0 0 0.024 0 0.024 0.024 0 0 0 0 0 0.024 0.024 0.024 0.048 0.024 0.072 0.048 0.096 0.096 0.192 0.144 0.312 0.192 0.024 0 0.024 0 0.048 0.024 0.144 0.048 0.264 0.072 0.408 0.072 0 0 0 0 0 0s0 0 0 0c0.624 0 1.248-0.48 1.872-0.48 0.912 0 3.072 2.232 3.072 2.232s2.568 2.496 2.544 3.336c-0.072 1.704-0.984 2.328-0.888 3.72 0.072 0.984 1.104 1.848 1.104 1.848l4.368-4.368 3.84 3.84 2.664 2.016 0.072-0.072-2.016-2.664-3.84-3.84 4.344-4.344c0 0-0.864-1.032-1.848-1.104-0.072 0-0.144 0-0.192 0-1.248 0-1.896 0.84-3.504 0.888 0 0 0 0-0.024 0-0.864 0-3.336-2.544-3.336-2.544s-2.232-2.16-2.232-3.072c0-0.624 0.456-1.248 0.48-1.872 0 0 0 0 0-0.024 0-0.144-0.024-0.264-0.072-0.408 0-0.024 0-0.024-0.024-0.048-0.048-0.096-0.12-0.192-0.192-0.312-0.024-0.024-0.024-0.048-0.048-0.072 0 0 0 0-0.024 0 0 0 0-0.024-0.024-0.024-0.024-0.024-0.024 0-0.048-0.024-0.192-0.192-0.48-0.288-0.768-0.288v0z"></path>
</svg>
