<!-- Generated by IcoMoon.io -->
<svg version="1.1" xmlns="http://www.w3.org/2000/svg" width="24" height="24" viewBox="0 0 24 24">
<title>users</title>
<path fill="#444" d="M21.622 14.8c-0.4-0.356-3.044-1.044-4.422-1.378 1.289-1.222 2.044-3.289 2.044-5.244 0-3.044-0.844-5.511-4.622-5.511-1.2 0-2.089 0.244-2.778 0.689 0.933 0.067 1.667 0.289 2.244 0.667 0.156-0.022 0.333-0.022 0.533-0.022 2.756 0 3.289 1.889 3.289 4.244 0 1.711-0.667 3.578-1.822 4.467v0.844l0.178 0.6c1.378 0.356 3.689 0.978 4.244 1.222 0.778 0.356 1.044 2.111 0 2.467h-2.022c0.067 0.422 0.089 0.867 0 1.267 3.289-0.111 3.533-0.333 3.533-0.333 0.911-1.2 0.467-3.178-0.4-3.978zM11.867 15.4c1.311-1.289 2.089-3.489 2.089-5.578 0-3.222-0.844-5.822-4.622-5.822s-4.622 2.6-4.622 5.822c0 2.089 0.778 4.311 2.089 5.6-1.378 0.333-4.067 1.022-4.467 1.378-0.889 0.8-1.311 2.778-0.444 3.956 0 0 0.511 0.4 7.467 0.4 6.978 0 7.4-0.4 7.4-0.4 0.867-1.178 0.444-3.156-0.444-3.956-0.356-0.378-3.089-1.067-4.444-1.4zM15.244 19.822l-6-0.022c0 0-5.844 0.022-5.844 0.022-1.178-0.422-0.578-2.133 0.2-2.467 0.6-0.267 2.911-0.956 4.089-1.289l0.156-0.533v-0.889c-1.156-0.956-1.822-2.956-1.822-4.778 0-2.511 0.556-4.533 3.289-4.533 2.756 0 3.289 2.022 3.289 4.533 0 1.822-0.667 3.822-1.822 4.778v0.889l0.178 0.6c1.378 0.356 3.689 0.978 4.244 1.222 0.822 0.333 1.089 2.111 0.044 2.467z"></path>
</svg>
