<svg width="24" height="24" viewBox="0 0 24 24" fill="none" xmlns="http://www.w3.org/2000/svg">
<path d="M21.6212 14.801C21.2212 14.445 18.5772 13.757 17.1992 13.423C18.4882 12.201 19.2432 10.134 19.2432 8.17897C19.2432 5.13497 18.3992 2.66797 14.6212 2.66797C13.4212 2.66797 12.5322 2.91197 11.8432 3.35697C12.7762 3.42397 13.5102 3.64597 14.0872 4.02397C14.2432 4.00197 14.4202 4.00197 14.6202 4.00197C17.3762 4.00197 17.9092 5.89097 17.9092 8.24597C17.9092 9.95697 17.2422 11.824 16.0872 12.713V13.557L16.2652 14.157C17.6432 14.513 19.9542 15.135 20.5092 15.379C21.2872 15.735 21.5532 17.49 20.5092 17.846H18.4872C18.5542 18.268 18.5762 18.713 18.4872 19.113C21.7762 19.002 22.0202 18.78 22.0202 18.78C22.9312 17.58 22.4872 15.602 21.6202 14.802L21.6212 14.801ZM11.8662 15.401C13.1772 14.112 13.9552 11.912 13.9552 9.82297C13.9552 6.60097 13.1112 4.00097 9.33318 4.00097C5.55518 4.00097 4.71118 6.60097 4.71118 9.82297C4.71118 11.912 5.48918 14.134 6.80018 15.423C5.42218 15.756 2.73318 16.445 2.33318 16.801C1.44418 17.601 1.02218 19.579 1.88918 20.757C1.88918 20.757 2.40018 21.157 9.35618 21.157C16.3342 21.157 16.7562 20.757 16.7562 20.757C17.6232 19.579 17.2002 17.601 16.3122 16.801C15.9562 16.423 13.2232 15.734 11.8682 15.401H11.8662ZM15.2432 19.823L9.24318 19.801L3.39918 19.823C2.22118 19.401 2.82118 17.69 3.59918 17.356C4.19918 17.089 6.51018 16.4 7.68818 16.067L7.84418 15.534V14.645C6.68818 13.689 6.02218 11.689 6.02218 9.86697C6.02218 7.35597 6.57818 5.33397 9.31118 5.33397C12.0672 5.33397 12.6002 7.35597 12.6002 9.86697C12.6002 11.689 11.9332 13.689 10.7782 14.645V15.534L10.9562 16.134C12.3342 16.49 14.6452 17.112 15.2002 17.356C16.0222 17.689 16.2892 19.467 15.2442 19.823H15.2432Z" fill="#1C2125"/>
</svg>
