<!-- Generated by IcoMoon.io -->
<svg version="1.1" xmlns="http://www.w3.org/2000/svg" width="24" height="24" viewBox="0 0 24 24">
<title>users-new</title>
<path fill="#c1c6cc" d="M9 13.75c-2.34 0-7 1.17-7 3.5v1.75h14v-1.75c0-2.33-4.66-3.5-7-3.5zM4.34 17c0.84-0.58 2.87-1.25 4.66-1.25s3.82 0.67 4.66 1.25h-9.32z"></path>
<path fill="#c1c6cc" d="M9 12c1.93 0 3.5-1.57 3.5-3.5s-1.57-3.5-3.5-3.5c-1.93 0-3.5 1.57-3.5 3.5s1.57 3.5 3.5 3.5zM9 7c0.83 0 1.5 0.67 1.5 1.5s-0.67 1.5-1.5 1.5c-0.83 0-1.5-0.67-1.5-1.5s0.67-1.5 1.5-1.5z"></path>
<path fill="#c1c6cc" d="M16.040 13.81c1.16 0.84 1.96 1.96 1.96 3.44v1.75h4v-1.75c0-2.020-3.5-3.17-5.96-3.44z"></path>
<path fill="#c1c6cc" d="M15 12c1.93 0 3.5-1.57 3.5-3.5s-1.57-3.5-3.5-3.5c-0.54 0-1.040 0.13-1.5 0.35 0.63 0.89 1 1.98 1 3.15s-0.37 2.26-1 3.15c0.46 0.22 0.96 0.35 1.5 0.35z"></path>
</svg>
