<!-- Generated by IcoMoon.io -->
<svg version="1.1" xmlns="http://www.w3.org/2000/svg" width="24" height="24" viewBox="0 0 24 24">
<title>user-attribute</title>
<path fill="#444" d="M12 14h2v2h-2v-2z"></path>
<path fill="#444" d="M16 14h8v2h-8v-2z"></path>
<path fill="#444" d="M12 18h2v2h-2v-2z"></path>
<path fill="#444" d="M16 18h8v2h-8v-2z"></path>
<path fill="#444" d="M12 22h2v2h-2v-2z"></path>
<path fill="#444" d="M16 22h8v2h-8v-2z"></path>
<path fill="#444" d="M5.224 14.745c-3.072 0.53-3.044 0.524-3.414 0.873-1.284 1.211-1.656 3.83-0.567 5.373l0.057 0.081 0.076 0.063c0.222 0.185 0.656 0.296 1.599 0.398 1.358 0.146 3.566 0.233 6.826 0.233v-1.5c-3.211 0-5.369-0.085-6.666-0.224-0.352-0.038-0.611-0.077-0.786-0.114-0.486-0.952-0.217-2.552 0.49-3.219-0.057 0.054-0.010 0.033 0.073 0.009 0.151-0.045 0.363-0.095 0.637-0.151 0.244-0.050 0.529-0.102 0.9-0.167 0.216-0.038 1.002-0.172 1.028-0.177 1.179-0.203 1.864-0.34 2.406-0.497 0.395-0.114 0.678-0.231 0.888-0.393 0.493-0.381 0.536-1.052 0.023-1.466-1.879-1.519-3.103-3.75-3.103-5.942 0-3.7 1.206-5.375 4.654-5.375s4.654 1.674 4.654 5.375c0 0.913-0.301 1.943-0.846 2.995l1.332 0.69c0.647-1.25 1.014-2.505 1.014-3.685 0-4.443-1.751-6.875-6.154-6.875s-6.154 2.432-6.154 6.875c0 2.369 1.133 4.709 2.923 6.454-0.438 0.106-1.025 0.217-1.891 0.367z"></path>
</svg>
