<!-- Generated by IcoMoon.io -->
<svg version="1.1" xmlns="http://www.w3.org/2000/svg" width="24" height="24" viewBox="0 0 24 24">
<title>user</title>
<path fill="#444" d="M22.79 17.956c-0.633-0.603-6.381-1.907-7.485-2.155 2.593-1.427 4.199-4.886 4.199-8.144 0-4.229-1.227-7.656-6.755-7.656-5.526 0-6.755 3.428-6.755 7.656 0 3.27 1.617 6.74 4.227 8.157-1.266 0.279-6.849 1.529-7.498 2.142-1.164 1.098-1.751 3.846-0.587 5.495 0 0 1.414 0.55 10.659 0.55 9.246 0 10.572-0.55 10.572-0.55 1.158-1.648 0.578-4.397-0.578-5.495zM21.75 22.5l-9.102-0.023c0 0-8.895 0.023-8.898 0.023-1.644-0.634-0.81-3.218 0.287-3.748 0.903-0.438 5.097-1.617 6.73-2.070l0.3-1.479v-0.63c-2.219-1.069-3.567-4.118-3.567-6.888 0-3.417 0.875-6.189 5.247-6.189 4.374 0 5.247 2.772 5.247 6.189 0 2.771-1.344 5.819-3.565 6.888v0.63l0.322 1.575c2.019 0.506 6.156 1.565 6.999 1.974 1.093 0.529 1.441 3.201 0 3.748z"></path>
</svg>
