<!-- Generated by IcoMoon.io -->
<svg version="1.1" xmlns="http://www.w3.org/2000/svg" width="24" height="24" viewBox="0 0 24 24">
<title>view-grid</title>
<path fill="#444" d="M9 13.502h-6c-0.828 0-1.5 0.67-1.5 1.5v6c0 0.828 0.672 1.5 1.5 1.5h6c0.828 0 1.5-0.672 1.5-1.5v-6c0-0.83-0.672-1.5-1.5-1.5zM9 20.252c0 0.414-0.336 0.75-0.75 0.75h-4.5c-0.414 0-0.75-0.336-0.75-0.75v-4.5c0-0.414 0.336-0.75 0.75-0.75h4.5c0.414 0 0.75 0.336 0.75 0.75v4.5zM9 1.5h-6c-0.828 0-1.5 0.672-1.5 1.502v6c0 0.828 0.672 1.5 1.5 1.5h6c0.828 0 1.5-0.672 1.5-1.5v-6c0-0.829-0.672-1.501-1.5-1.501zM9 8.252c0 0.413-0.336 0.75-0.75 0.75h-4.5c-0.414 0-0.75-0.337-0.75-0.75v-4.501c0-0.413 0.336-0.749 0.75-0.749h4.5c0.414 0 0.75 0.336 0.75 0.749v4.501zM21 1.5h-6c-0.83 0-1.5 0.672-1.5 1.502v6c0 0.828 0.672 1.5 1.5 1.5h6c0.83 0 1.5-0.672 1.5-1.5v-6c0-0.829-0.67-1.501-1.5-1.501zM21 8.252c0 0.413-0.337 0.75-0.75 0.75h-4.5c-0.413 0-0.75-0.337-0.75-0.75v-4.501c0-0.413 0.337-0.749 0.75-0.749h4.5c0.413 0 0.75 0.336 0.75 0.749v4.501zM21 13.502h-6c-0.83 0-1.5 0.67-1.5 1.5v6c0 0.828 0.672 1.5 1.5 1.5h6c0.83 0 1.5-0.672 1.5-1.5v-6c0-0.83-0.67-1.5-1.5-1.5zM21 20.252c0 0.414-0.337 0.75-0.75 0.75h-4.5c-0.413 0-0.75-0.336-0.75-0.75v-4.5c0-0.414 0.337-0.75 0.75-0.75h4.5c0.413 0 0.75 0.336 0.75 0.75v4.5z"></path>
</svg>
