<!-- Generated by IcoMoon.io -->
<svg version="1.1" xmlns="http://www.w3.org/2000/svg" width="24" height="24" viewBox="0 0 24 24">
<title>vis-map</title>
<path fill="#444" d="M24 2.065v6.968c0 0 0 0 0 0-0.258-0.258-0.258-0.258-0.258-0.516 0 0.258-0.258 0.258-0.258 0 0 0.258 0.258 0.516 0.258 0.516 0 0.258 0.258 0.516 0.258 0.516v6.968c0 0 0 0-0.258 0.258 0 0 0.258 0.258 0 0.516 0 0.258 0 0.258-0.258 0.258 0 0.258 0 0.516 0 0.516 0 0.258-0.258 0.258-0.258 0.258-0.258 0.258-0.258 0.516-0.516 0.516 0 0.258-0.258 0.258-0.516 0.258 0 0-0.258 0-0.516 0-0.258 0.258-0.516 0-0.516-0.258 0.258 0 0-0.258 0-0.258 0-0.258-0.258-0.516-0.258-0.516 0-0.258 0-0.516 0-0.516 0-0.258-0.258-0.516-0.258-0.516 0-0.258-0.258-0.516-0.258-0.516 0-0.258 0-0.516 0-0.516 0-0.258 0.258-0.516 0.258-0.516 0-0.258 0-0.516 0-0.516 0-0.258-0.258-0.516-0.258-0.774s-0.258-0.258-0.258-0.516 0-0.774 0-1.032c0 0-0.516 0-0.516 0s-0.258-0.258-0.258-0.258-0.258 0-0.516 0c-0.258 0-0.516 0.258-0.516 0.258-0.258-0.258-0.516 0-0.774 0s-0.258-0.258-0.516-0.258c0-0.258-0.258-0.258-0.258-0.516 0 0-0.258-0.258-0.258-0.258-0.258-0.258-0.516-0.258-0.258-0.516 0-0.258-0.258-0.258 0-0.258 0-0.258 0-0.516 0-0.774 0 0 0-0.258 0-0.258 0-0.258 0.258-0.516 0.258-0.774 0 0 0.258-0.258 0.258-0.258 0-0.258 0.258-0.258 0.516-0.258 0-0.258 0-0.516 0.258-0.516 0-0.258 0.258-0.258 0.258-0.516 0.258-0.258 0.258 0 0.516 0 0 0 0.258 0 0.516-0.258 0 0 0.258 0 0.516 0 0-0.258 0.258 0 0.258 0 0.258 0 0.516-0.258 0.516-0.258 0.258 0 0.258 0.258 0.258 0.258 0 0.258 0 0.258-0.258 0.516 0.258 0 0.258 0 0.516 0s0.258 0.258 0.258 0.258c0.258 0 0.516 0.258 0.516 0.258 0-0.258 0-0.516 0.258-0.516s0.258 0 0.516 0.258c0 0 0.258 0 0.516 0 0.258 0.258 0.258 0 0.516 0 0.258 0.258 0.516 0 0.516-0.258 0 0 0-0.258 0-0.516 0 0 0 0-0.258 0 0 0.258-0.258 0-0.516 0 0 0-0.258 0-0.258 0-0.258 0-0.258-0.258-0.258-0.258s-0.258-0.258 0-0.516c0 0-0.258 0-0.258 0-0.258 0-0.258 0.258-0.258 0.258 0.258 0.258 0 0.258 0 0.258s0.258 0.258 0 0.258c-0.258 0-0.258-0.258-0.258-0.258-0.258-0.258-0.258-0.516-0.258-0.516 0-0.258-0.258-0.258-0.516-0.516 0 0-0.258-0.258-0.258-0.258-0.258 0.258 0 0.258 0 0.516 0.258 0 0.258 0.258 0.516 0.258s0.258 0.258 0 0.258c0-0.258 0 0 0 0 0 0.258-0.258 0.258-0.258 0.258 0 0.258-0.258 0-0.258 0-0.258 0 0 0 0 0 0.258 0 0.516-0.258 0.258-0.258-0.258-0.258-0.258-0.258-0.516-0.516-0.258 0-0.258-0.258-0.258-0.258-0.258 0-0.516 0.258-0.774 0.258-0.258-0.258 0 0.258-0.258 0.258s-0.258 0.258-0.258 0.258-0.258 0.516-0.258 0.516c-0.258 0-0.516 0-0.774 0 0-0.258-0.258 0-0.258-0.258 0 0 0-0.258 0-0.258 0-0.258 0-0.516 0-0.516 0.258-0.258 0.516-0.258 0.516-0.258 0.258 0 0.516 0.258 0.516 0 0.258-0.258 0-0.516-0.258-0.516-0.258-0.258 0-0.258 0.258-0.258 0 0 0 0 0-0.258 0.258 0.258 0.258 0 0.516 0 0-0.258 0.258-0.258 0.258-0.258 0-0.258 0.258-0.258 0.516-0.258 0 0 0.258-0.258 0-0.258 0-0.258 0.258-0.516 0.258-0.258 0 0 0 0.258 0.258 0.516 0 0-0.258-0.258 0-0.258-0.258-0.258 0.258 0 0-0.258 0 0 0-0.258-0.258-0.258 0 0-0.258 0-0.258 0-0.258 0-0.258-0.258-0.258-0.258-0.258-0.258 0-0.258 0.258-0.516 0.258 0 0.258 0 0.516-0.258 0-0.258 0.258-0.258 0.516-0.516 0 0 0.258-0.258 0.258-0.258 0.258 0 0.516 0 0.516 0 0.258 0 0.516 0 0.774 0 0 0 0 0 0.258 0 0.258 0.258 0.516 0.258 0.774 0.258 0 0 0.258 0.258 0 0.516-0.258 0-0.516 0-0.516-0.258 0 0.258 0 0.516 0.258 0.516 0 0-0.258-0.258 0-0.258 0 0 0.258 0.258 0.258 0 0 0 0.258-0.258 0.258-0.258s0-0.258 0-0.258c0 0 0.258 0 0.258 0zM0 3.097v0.516c0 0 0 0 0 0v0.258c0 0 0.258-0.258 0.258-0.258 0.258 0 0.516-0.258 0.774-0.258 0 0 0.258 0 0 0-0.258 0.258 0 0.258 0 0.258 0.258-0.258 0.516-0.258 0.516-0.258 0.258-0.258 0.258 0 0.516 0s0.258 0 0.516 0.258c0 0 0.258 0 0 0.258 0.258 0 0.258 0.258 0.258 0.258-0.258 0.258 0 0.258-0.258 0.516 0 0.258 0.258 0.258 0.258 0.516 0.258 0.258 0-0.258 0-0.258-0.258 0-0.516 0-0.258 0.258 0.258 0 0 0.258 0 0.516-0.258 0.258-0.258 0.258-0.516 0.516 0 0.258 0 0.258-0.258 0.258 0 0.258 0.258 0.516 0 0.774 0 0.258 0 0.516 0.258 0.516s0.258 0.258 0.258 0.258 0 0.516 0 0.516c-0.258 0.258 0 0.516 0.258 0.516 0 0 0 0.258 0.258 0.258 0 0 0 0.258 0 0 0 0 0-0.258-0.258-0.516 0-0.258-0.258-0.516 0-0.774 0 0 0.258 0.258 0.258 0.258-0.258 0.258 0 0.516 0.258 0.516 0 0.258 0 0.258 0 0.516 0.258 0 0.258 0.258 0.258 0.258 0 0.258 0 0.516 0.258 0.516 0 0.258 0.258 0.258 0.516 0.516 0.258 0 0.258 0.258 0.516 0.258 0.258-0.258 0.258-0.258 0.516 0 0 0 0.258 0.258 0.258 0.258 0.258 0 0.516 0 0.516 0.258s0.258 0 0.258 0c-0.258 0-0.258 0.516 0 0.516s0.258 0.258 0.516 0.258c0 0 0.258 0 0.258-0.258 0 0 0.258 0 0.258 0.258s0 0.516 0 0.516-0.258 0.258-0.258 0.516c-0.258 0-0.258 0.258-0.258 0.516 0 0 0 0.258 0 0.258s0 0.258 0 0.516c0 0 0.258 0 0.258 0.258s0.258 0.258 0.258 0.516 0.258 0.516 0.516 0.774c0 0 0.258 0 0.258 0.258 0.258 0 0.516 0.258 0.516 0.258 0 0.516 0 0.774 0 1.032s0 0.516 0 0.516 0 0.516 0 0.516c0.258 0.258 0.258 0.516 0.258 0.774 0 0-0.258 0.258 0 0.516 0 0 0 0.258 0 0.516 0.258 0 0.258 0.258 0.258 0.516s0.258 0.516 0.258 0.774c0 0 0.258 0.258 0.258 0.516 0 0 0.258 0.258 0.516 0 0 0 0 0.258 0 0.258 0.258 0.258 0.258 0 0.516 0.258 0 0 0.516-0.258 0.258-0.258s-0.516 0-0.516-0.258-0.258-0.258-0.258-0.516 0.258-0.258 0.258-0.516c-0.258 0-0.516 0-0.258-0.258 0.258 0 0-0.258 0.258-0.258 0-0.258-0.258 0-0.258-0.258s0.258 0 0.258 0c0.258-0.258-0.258-0.516 0-0.516s0.516 0 0.516-0.258c0.258 0 0-0.258 0-0.258-0.258 0-0.258-0.258 0-0.258 0 0.258 0.258 0.258 0.516 0 0-0.258 0-0.516 0.258-0.516 0 0 0-0.258 0.258-0.258 0-0.258-0.258-0.516 0-0.774 0 0 0.258 0 0.516-0.258 0 0 0.258 0 0.516-0.258 0-0.258 0-0.258 0-0.516 0.258-0.258 0-0.516 0-0.774s0.258-0.258 0.258-0.516 0.516-0.516 0.258-1.032c0 0-0.258 0-0.516-0.258 0 0-0.258 0-0.516 0 0-0.258-0.258-0.258-0.258-0.258s-0.258-0.258-0.516-0.258c0 0-0.258 0-0.258-0.258s-0.258-0.258-0.258-0.516c0 0-0.258-0.258-0.516-0.258 0 0-0.258 0-0.516-0.258 0 0 0-0.258-0.258-0.258 0 0 0-0.258-0.258-0.258 0.258 0 0.258-0.258 0 0 0 0 0 0 0 0-0.258-0.258-0.516 0-0.516 0-0.258 0-0.258 0-0.516-0.258 0 0 0 0-0.258 0 0 0-0.258 0.258 0 0 0 0 0-0.258-0.258 0 0 0-0.258 0-0.516 0.258 0 0.258-0.258 0.516-0.258 0.258-0.258-0.258-0.258 0-0.516 0-0.258-0.258-0.258-0.258-0.258-0.516s0-0.258 0-0.516-0.258-0.258-0.516-0.258c0 0.258-0.258 0 0 0 0-0.258 0-0.258 0-0.516 0 0 0.258-0.258 0.258-0.258-0.258-0.258-0.516 0-0.516 0 0 0.258-0.258 0.516-0.516 0.516 0 0-0.258 0-0.258-0.258-0.258 0-0.258-0.258-0.258-0.516s0.258-0.516 0.258-0.774c0-0.258 0.258-0.258 0.516-0.258 0-0.258 0.258 0 0.516 0s0-0.258 0.258-0.258c0.258 0 0.258 0 0.516 0.258 0.258-0.258 0.258 0 0.258 0.258 0 0 0 0.258 0.258 0.258 0 0 0-0.258 0-0.516 0 0 0-0.258 0-0.516 0.258 0 0.258-0.258 0.516-0.258 0 0 0.258-0.258 0.258-0.258 0.258-0.258 0.258-0.258 0.258-0.516 0.258 0 0.258-0.258 0.258-0.258 0.258-0.258 0.258-0.258 0.516-0.258s0.258-0.516 0.516-0.516c0.258 0 0.258 0 0.516-0.258 0.258 0 0.258 0 0.258 0-0.258 0.258-0.516 0.258-0.258 0.258s0.258 0 0.516 0c0-0.258 0.258-0.258 0-0.258s-0.258-0.258 0-0.516c0 0-0.258-0.258-0.258 0-0.258 0-0.516 0-0.516 0 0.258 0 0.516-0.258 0.516-0.258 0.258 0 0.516 0 0.774 0s0.258-0.258 0.516-0.258c0 0.258-0.258 0.516-0.516 0.516 0 0 0 0.258 0.258 0.258 0 0 0.258 0 0.258 0 0.258 0.258 0.516 0 0.258 0 0-0.258 0.258-0.516 0-0.516-0.258 0.258-0.258 0 0 0 0-0.258 0-0.516 0-0.516 0-0.258-0.516-0.258-0.516-0.516 0.258 0 0-0.258 0-0.516 0 0-0.258 0.258-0.258 0.258-0.258 0-0.516-0.258-0.258-0.258 0-0.258-0.258-0.258-0.258-0.258-0.258 0-0.258 0-0.516-0.258-0.258 0.258-0.258 0.516-0.258 0.516 0 0.258-0.258 0.258-0.258 0.258 0 0.258 0 0.516-0.258 0.516s-0.258 0-0.258 0.258-0.258 0.258-0.258 0.258 0-0.258 0-0.516c-0.258 0-0.516 0-0.516-0.258-0.258 0-0.258 0-0.516 0 0-0.258 0.258-0.258 0-0.258 0-0.258 0.258-0.516 0.516-0.516s0.516-0.258 0.516-0.258c0.258 0 0.516-0.258 0.516-0.258s-0.258 0.258 0 0.258c0.258 0 0.258 0 0.516 0 0 0 0-0.258-0.258-0.258 0-0.258 0.258 0 0.258 0 0.258-0.258 0.258-0.258 0.516-0.516 0-0.258-0.516-0.258 0-0.258 0 0.258 0.258 0 0.516 0.258 0 0 0.258 0.258 0 0.258 0 0 0 0.258-0.258 0.258s-0.516 0-0.258 0.258c0 0 0.258 0 0.258 0 0.258 0 0.258 0.258 0.516 0.258 0 0 0.258 0 0.258 0 0-0.258-0.258-0.258 0-0.258 0 0.258 0.258 0 0.258-0.258 0 0-0.258-0.258 0 0 0.258-0.258 0.258 0.258 0.258 0 0.258 0 0.258-0.258 0.258-0.258-0.258-0.258-0.516-0.258-0.258-0.258 0-0.258 0-0.258-0.258-0.258 0-0.258-0.258-0.258-0.258-0.258s-0.258-0.258-0.258-0.258c0 0 0 0 0 0-0.258 0 0 0.258-0.258 0.258 0 0 0.258-0.258 0-0.258s-0.516 0.258-0.516 0.258c0.258 0 0-0.258 0-0.258-0.258 0-0.258 0.258-0.516 0.258-0.258 0.258 0 0.258 0.258 0.258-0.258 0.258-0.516 0.516-0.516 0.516 0-0.258 0-0.258 0-0.258-0.258 0 0-0.258-0.258-0.258 0.258 0 0-0.258 0-0.258-0.258 0.258-0.258 0.258-0.516 0.258 0.258 0.258 0.258 0.258 0 0.258 0 0.258-0.258 0-0.516 0 0 0-0.258 0.258-0.516 0-0.258 0-0.258 0-0.516 0 0 0-0.258 0.258-0.516 0.258 0 0 0-0.258 0-0.258-0.258 0-0.258 0-0.516-0.258-0.258 0-0.258 0.258-0.516 0 0 0-0.258 0-0.516 0 0 0-0.258 0.258-0.516 0.258 0 0-0.258 0-0.516 0 0-0.258-0.258-0.258-0.516-0.258 0 0-0.258 0-0.516 0s-0.258 0-0.516 0-0.516 0-0.774 0c-0.258 0-0.258 0.258-0.516 0.258s-0.258 0-0.258 0.258c0 0 0.258 0 0 0 0 0.258-0.258 0-0.516 0 0 0-0.258 0.258-0.258 0.516 0.258-0.258 0.516 0 0.516 0s-0.258 0-0.516 0c0 0-0.258 0-0.258 0.258zM18.065 4.129v0c0 0 0 0 0 0v0c-0.258 0-0.258 0.258-0.258 0.258-0.258 0 0 0.258-0.258 0.258 0 0 0.258 0.258 0.258 0 0.258 0 0.258 0 0.258-0.258 0.258 0 0.258 0 0.258 0s0 0 0 0c0.258 0.258-0.258 0 0 0.258-0.258 0-0.258 0.258 0 0.258 0 0 0 0 0 0-0.258 0-0.258 0.258 0 0.258 0-0.258 0.258-0.258 0.516-0.258 0 0 0.258 0 0 0 0.258-0.258 0.258-0.258 0-0.258 0-0.258-0.258-0.516-0.258-0.516 0-0.258 0-0.258 0-0.258s-0.258 0 0-0.258c0 0-0.258 0-0.258 0s-0.258 0.258-0.258 0.258c0 0.258 0 0.258 0 0.258zM13.677 0.516v0c0 0 0 0 0 0-0.516-0.258-0.774 0-1.032 0s-0.258-0.258-0.258-0.258c-0.516 0-0.774 0.258-1.032 0.258s-0.258 0 0 0c0 0.258 0.258 0.258 0 0.258 0 0-0.258 0.258-0.258 0.258-0.258 0-0.516 0-0.516 0 0 0.258 0.258 0 0.258 0.258 0.258-0.258 0.258 0 0.516 0s0.258-0.258 0.516-0.258 0.516-0.258 0.516-0.258 0.516 0 0.774-0.258c0 0 0 0.258 0 0.258s-0.258 0-0.516 0c0 0-0.516 0-0.258 0.258 0 0 0 0.258 0.258 0 0.258 0 0.516 0 0.516 0.258 0.258 0 0.258 0.258 0.258 0.258-0.258 0.258 0.258 0.258 0.258 0.258-0.258 0-0.258 0-0.258 0.258 0.258 0-0.258 0-0.258 0.258 0 0 0 0.258 0 0.258 0 0.258 0 0.516 0.258 0.774 0 0 0.258 0 0.258 0 0.258 0.258 0.258 0 0.258-0.258 0.258 0 0.258 0 0.516-0.258 0-0.258 0.258-0.258 0.258-0.258 0.258 0 0.516 0 0.516-0.258 0.258 0 0.516 0 0.516 0 0.258 0 0.516-0.258 0.774-0.258 0.258-0.258-0.258-0.258 0-0.258 0 0.258 0.258 0.258 0.258 0s-0.258-0.258-0.258-0.258c0.258 0 0.516 0 0.516-0.258 0.258 0 0-0.258 0.258-0.258 0 0 0-0.258 0-0.258s0.258 0 0.258 0c0.258-0.258 0.516-0.258 0.516-0.258-0.258 0-0.516 0-0.774 0 0 0 0-0.258 0-0.258-0.258 0-0.516 0-0.774 0s-0.516 0-0.774 0c-0.258 0-0.516 0.258-0.774 0-0.258 0.258-0.516 0-0.774 0.258-0.258 0-0.516 0-0.516 0zM13.419 0.516v0c0 0 0 0 0 0s0 0 0 0 0 0 0 0zM16.516 2.323c0 0 0 0.258 0.258 0.258 0-0.258 0.258 0 0.516 0 0-0.258 0.258 0 0 0.258 0 0-0.258 0-0.516 0 0 0-0.516 0-0.258 0-0.258 0 0-0.258 0-0.258-0.258 0-0.258-0.258 0-0.258z"></path>
<path fill="#444" d="M0 0h24v0.774h-24v-0.774z"></path>
<path fill="#444" d="M0 23.226h24v0.774h-24v-0.774z"></path>
<path fill="#444" d="M0 0h0.774v24h-0.774v-24z"></path>
<path fill="#444" d="M23.226 0h0.774v24h-0.774v-24z"></path>
</svg>
