<svg width="24" height="24" viewBox="0 0 24 24" fill="none" xmlns="http://www.w3.org/2000/svg">
<g clip-path="url(#clip0)">
<path d="M24 2.065V9.033C23.742 8.775 23.742 8.775 23.742 8.517C23.742 8.775 23.484 8.775 23.484 8.517C23.484 8.775 23.742 9.033 23.742 9.033C23.742 9.291 24 9.549 24 9.549V16.517C24 16.517 24 16.517 23.742 16.775C23.742 16.775 24 17.033 23.742 17.291C23.742 17.549 23.742 17.549 23.484 17.549C23.484 17.807 23.484 18.065 23.484 18.065C23.484 18.323 23.226 18.323 23.226 18.323C22.968 18.581 22.968 18.839 22.71 18.839C22.71 19.097 22.452 19.097 22.194 19.097C22.194 19.097 21.936 19.097 21.678 19.097C21.42 19.355 21.162 19.097 21.162 18.839C21.42 18.839 21.162 18.581 21.162 18.581C21.162 18.323 20.904 18.065 20.904 18.065C20.904 17.807 20.904 17.549 20.904 17.549C20.904 17.291 20.646 17.033 20.646 17.033C20.646 16.775 20.388 16.517 20.388 16.517C20.388 16.259 20.388 16.001 20.388 16.001C20.388 15.743 20.646 15.485 20.646 15.485C20.646 15.227 20.646 14.969 20.646 14.969C20.646 14.711 20.388 14.453 20.388 14.195C20.388 13.937 20.13 13.937 20.13 13.679C20.13 13.421 20.13 12.905 20.13 12.647H19.614L19.356 12.389C19.356 12.389 19.098 12.389 18.84 12.389C18.582 12.389 18.324 12.647 18.324 12.647C18.066 12.389 17.808 12.647 17.55 12.647C17.292 12.647 17.292 12.389 17.034 12.389C17.034 12.131 16.776 12.131 16.776 11.873L16.518 11.615C16.26 11.357 16.002 11.357 16.26 11.099C16.26 10.841 16.002 10.841 16.26 10.841C16.26 10.583 16.26 10.325 16.26 10.067V9.809C16.26 9.551 16.518 9.293 16.518 9.035L16.776 8.777C16.776 8.519 17.034 8.519 17.292 8.519C17.292 8.261 17.292 8.003 17.55 8.003C17.55 7.745 17.808 7.745 17.808 7.487C18.066 7.229 18.066 7.487 18.324 7.487C18.324 7.487 18.582 7.487 18.84 7.229C18.84 7.229 19.098 7.229 19.356 7.229C19.356 6.971 19.614 7.229 19.614 7.229C19.872 7.229 20.13 6.971 20.13 6.971C20.388 6.971 20.388 7.229 20.388 7.229C20.388 7.487 20.388 7.487 20.13 7.745C20.388 7.745 20.388 7.745 20.646 7.745C20.904 7.745 20.904 8.003 20.904 8.003C21.162 8.003 21.42 8.26099 21.42 8.26099C21.42 8.00299 21.42 7.745 21.678 7.745C21.936 7.745 21.936 7.745 22.194 8.003C22.194 8.003 22.452 8.003 22.71 8.003C22.968 8.261 22.968 8.003 23.226 8.003C23.484 8.261 23.742 8.003 23.742 7.745C23.742 7.745 23.742 7.487 23.742 7.229C23.742 7.229 23.742 7.229 23.484 7.229C23.484 7.487 23.226 7.229 22.968 7.229H22.71C22.452 7.229 22.452 6.971 22.452 6.971C22.452 6.971 22.194 6.713 22.452 6.455H22.194C21.936 6.455 21.936 6.713 21.936 6.713C22.194 6.971 21.936 6.971 21.936 6.971C21.936 6.971 22.194 7.229 21.936 7.229C21.678 7.229 21.678 6.971 21.678 6.971C21.42 6.713 21.42 6.455 21.42 6.455C21.42 6.197 21.162 6.197 20.904 5.939L20.646 5.681C20.388 5.939 20.646 5.939 20.646 6.197C20.904 6.197 20.904 6.455 21.162 6.455C21.42 6.455 21.42 6.713 21.162 6.713C21.162 6.455 21.162 6.713 21.162 6.713C21.162 6.971 20.904 6.971 20.904 6.971C20.904 7.229 20.646 6.971 20.646 6.971C20.388 6.971 20.646 6.971 20.646 6.971C20.904 6.971 21.162 6.713 20.904 6.713C20.646 6.455 20.646 6.455 20.388 6.197C20.13 6.197 20.13 5.939 20.13 5.939C19.872 5.939 19.614 6.197 19.356 6.197C19.098 5.939 19.356 6.455 19.098 6.455C18.84 6.455 18.84 6.713 18.84 6.713L18.582 7.229C18.324 7.229 18.066 7.229 17.808 7.229C17.808 6.971 17.55 7.229 17.55 6.971V6.713C17.55 6.455 17.55 6.197 17.55 6.197C17.808 5.939 18.066 5.939 18.066 5.939C18.324 5.939 18.582 6.197 18.582 5.939C18.84 5.681 18.582 5.423 18.324 5.423C18.066 5.165 18.324 5.165 18.582 5.165C18.582 5.165 18.582 5.165 18.582 4.907C18.84 5.165 18.84 4.907 19.098 4.907C19.098 4.649 19.356 4.649 19.356 4.649C19.356 4.391 19.614 4.391 19.872 4.391C19.872 4.391 20.13 4.133 19.872 4.133C19.872 3.875 20.13 3.617 20.13 3.875C20.13 3.875 20.13 4.133 20.388 4.391C20.388 4.391 20.13 4.133 20.388 4.133C20.13 3.875 20.646 4.133 20.388 3.875C20.388 3.875 20.388 3.617 20.13 3.617H19.872C19.614 3.617 19.614 3.359 19.614 3.359C19.356 3.101 19.614 3.101 19.872 2.843C20.13 2.843 20.13 2.843 20.388 2.585C20.388 2.327 20.646 2.327 20.904 2.069L21.162 1.811C21.42 1.811 21.678 1.811 21.678 1.811C21.936 1.811 22.194 1.811 22.452 1.811C22.452 1.811 22.452 1.811 22.71 1.811C22.968 2.069 23.226 2.069 23.484 2.069C23.484 2.069 23.742 2.327 23.484 2.585C23.226 2.585 22.968 2.585 22.968 2.327C22.968 2.585 22.968 2.843 23.226 2.843C23.226 2.843 22.968 2.585 23.226 2.585C23.226 2.585 23.484 2.843 23.484 2.585L23.742 2.327V2.069H24V2.065ZM0 3.097V3.613V3.871L0.258 3.613C0.516 3.613 0.774 3.355 1.032 3.355C1.032 3.355 1.29 3.355 1.032 3.355C0.774 3.613 1.032 3.613 1.032 3.613C1.29 3.355 1.548 3.355 1.548 3.355C1.806 3.097 1.806 3.355 2.064 3.355C2.322 3.355 2.322 3.355 2.58 3.613C2.58 3.613 2.838 3.613 2.58 3.871C2.838 3.871 2.838 4.129 2.838 4.129C2.58 4.387 2.838 4.387 2.58 4.645C2.58 4.903 2.838 4.903 2.838 5.161C3.096 5.419 2.838 4.903 2.838 4.903C2.58 4.903 2.322 4.903 2.58 5.161C2.838 5.161 2.58 5.419 2.58 5.677C2.322 5.935 2.322 5.935 2.064 6.193C2.064 6.451 2.064 6.451 1.806 6.451C1.806 6.709 2.064 6.967 1.806 7.225C1.806 7.483 1.806 7.741 2.064 7.741C2.322 7.741 2.322 7.999 2.322 7.999V8.515C2.064 8.773 2.322 9.031 2.58 9.031C2.58 9.031 2.58 9.28899 2.838 9.28899C2.838 9.28899 2.838 9.54699 2.838 9.28899C2.838 9.28899 2.838 9.03099 2.58 8.77299C2.58 8.515 2.322 8.257 2.58 7.999L2.838 8.257C2.58 8.515 2.838 8.77299 3.096 8.77299C3.096 9.03099 3.096 9.03099 3.096 9.28899C3.354 9.28899 3.354 9.547 3.354 9.547C3.354 9.805 3.354 10.063 3.612 10.063C3.612 10.321 3.87 10.321 4.128 10.579C4.386 10.579 4.386 10.837 4.644 10.837C4.902 10.579 4.902 10.579 5.16 10.837L5.418 11.095C5.676 11.095 5.934 11.095 5.934 11.353C5.934 11.611 6.192 11.353 6.192 11.353C5.934 11.353 5.934 11.869 6.192 11.869C6.45 11.869 6.45 12.127 6.708 12.127C6.708 12.127 6.966 12.127 6.966 11.869C6.966 11.869 7.224 11.869 7.224 12.127C7.224 12.385 7.224 12.643 7.224 12.643C7.224 12.643 6.966 12.901 6.966 13.159C6.708 13.159 6.708 13.417 6.708 13.675V13.933C6.708 13.933 6.708 14.191 6.708 14.449C6.708 14.449 6.966 14.449 6.966 14.707C6.966 14.965 7.224 14.965 7.224 15.223C7.224 15.481 7.482 15.739 7.74 15.997C7.74 15.997 7.998 15.997 7.998 16.255C8.256 16.255 8.514 16.513 8.514 16.513C8.514 17.029 8.514 17.287 8.514 17.545C8.514 17.803 8.514 18.061 8.514 18.061V18.577C8.772 18.835 8.772 19.093 8.772 19.351C8.772 19.351 8.514 19.609 8.772 19.867C8.772 19.867 8.772 20.125 8.772 20.383C9.03 20.383 9.03 20.641 9.03 20.899C9.03 21.157 9.288 21.415 9.288 21.673C9.288 21.673 9.546 21.931 9.546 22.189C9.546 22.189 9.804 22.447 10.062 22.189V22.447C10.32 22.705 10.32 22.447 10.578 22.705C10.578 22.705 11.094 22.447 10.836 22.447C10.578 22.447 10.32 22.447 10.32 22.189C10.32 21.931 10.062 21.931 10.062 21.673C10.062 21.415 10.32 21.415 10.32 21.157C10.062 21.157 9.804 21.157 10.062 20.899C10.32 20.899 10.062 20.641 10.32 20.641C10.32 20.383 10.062 20.641 10.062 20.383C10.062 20.125 10.32 20.383 10.32 20.383C10.578 20.125 10.062 19.867 10.32 19.867C10.578 19.867 10.836 19.867 10.836 19.609C11.094 19.609 10.836 19.351 10.836 19.351C10.578 19.351 10.578 19.093 10.836 19.093C10.836 19.351 11.094 19.351 11.352 19.093C11.352 18.835 11.352 18.577 11.61 18.577C11.61 18.577 11.61 18.319 11.868 18.319C11.868 18.061 11.61 17.803 11.868 17.545C11.868 17.545 12.126 17.545 12.384 17.287C12.384 17.287 12.642 17.287 12.9 17.029C12.9 16.771 12.9 16.771 12.9 16.513C13.158 16.255 12.9 15.997 12.9 15.739C12.9 15.481 13.158 15.481 13.158 15.223C13.158 14.965 13.674 14.707 13.416 14.191C13.416 14.191 13.158 14.191 12.9 13.933C12.9 13.933 12.642 13.933 12.384 13.933C12.384 13.675 12.126 13.675 12.126 13.675C12.126 13.675 11.868 13.417 11.61 13.417C11.61 13.417 11.352 13.417 11.352 13.159C11.352 12.901 11.094 12.901 11.094 12.643C11.094 12.643 10.836 12.385 10.578 12.385C10.578 12.385 10.32 12.385 10.062 12.127C10.062 12.127 10.062 11.869 9.804 11.869C9.804 11.869 9.804 11.611 9.546 11.611C9.804 11.611 9.804 11.353 9.546 11.611C9.288 11.353 9.03 11.611 9.03 11.611C8.772 11.611 8.772 11.611 8.514 11.353C8.514 11.353 8.514 11.353 8.256 11.353C8.256 11.353 7.998 11.611 8.256 11.353C8.256 11.353 8.256 11.095 7.998 11.353C7.998 11.353 7.74 11.353 7.482 11.611C7.482 11.869 7.224 12.127 7.224 11.869C6.966 11.611 6.966 11.869 6.708 11.869C6.45 11.611 6.45 11.611 6.45 11.353C6.45 11.095 6.45 11.095 6.45 10.837C6.45 10.579 6.192 10.579 5.934 10.579C5.934 10.837 5.676 10.579 5.934 10.579C5.934 10.321 5.934 10.321 5.934 10.063L6.192 9.805C5.934 9.547 5.676 9.805 5.676 9.805C5.676 10.063 5.418 10.321 5.16 10.321C5.16 10.321 4.902 10.321 4.902 10.063C4.644 10.063 4.644 9.805 4.644 9.547C4.644 9.289 4.902 9.03099 4.902 8.77299C4.902 8.515 5.16 8.515 5.418 8.515C5.418 8.257 5.676 8.515 5.934 8.515C6.192 8.515 5.934 8.257 6.192 8.257C6.45 8.257 6.45 8.257 6.708 8.515C6.966 8.257 6.966 8.515 6.966 8.77299C6.966 8.77299 6.966 9.031 7.224 9.031C7.224 9.031 7.224 8.773 7.224 8.515C7.224 8.515 7.224 8.257 7.224 7.999C7.482 7.999 7.482 7.741 7.74 7.741L7.998 7.483C8.256 7.225 8.256 7.225 8.256 6.967C8.514 6.967 8.514 6.709 8.514 6.709C8.772 6.451 8.772 6.451 9.03 6.451C9.288 6.451 9.288 5.935 9.546 5.935C9.804 5.935 9.804 5.935 10.062 5.677C10.32 5.677 10.32 5.677 10.32 5.677C10.062 5.935 9.804 5.935 10.062 5.935C10.32 5.935 10.32 5.935 10.578 5.935C10.578 5.677 10.836 5.677 10.578 5.677C10.32 5.677 10.32 5.419 10.578 5.161C10.578 5.161 10.32 4.903 10.32 5.161C10.062 5.161 9.804 5.161 9.804 5.161C10.062 5.161 10.32 4.903 10.32 4.903C10.578 4.903 10.836 4.903 11.094 4.903C11.352 4.903 11.352 4.645 11.61 4.645C11.61 4.903 11.352 5.161 11.094 5.161C11.094 5.161 11.094 5.419 11.352 5.419H11.61C11.868 5.677 12.126 5.419 11.868 5.419C11.868 5.161 12.126 4.903 11.868 4.903C11.61 5.161 11.61 4.903 11.868 4.903C11.868 4.645 11.868 4.387 11.868 4.387C11.868 4.129 11.352 4.129 11.352 3.871C11.61 3.871 11.352 3.613 11.352 3.355L11.094 3.613C10.836 3.613 10.578 3.355 10.836 3.355C10.836 3.097 10.578 3.097 10.578 3.097C10.32 3.097 10.32 3.097 10.062 2.839C9.804 3.097 9.804 3.355 9.804 3.355C9.804 3.613 9.546 3.613 9.546 3.613C9.546 3.871 9.546 4.129 9.288 4.129C9.03 4.129 9.03 4.129 9.03 4.387C9.03 4.645 8.772 4.645 8.772 4.645C8.772 4.645 8.772 4.387 8.772 4.129C8.514 4.129 8.256 4.129 8.256 3.871C7.998 3.871 7.998 3.871 7.74 3.871C7.74 3.613 7.998 3.613 7.74 3.613C7.74 3.355 7.998 3.097 8.256 3.097C8.514 3.097 8.772 2.839 8.772 2.839C9.03 2.839 9.288 2.581 9.288 2.581C9.288 2.581 9.03 2.839 9.288 2.839C9.546 2.839 9.546 2.839 9.804 2.839C9.804 2.839 9.804 2.581 9.546 2.581C9.546 2.323 9.804 2.581 9.804 2.581C10.062 2.323 10.062 2.323 10.32 2.065C10.32 1.807 9.804 1.807 10.32 1.807C10.32 2.065 10.578 1.807 10.836 2.065C10.836 2.065 11.094 2.323 10.836 2.323C10.836 2.323 10.836 2.581 10.578 2.581C10.32 2.581 10.062 2.581 10.32 2.839H10.578C10.836 2.839 10.836 3.097 11.094 3.097H11.352C11.352 2.839 11.094 2.839 11.352 2.839C11.352 3.097 11.61 2.839 11.61 2.581C11.61 2.581 11.352 2.323 11.61 2.581C11.868 2.323 11.868 2.839 11.868 2.581C12.126 2.581 12.126 2.323 12.126 2.323C11.868 2.065 11.61 2.065 11.868 2.065C11.868 1.807 11.868 1.807 11.61 1.807C11.61 1.549 11.352 1.549 11.352 1.549L11.094 1.291C10.836 1.291 11.094 1.549 10.836 1.549C10.836 1.549 11.094 1.291 10.836 1.291C10.578 1.291 10.32 1.549 10.32 1.549C10.578 1.549 10.32 1.291 10.32 1.291C10.062 1.291 10.062 1.549 9.804 1.549C9.546 1.807 9.804 1.807 10.062 1.807C9.804 2.065 9.546 2.323 9.546 2.323C9.546 2.065 9.546 2.065 9.546 2.065C9.288 2.065 9.546 1.807 9.288 1.807C9.546 1.807 9.288 1.549 9.288 1.549C9.03 1.807 9.03 1.807 8.772 1.807C9.03 2.065 9.03 2.065 8.772 2.065C8.772 2.323 8.514 2.065 8.256 2.065C8.256 2.065 7.998 2.323 7.74 2.065C7.482 2.065 7.482 2.065 7.224 2.065C7.224 2.065 6.966 2.323 6.708 2.323V2.065C6.45 2.065 6.45 2.065 6.192 1.807C5.934 1.807 5.934 2.065 5.676 1.807C5.676 1.807 5.418 1.807 5.16 1.807C5.16 1.807 4.902 2.065 4.644 2.065C4.644 2.065 4.386 2.065 4.128 2.065C4.128 1.807 3.87 1.807 3.612 1.807C3.612 1.807 3.354 1.807 3.096 1.807C2.838 1.807 2.838 1.807 2.58 1.807C2.322 1.807 2.064 1.807 1.806 1.807C1.548 1.807 1.548 2.065 1.29 2.065C1.032 2.065 1.032 2.065 1.032 2.323C1.032 2.323 1.29 2.323 1.032 2.323C1.032 2.581 0.774 2.323 0.516 2.323C0.516 2.323 0.258 2.581 0.258 2.839C0.516 2.581 0.774 2.839 0.774 2.839C0.774 2.839 0.516 2.839 0.258 2.839C0.258 2.839 0 2.839 0 3.097H0ZM18.065 4.129C17.807 4.129 17.807 4.387 17.807 4.387C17.549 4.387 17.807 4.645 17.549 4.645C17.549 4.645 17.807 4.903 17.807 4.645C18.065 4.645 18.065 4.645 18.065 4.387C18.323 4.387 18.323 4.387 18.323 4.387C18.581 4.645 18.065 4.387 18.323 4.645C18.065 4.645 18.065 4.903 18.323 4.903C18.065 4.903 18.065 5.161 18.323 5.161C18.323 4.903 18.581 4.903 18.839 4.903C18.839 4.903 19.097 4.903 18.839 4.903C19.097 4.645 19.097 4.645 18.839 4.645C18.839 4.387 18.581 4.129 18.581 4.129C18.581 3.871 18.581 3.871 18.581 3.871C18.581 3.871 18.323 3.871 18.581 3.613H18.323L18.065 3.871C18.065 4.129 18.065 4.129 18.065 4.129ZM13.677 0.515996C13.161 0.257996 12.903 0.515996 12.645 0.515996C12.387 0.515996 12.387 0.257996 12.387 0.257996C11.871 0.257996 11.613 0.515996 11.355 0.515996C11.097 0.515996 11.097 0.515996 11.355 0.515996C11.355 0.773996 11.613 0.773996 11.355 0.773996L11.097 1.032C10.839 1.032 10.581 1.032 10.581 1.032C10.581 1.29 10.839 1.032 10.839 1.29C11.097 1.032 11.097 1.29 11.355 1.29C11.613 1.29 11.613 1.032 11.871 1.032C12.129 1.032 12.387 0.773996 12.387 0.773996C12.387 0.773996 12.903 0.773996 13.161 0.515996V0.773996C13.161 0.773996 12.903 0.773996 12.645 0.773996C12.645 0.773996 12.129 0.773996 12.387 1.032C12.387 1.032 12.387 1.29 12.645 1.032C12.903 1.032 13.161 1.032 13.161 1.29C13.419 1.29 13.419 1.548 13.419 1.548C13.161 1.806 13.677 1.806 13.677 1.806C13.419 1.806 13.419 1.806 13.419 2.064C13.677 2.064 13.161 2.064 13.161 2.322V2.58C13.161 2.838 13.161 3.096 13.419 3.354H13.677C13.935 3.612 13.935 3.354 13.935 3.096C14.193 3.096 14.193 3.096 14.451 2.838C14.451 2.58 14.709 2.58 14.709 2.58C14.967 2.58 15.225 2.58 15.225 2.322C15.483 2.322 15.741 2.322 15.741 2.322C15.999 2.322 16.257 2.064 16.515 2.064C16.773 1.806 16.257 1.806 16.515 1.806C16.515 2.064 16.773 2.064 16.773 1.806C16.773 1.548 16.515 1.548 16.515 1.548C16.773 1.548 17.031 1.548 17.031 1.29C17.289 1.29 17.031 1.032 17.289 1.032V0.773996H17.547C17.805 0.515996 18.063 0.515996 18.063 0.515996C17.805 0.515996 17.547 0.515996 17.289 0.515996V0.257996C17.031 0.257996 16.773 0.257996 16.515 0.257996C16.257 0.257996 15.999 0.257996 15.741 0.257996C15.483 0.257996 15.225 0.515996 14.967 0.257996C14.709 0.515996 14.451 0.257996 14.193 0.515996C13.935 0.515996 13.677 0.515996 13.677 0.515996V0.515996ZM16.516 2.323C16.516 2.323 16.516 2.581 16.774 2.581C16.774 2.323 17.032 2.581 17.29 2.581C17.29 2.323 17.548 2.581 17.29 2.839C17.29 2.839 17.032 2.839 16.774 2.839C16.774 2.839 16.258 2.839 16.516 2.839C16.258 2.839 16.516 2.581 16.516 2.581C16.258 2.581 16.258 2.323 16.516 2.323V2.323Z" fill="#1C2125"/>
<path d="M0 0H24V0.774H0V0Z" fill="#1C2125"/>
<path d="M0 23.226H24V24H0V23.226Z" fill="#1C2125"/>
<path d="M0 0H0.774V24H0V0Z" fill="#1C2125"/>
<path d="M23.226 0H24V24H23.226V0Z" fill="#1C2125"/>
</g>
<defs>
<clipPath id="clip0">
<rect width="24" height="24" fill="white"/>
</clipPath>
</defs>
</svg>
