<!-- Generated by IcoMoon.io -->
<svg version="1.1" xmlns="http://www.w3.org/2000/svg" width="24" height="24" viewBox="0 0 24 24">
<title>vis-pie</title>
<path fill="#444" d="M21.191 12.574c0-5.394-4.372-9.766-9.766-9.766-0.197 0-0.381 0.040-0.574 0.054v-0.054h-1.149v2.413c-3.893 0.563-6.894 3.88-6.894 7.928 0 4.442 3.601 8.043 8.043 8.043 2.202 0 4.174-0.914 5.625-2.35l1.722 1.201 0.707-0.965-0.135-0.093c1.501-1.715 2.421-3.951 2.421-6.41v0zM10.851 20.043c-3.808 0-6.894-3.087-6.894-6.894 0-3.415 2.487-6.229 5.745-6.778v7.727l-0.011 0.015 0.011 0.008 5.822 4.058c-1.231 1.143-2.86 1.864-4.673 1.864v0zM17.825 18.325l-6.974-4.861v-9.449c0.193-0.014 0.378-0.057 0.574-0.057 4.76 0 8.617 3.857 8.617 8.617 0 2.214-0.843 4.225-2.217 5.75v0z"></path>
<path fill="#444" d="M23.872 23.872h-23.745v-23.745h23.745v23.745zM0.894 23.106h22.213v-22.213h-22.213v22.213z"></path>
</svg>
