<svg width="24" height="24" viewBox="0 0 24 24" fill="none" xmlns="http://www.w3.org/2000/svg">
<path d="M21.1916 12.5746C21.1916 7.18059 16.8196 2.80859 11.4256 2.80859C11.2286 2.80859 11.0446 2.84859 10.8516 2.86259V2.80859H9.70259V5.22159C5.80959 5.78459 2.80859 9.10159 2.80859 13.1496C2.80859 17.5916 6.40959 21.1926 10.8516 21.1926C13.0536 21.1926 15.0256 20.2786 16.4766 18.8426L18.1986 20.0436L18.9056 19.0786L18.7706 18.9856C20.2716 17.2706 21.1916 15.0346 21.1916 12.5756V12.5746ZM10.8516 20.0436C7.04359 20.0436 3.95759 16.9566 3.95759 13.1496C3.95759 9.73459 6.44459 6.92059 9.70259 6.37159V14.0986L9.69159 14.1136L9.70259 14.1216L15.5246 18.1796C14.2936 19.3226 12.6646 20.0436 10.8516 20.0436ZM17.8256 18.3256L10.8516 13.4646V4.01559C11.0446 4.00159 11.2296 3.95859 11.4256 3.95859C16.1856 3.95859 20.0426 7.81559 20.0426 12.5756C20.0426 14.7896 19.1996 16.8006 17.8256 18.3256V18.3256Z" fill="#1C2125"/>
<path d="M23.8739 23.872H0.128906V0.126953H23.8739V23.872ZM0.895906 23.106H23.1089V0.892953H0.895906V23.106V23.106Z" fill="#1C2125"/>
</svg>
