<!-- Generated by IcoMoon.io -->
<svg version="1.1" xmlns="http://www.w3.org/2000/svg" width="24" height="24" viewBox="0 0 24 24">
<title>vis-single-value</title>
<path fill="#444" d="M6.808 13.178c0-3.179 0.618-5.556 1.853-7.131s3.063-2.362 5.482-2.362c0.833 0 1.49 0.070 1.969 0.21v1.582c-0.568-0.184-1.217-0.277-1.947-0.277-1.734 0-3.058 0.541-3.972 1.621s-1.416 2.779-1.505 5.095h0.133c0.811-1.269 2.095-1.903 3.85-1.903 1.453 0 2.598 0.439 3.435 1.317s1.256 2.069 1.256 3.574c0 1.682-0.459 3.004-1.377 3.967s-2.159 1.444-3.723 1.444c-1.675 0-3.002-0.629-3.983-1.887s-1.472-3.008-1.472-5.25v0zM12.241 18.755c1.047 0 1.861-0.33 2.44-0.99s0.868-1.613 0.868-2.86c0-1.069-0.269-1.91-0.808-2.523s-1.342-0.918-2.412-0.918c-0.664 0-1.272 0.137-1.826 0.41s-0.994 0.649-1.322 1.129c-0.328 0.479-0.492 0.977-0.492 1.494 0 0.76 0.148 1.468 0.442 2.124s0.714 1.177 1.256 1.56c0.542 0.384 1.16 0.575 1.853 0.575v0z"></path>
<path fill="#444" d="M23.958 23.872h-23.745v-23.745h23.745v23.745zM0.979 23.106h22.213v-22.213h-22.213v22.213z"></path>
</svg>
