<!-- Generated by IcoMoon.io -->
<svg version="1.1" xmlns="http://www.w3.org/2000/svg" width="24" height="24" viewBox="0 0 24 24">
<title>vis-scatter</title>
<path fill="#444" d="M14.298 7.404c0 1.269-1.029 2.298-2.298 2.298v0c-1.269 0-2.298-1.029-2.298-2.298v0c0-1.269 1.029-2.298 2.298-2.298v0c1.269 0 2.298 1.029 2.298 2.298v0 0z"></path>
<path fill="#444" d="M21.191 16.213c0 2.327-1.886 4.213-4.213 4.213v0c-2.327 0-4.213-1.886-4.213-4.213v0c0-2.327 1.886-4.213 4.213-4.213v0c2.327 0 4.213 1.886 4.213 4.213v0 0z"></path>
<path fill="#444" d="M7.404 17.745c0 0.634-0.514 1.149-1.149 1.149v0c-0.634 0-1.149-0.514-1.149-1.149v0c0-0.634 0.514-1.149 1.149-1.149v0c0.634 0 1.149 0.514 1.149 1.149v0 0z"></path>
<path fill="#444" d="M6.383 10.213c0 0.987-0.8 1.787-1.787 1.787v0c-0.987 0-1.787-0.8-1.787-1.787v0c0-0.987 0.8-1.787 1.787-1.787v0c0.987 0 1.787 0.8 1.787 1.787v0 0z"></path>
<path fill="#444" d="M23.872 23.872h-23.745v-23.745h23.745v23.745zM0.894 23.106h22.213v-22.213h-22.213v22.213z"></path>
</svg>
