<svg width="24" height="24" viewBox="0 0 24 24" fill="none" xmlns="http://www.w3.org/2000/svg">
<path d="M14.2991 7.40347C14.2991 8.67247 13.2701 9.70147 12.0011 9.70147C10.7321 9.70147 9.70312 8.67247 9.70312 7.40347C9.70312 6.13447 10.7321 5.10547 12.0011 5.10547C13.2701 5.10547 14.2991 6.13447 14.2991 7.40347Z" fill="#1C2125"/>
<path d="M21.1916 16.213C21.1916 18.54 19.3056 20.426 16.9786 20.426C14.6516 20.426 12.7656 18.54 12.7656 16.213C12.7656 13.886 14.6516 12 16.9786 12C19.3056 12 21.1916 13.886 21.1916 16.213Z" fill="#1C2125"/>
<path d="M7.40347 17.7447C7.40347 18.3787 6.88947 18.8937 6.25447 18.8937C5.62047 18.8937 5.10547 18.3797 5.10547 17.7447C5.10547 17.1107 5.61947 16.5957 6.25447 16.5957C6.88847 16.5957 7.40347 17.1097 7.40347 17.7447Z" fill="#1C2125"/>
<path d="M6.38259 10.2128C6.38259 11.1998 5.58259 11.9998 4.59559 11.9998C3.60859 11.9998 2.80859 11.1998 2.80859 10.2128C2.80859 9.22578 3.60859 8.42578 4.59559 8.42578C5.58259 8.42578 6.38259 9.22578 6.38259 10.2128V10.2128Z" fill="#1C2125"/>
<path d="M23.8739 23.872H0.128906V0.126953H23.8739V23.872ZM0.895906 23.106H23.1089V0.892953H0.895906V23.106V23.106Z" fill="#1C2125"/>
</svg>
