<svg width="24" height="24" viewBox="0 0 24 24" fill="none" xmlns="http://www.w3.org/2000/svg">
<path d="M0 0H24V3.871H0V0Z" fill="#1C2125"/>
<path d="M0 6.968H24V7.742H0V6.968Z" fill="#1C2125"/>
<path d="M0 11.097H24V11.871H0V11.097V11.097Z" fill="#1C2125"/>
<path d="M0 15.226H24V16H0V15.226V15.226Z" fill="#1C2125"/>
<path d="M0 19.355H24V20.129H0V19.355Z" fill="#1C2125"/>
<path d="M0 23.226H24V24H0V23.226Z" fill="#1C2125"/>
<path d="M0 0H0.774V24H0V0Z" fill="#1C2125"/>
<path d="M7.74194 0H8.51594V24H7.74194V0Z" fill="#1C2125"/>
<path d="M15.484 0H16.258V24H15.484V0V0Z" fill="#1C2125"/>
<path d="M23.226 0H24V24H23.226V0Z" fill="#1C2125"/>
</svg>
