<!-- Generated by IcoMoon.io -->
<svg version="1.1" xmlns="http://www.w3.org/2000/svg" width="24" height="24" viewBox="0 0 24 24">
<title>vis-table</title>
<path fill="#444" d="M0 0h24v3.871h-24v-3.871z"></path>
<path fill="#444" d="M0 6.968h24v0.774h-24v-0.774z"></path>
<path fill="#444" d="M0 11.097h24v0.774h-24v-0.774z"></path>
<path fill="#444" d="M0 15.226h24v0.774h-24v-0.774z"></path>
<path fill="#444" d="M0 19.355h24v0.774h-24v-0.774z"></path>
<path fill="#444" d="M0 23.226h24v0.774h-24v-0.774z"></path>
<path fill="#444" d="M0 0h0.774v24h-0.774v-24z"></path>
<path fill="#444" d="M7.742 0h0.774v24h-0.774v-24z"></path>
<path fill="#444" d="M15.484 0h0.774v24h-0.774v-24z"></path>
<path fill="#444" d="M23.226 0h0.774v24h-0.774v-24z"></path>
</svg>
