<!-- Generated by IcoMoon.io -->
<svg version="1.1" xmlns="http://www.w3.org/2000/svg" width="24" height="24" viewBox="0 0 24 24">
<title>web-analytics-app</title>
<path fill="#444" d="M11.461 19.422c0.085 0 0.17-0.002 0.254-0.004l0.539 1.89c-0.261 0.023-0.526 0.034-0.793 0.034-4.998 0-9.051-4.052-9.051-9.051s4.052-9.051 9.051-9.051c4.998 0 9.050 4.052 9.050 9.051 0 0.281-0.013 0.558-0.038 0.832l-1.888-0.538c0.004-0.098 0.006-0.196 0.006-0.294 0-3.938-3.192-7.131-7.13-7.131s-7.131 3.192-7.131 7.131c0 3.938 3.192 7.131 7.131 7.131zM11.461 8.781c1.678 0 3.081 1.177 3.428 2.751l1.999 0.57c-0.1-2.911-2.491-5.241-5.427-5.241-2.999 0-5.43 2.431-5.43 5.43 0 2.922 2.307 5.304 5.199 5.425l-0.572-2.007c-1.552-0.363-2.707-1.756-2.707-3.418 0-1.939 1.572-3.51 3.51-3.51zM12 12.505c-0.217-0.062-0.418 0.139-0.356 0.356l2.292 8.045c0.201 0.704 1.084 0.934 1.602 0.416l4.923-4.923c0.518-0.518 0.289-1.401-0.416-1.602l-8.045-2.292zM15.335 18.81l-1.041-3.655 3.655 1.041-2.613 2.613z"></path>
</svg>
