<svg width="24" height="24" viewBox="0 0 24 24" fill="none" xmlns="http://www.w3.org/2000/svg">
<path d="M21.0833 9.40664L13.9594 3.8178C12.6482 2.7274 11.2997 2.7274 9.91182 3.8178L2.79102 9.40664C2.27484 9.77668 2.01675 10.2524 2.01779 10.836C1.9442 11.4185 2.10071 12.0072 2.45416 12.4768C3.32897 13.5703 4.352 13.6802 5.52429 12.8043L10.0155 9.30507V20.037C10.0155 21.2767 10.6374 21.8965 11.8812 21.8965C13.1944 21.8965 13.8505 21.2767 13.8505 20.037V9.30507L18.35 12.8043C18.8237 13.1578 19.399 13.3505 19.9898 13.3537C20.5702 13.2811 21.0905 12.9608 21.417 12.4768C22.2929 11.3045 22.182 10.2815 21.0833 9.40664Z" fill="#1C2125"/>
</svg>
