<svg width="24" height="24" viewBox="0 0 24 24" fill="none" xmlns="http://www.w3.org/2000/svg">
<path fill-rule="evenodd" clip-rule="evenodd" d="M11.1257 3.46005C11.2965 3.18563 11.624 3 12 3C12.376 3 12.7035 3.18563 12.8743 3.46005L19.7071 10.2929C20.0976 10.6834 20.0976 11.3166 19.7071 11.7071C19.3166 12.0976 18.6834 12.0976 18.2929 11.7071L13 6.41421V19.1053C13 19.5994 12.5523 20 12 20C11.4477 20 11 19.5994 11 19.1053V6.41421L5.70711 11.7071C5.31658 12.0976 4.68342 12.0976 4.29289 11.7071C3.90237 11.3166 3.90237 10.6834 4.29289 10.2929L11.1257 3.46005Z" fill="#1C2125"/>
</svg>
