<svg width="24" height="24" viewBox="0 0 24 24" fill="none" xmlns="http://www.w3.org/2000/svg">
<path fill-rule="evenodd" clip-rule="evenodd" d="M14.82 3H19C20.1 3 21 3.9 21 5V19C21 20.1 20.1 21 19 21H5C4.86 21 4.73 20.99 4.6 20.97C4.21 20.89 3.86 20.69 3.59 20.42C3.41 20.23 3.26 20.02 3.16 19.78C3.06 19.54 3 19.27 3 19V5C3 4.72 3.06 4.46 3.16 4.23C3.26 3.99 3.41 3.77 3.59 3.59C3.86 3.32 4.21 3.12 4.6 3.04C4.73 3.01 4.86 3 5 3H9.18C9.6 1.84 10.7 1 12 1C13.3 1 14.4 1.84 14.82 3ZM12.75 3.5C12.75 3.09 12.41 2.75 12 2.75C11.59 2.75 11.25 3.09 11.25 3.5C11.25 3.91 11.59 4.25 12 4.25C12.41 4.25 12.75 3.91 12.75 3.5ZM5 5V19H19V5H5ZM17 9V7H7V9H17ZM7 13V11H17V13H7ZM7 15H14V17H7V15Z" fill="#1C2125"/>
</svg>
