<svg width="24" height="24" viewBox="0 0 24 24" fill="none" xmlns="http://www.w3.org/2000/svg">
<path fill-rule="evenodd" clip-rule="evenodd" d="M4 3H20C20.55 3 21 3.45 21 4V11C21 11.55 20.55 12 20 12H4C3.45 12 3 11.55 3 11V4C3 3.45 3.45 3 4 3ZM5 10H19V5H5V10ZM4 13H20C20.55 13 21 13.45 21 14V21C21 21.55 20.55 22 20 22H4C3.45 22 3 21.55 3 21V14C3 13.45 3.45 13 4 13ZM5 20H19V15H5V20ZM7.5 9C8.32843 9 9 8.32843 9 7.5C9 6.67157 8.32843 6 7.5 6C6.67157 6 6 6.67157 6 7.5C6 8.32843 6.67157 9 7.5 9ZM7.5 19C8.32843 19 9 18.3284 9 17.5C9 16.6716 8.32843 16 7.5 16C6.67157 16 6 16.6716 6 17.5C6 18.3284 6.67157 19 7.5 19Z" fill="#1C2125"/>
</svg>
