<svg width="24" height="24" viewBox="0 0 24 24" fill="none" xmlns="http://www.w3.org/2000/svg">
<path d="M6.74805 16C6.68555 15.8789 6.63086 15.6816 6.58398 15.4082C6.13086 15.8809 5.57617 16.1172 4.91992 16.1172C4.2832 16.1172 3.76367 15.9355 3.36133 15.5723C2.95898 15.209 2.75781 14.7598 2.75781 14.2246C2.75781 13.5488 3.00781 13.0312 3.50781 12.6719C4.01172 12.3086 4.73047 12.127 5.66406 12.127H6.53711V11.7109C6.53711 11.3828 6.44531 11.1211 6.26172 10.9258C6.07812 10.7266 5.79883 10.627 5.42383 10.627C5.09961 10.627 4.83398 10.709 4.62695 10.873C4.41992 11.0332 4.31641 11.2383 4.31641 11.4883H2.89258C2.89258 11.1406 3.00781 10.8164 3.23828 10.5156C3.46875 10.2109 3.78125 9.97266 4.17578 9.80078C4.57422 9.62891 5.01758 9.54297 5.50586 9.54297C6.24805 9.54297 6.83984 9.73047 7.28125 10.1055C7.72266 10.4766 7.94922 11 7.96094 11.6758V14.5352C7.96094 15.1055 8.04102 15.5605 8.20117 15.9004V16H6.74805ZM5.18359 14.9746C5.46484 14.9746 5.72852 14.9062 5.97461 14.7695C6.22461 14.6328 6.41211 14.4492 6.53711 14.2188V13.0234H5.76953C5.24219 13.0234 4.8457 13.1152 4.58008 13.2988C4.31445 13.4824 4.18164 13.7422 4.18164 14.0781C4.18164 14.3516 4.27148 14.5703 4.45117 14.7344C4.63477 14.8945 4.87891 14.9746 5.18359 14.9746Z" fill="#1C2125"/>
<path d="M15.0156 12.8945C15.0156 13.8789 14.7949 14.6621 14.3535 15.2441C13.916 15.8262 13.3125 16.1172 12.543 16.1172C11.8008 16.1172 11.2227 15.8496 10.8086 15.3145L10.7383 16H9.44922V7H10.873V10.2695C11.2832 9.78516 11.8359 9.54297 12.5312 9.54297C13.3047 9.54297 13.9121 9.83008 14.3535 10.4043C14.7949 10.9785 15.0156 11.7812 15.0156 12.8125V12.8945ZM13.5918 12.7715C13.5918 12.084 13.4707 11.5684 13.2285 11.2246C12.9863 10.8809 12.6348 10.709 12.1738 10.709C11.5566 10.709 11.123 10.9785 10.873 11.5176V14.1309C11.127 14.6816 11.5645 14.957 12.1855 14.957C12.6309 14.957 12.9746 14.791 13.2168 14.459C13.459 14.127 13.584 13.625 13.5918 12.9531V12.7715Z" fill="#1C2125"/>
<path d="M18.8184 14.9805C19.1738 14.9805 19.4688 14.877 19.7031 14.6699C19.9375 14.4629 20.0625 14.207 20.0781 13.9023H21.4199C21.4043 14.2969 21.2812 14.666 21.0508 15.0098C20.8203 15.3496 20.5078 15.6191 20.1133 15.8184C19.7188 16.0176 19.293 16.1172 18.8359 16.1172C17.9492 16.1172 17.2461 15.8301 16.7266 15.2559C16.207 14.6816 15.9473 13.8887 15.9473 12.877V12.7305C15.9473 11.7656 16.2051 10.9941 16.7207 10.416C17.2363 9.83398 17.9395 9.54297 18.8301 9.54297C19.584 9.54297 20.1973 9.76367 20.6699 10.2051C21.1465 10.6426 21.3965 11.2188 21.4199 11.9336H20.0781C20.0625 11.5703 19.9375 11.2715 19.7031 11.0371C19.4727 10.8027 19.1777 10.6855 18.8184 10.6855C18.3574 10.6855 18.002 10.8535 17.752 11.1895C17.502 11.5215 17.375 12.0273 17.3711 12.707V12.9355C17.3711 13.623 17.4941 14.1367 17.7402 14.4766C17.9902 14.8125 18.3496 14.9805 18.8184 14.9805Z" fill="#1C2125"/>
</svg>
