<svg width="24" height="24" viewBox="0 0 24 24" fill="none" xmlns="http://www.w3.org/2000/svg">
<path fill-rule="evenodd" clip-rule="evenodd" d="M4.92839 9.37227C4.72296 9.88446 4.14136 10.1335 3.62888 9.92848C3.11609 9.72336 2.86668 9.14139 3.07179 8.62861L4.00027 9C3.07179 8.62861 3.07198 8.62812 3.07219 8.62761L3.07264 8.6265L3.07367 8.62393L3.07633 8.6174L3.08399 8.59893C3.09015 8.58425 3.09842 8.56487 3.10888 8.54111C3.12978 8.4936 3.15945 8.42847 3.19841 8.34825C3.27627 8.18795 3.39169 7.96648 3.54902 7.70425C3.86285 7.18121 4.34862 6.48744 5.04316 5.79289C6.44466 4.39139 8.6881 3 12.0003 3C15.3124 3 17.5559 4.39139 18.9574 5.79289C19.6519 6.48744 20.1377 7.18121 20.4515 7.70425C20.6088 7.96648 20.7243 8.18795 20.8021 8.34825C20.8411 8.42847 20.8708 8.4936 20.8917 8.54111C20.9021 8.56487 20.9104 8.58425 20.9165 8.59893L20.9242 8.6174L20.9269 8.62393L20.9283 8.62761C20.9285 8.62812 20.9287 8.62861 20.0003 9L20.9287 8.62861C21.1339 9.14139 20.8844 9.72336 20.3717 9.92848C19.8601 10.1331 19.2796 9.88533 19.0732 9.37497C19.073 9.37428 19.0727 9.37359 19.0724 9.37289C19.0716 9.37092 19.0701 9.36747 19.0684 9.36359C19.0665 9.35914 19.064 9.35346 19.061 9.34659C19.0497 9.32085 19.0305 9.27856 19.0031 9.22206C18.9481 9.10892 18.8604 8.93977 18.7365 8.73325C18.4879 8.31879 18.0986 7.76256 17.5432 7.20711C16.4447 6.10861 14.6881 5 12.0003 5C9.31243 5 7.55587 6.10861 6.45737 7.20711C5.90192 7.76256 5.51268 8.31879 5.26401 8.73325C5.14009 8.93977 5.05238 9.10892 4.99743 9.22206C4.96999 9.27856 4.95083 9.32085 4.93951 9.34659C4.93385 9.35945 4.93017 9.36803 4.92839 9.37227ZM4.92839 9.37227C4.9275 9.37439 4.92708 9.3755 4.92715 9.37535L4.92759 9.37425L4.92839 9.37227ZM19.0732 9.37497C19.0732 9.37491 19.0733 9.37514 19.0732 9.37497V9.37497Z" fill="#1C2125"/>
<path fill-rule="evenodd" clip-rule="evenodd" d="M19.0716 14.6277C19.277 14.1155 19.8586 13.8665 20.3711 14.0715C20.8839 14.2766 21.1333 14.8586 20.9282 15.3714L19.9997 15C20.9282 15.3714 20.928 15.3719 20.9278 15.3724L20.9274 15.3735L20.9263 15.3761L20.9237 15.3826L20.916 15.4011C20.9099 15.4158 20.9016 15.4351 20.8911 15.4589C20.8702 15.5064 20.8406 15.5715 20.8016 15.6517C20.7237 15.812 20.6083 16.0335 20.451 16.2957C20.1371 16.8188 19.6514 17.5126 18.9568 18.2071C17.5553 19.6086 15.3119 21 11.9997 21C8.68757 21 6.44413 19.6086 5.04263 18.2071C4.34808 17.5126 3.86232 16.8188 3.54849 16.2957C3.39116 16.0335 3.27574 15.812 3.19788 15.6517C3.15892 15.5715 3.12925 15.5064 3.10835 15.4589C3.09789 15.4351 3.08962 15.4157 3.08346 15.4011L3.0758 15.3826L3.07314 15.3761L3.07166 15.3724C3.07145 15.3719 3.07126 15.3714 3.99974 15L3.07126 15.3714C2.86614 14.8586 3.11556 14.2766 3.62834 14.0715C4.13993 13.8669 4.72038 14.1147 4.92677 14.625C4.92705 14.6257 4.92733 14.6264 4.92761 14.6271C4.92844 14.6291 4.92992 14.6325 4.93158 14.6364C4.93349 14.6409 4.93595 14.6465 4.93897 14.6534C4.9503 14.6791 4.96946 14.7214 4.9969 14.7779C5.05185 14.8911 5.13956 15.0602 5.26348 15.2668C5.51215 15.6812 5.90138 16.2374 6.45684 16.7929C7.55534 17.8914 9.3119 19 11.9997 19C14.6876 19 16.4441 17.8914 17.5426 16.7929C18.0981 16.2374 18.4873 15.6812 18.736 15.2668C18.8599 15.0602 18.9476 14.8911 19.0026 14.7779C19.03 14.7214 19.0492 14.6791 19.0605 14.6534C19.0662 14.6406 19.0698 14.632 19.0716 14.6277ZM19.0716 14.6277C19.0725 14.6256 19.0729 14.6245 19.0729 14.6246L19.0724 14.6257L19.0716 14.6277ZM4.92677 14.625C4.92679 14.6251 4.9267 14.6249 4.92677 14.625V14.625Z" fill="#1C2125"/>
</svg>
