<svg width="24" height="24" viewBox="0 0 24 24" fill="none" xmlns="http://www.w3.org/2000/svg">
<path fill-rule="evenodd" clip-rule="evenodd" d="M16.2426 7.75714C16.491 8.00552 16.5908 8.36601 16.5056 8.70678L15.0914 14.3636C15.0019 14.7219 14.7221 15.0017 14.3638 15.0912L8.70697 16.5055C8.3662 16.5906 8.00571 16.4908 7.75733 16.2424C7.50895 15.994 7.4091 15.6336 7.4943 15.2928L8.90851 9.63592C8.99808 9.27764 9.27783 8.99789 9.63612 8.90832L15.293 7.4941C15.6337 7.40891 15.9942 7.50876 16.2426 7.75714ZM10.7032 10.7032L9.83881 14.1609L13.2965 13.2965L10.7032 10.7032Z" fill="#1C2125"/>
<path fill-rule="evenodd" clip-rule="evenodd" d="M12 22C17.5228 22 22 17.5228 22 12C22 6.47715 17.5228 2 12 2C6.47715 2 2 6.47715 2 12C2 17.5228 6.47715 22 12 22ZM12 20C16.4183 20 20 16.4183 20 12C20 7.58172 16.4183 4 12 4C7.58172 4 4 7.58172 4 12C4 16.4183 7.58172 20 12 20Z" fill="#1C2125"/>
</svg>
