<svg width="24" height="24" viewBox="0 0 24 24" fill="none" xmlns="http://www.w3.org/2000/svg">
<path d="M16.3774 6.76541C16.4031 4.16045 14.3122 2.02853 11.7072 2.00289C11.6764 2.00289 11.6457 2.00289 11.6149 2.00289C10.3457 1.97725 9.12275 2.4785 8.23691 3.38742C7.32799 4.27326 6.82674 5.49626 6.85238 6.76541V8.66913H5.90372C4.85251 8.67554 4.00256 9.52805 4 10.5793V20.0979C4 21.1491 4.85251 22.0016 5.90372 22.0016H17.3325C18.3837 22.0016 19.2362 21.1491 19.2362 20.0979V10.5793C19.2336 9.52805 18.3837 8.67554 17.3325 8.66913H16.3774V6.76541ZM14.5698 6.76541V8.66913H8.67278V6.76541C8.66252 5.98469 8.97532 5.23602 9.53811 4.69503C10.6688 3.54638 12.5161 3.531 13.6648 4.66169C13.6763 4.67323 13.6878 4.68349 13.6981 4.69503C14.2647 5.23602 14.5801 5.98853 14.5698 6.77182V6.76541ZM10.2688 13.9893C11.0137 13.2419 12.2238 13.2394 12.9725 13.9855C13.7199 14.7303 13.7225 15.9405 12.9763 16.6891C12.2315 17.4365 11.0213 17.4391 10.2727 16.693C9.91244 16.334 9.70989 15.8456 9.71117 15.3354C9.70476 14.829 9.90603 14.3418 10.2688 13.9893Z" fill="#1C2125"/>
</svg>
