<svg width="24" height="24" viewBox="0 0 24 24" fill="none" xmlns="http://www.w3.org/2000/svg">
<g clip-path="url(#clip0)">
<path d="M13.9131 11.3604C12.7481 11.3604 11.6551 11.6764 10.7141 12.2244L11.6281 13.4314C12.3101 13.0674 13.0881 12.8594 13.9141 12.8594C16.6021 12.8594 18.7891 15.0464 18.7891 17.7344C18.7891 20.4224 16.6021 22.6094 13.9141 22.6094C11.2261 22.6094 9.03906 20.4224 9.03906 17.7344C9.03906 16.4114 9.57006 15.2114 10.4291 14.3324L9.51606 13.1264C8.29906 14.2884 7.53906 15.9234 7.53906 17.7344C7.53906 21.2494 10.3991 24.1094 13.9141 24.1094C17.4291 24.1094 20.2891 21.2494 20.2891 17.7344C20.2891 14.2194 17.4291 11.3594 13.9141 11.3594L13.9131 11.3604Z" fill="#1C2125"/>
<path d="M9.78481 8.73513C9.78481 9.32413 9.58681 9.86712 9.25781 10.3051L10.1848 11.5291C10.8648 10.7931 11.2848 9.81312 11.2848 8.73412C11.2848 7.83612 10.9928 7.00612 10.5038 6.32812L9.40481 7.38013C9.64381 7.77613 9.78481 8.23812 9.78481 8.73412V8.73513Z" fill="#1C2125"/>
<path d="M7.16016 11.3613C5.71316 11.3613 4.53516 10.1833 4.53516 8.73633C4.53516 7.28933 5.71216 6.11133 7.16016 6.11133C7.56516 6.11133 7.94916 6.20633 8.29216 6.37133L9.42216 5.29033C8.77216 4.86233 7.99516 4.61133 7.16016 4.61133C4.88616 4.61133 3.03516 6.46233 3.03516 8.73633C3.03516 11.0103 4.88616 12.8613 7.16016 12.8613C7.81516 12.8613 8.43316 12.7033 8.98416 12.4303L8.05416 11.2013C7.77416 11.3033 7.47416 11.3613 7.16016 11.3613Z" fill="#1C2125"/>
<path d="M11.2852 3.11133C11.2852 2.28433 11.9582 1.61133 12.7852 1.61133C13.6122 1.61133 14.2852 2.28433 14.2852 3.11133C14.2852 3.93833 13.6122 4.61133 12.7852 4.61133C12.6392 4.61133 12.4992 4.58933 12.3652 4.55033L11.2072 5.65833C11.6662 5.94333 12.2062 6.11133 12.7852 6.11133C14.4392 6.11133 15.7852 4.76533 15.7852 3.11133C15.7852 1.45733 14.4392 0.111328 12.7852 0.111328C11.1312 0.111328 9.78516 1.45733 9.78516 3.11133C9.78516 3.64333 9.92616 4.14233 10.1692 4.57533L11.3292 3.46533C11.3012 3.35133 11.2852 3.23333 11.2852 3.11033V3.11133Z" fill="#1C2125"/>
<path d="M10.1844 11.5303C9.84337 11.8993 9.43738 12.2043 8.98438 12.4293L9.51237 13.1263C9.87437 12.7813 10.2764 12.4783 10.7114 12.2243L10.1854 11.5293L10.1844 11.5303Z" fill="#1C2125"/>
<path d="M10.5039 6.33022L11.2069 5.65722C10.7759 5.38922 10.4179 5.01722 10.1689 4.57422L9.42188 5.28922C9.84387 5.56722 10.2099 5.92022 10.5049 6.33022H10.5039Z" fill="#1C2125"/>
<path d="M11.6247 13.4336L10.7107 12.2266C10.2757 12.4796 9.87372 12.7826 9.51172 13.1286L10.4247 14.3346C10.7747 13.9766 11.1787 13.6716 11.6237 13.4336H11.6247Z" fill="#1C2125"/>
<path d="M9.40697 7.38106L10.506 6.32906C10.211 5.92006 9.84497 5.56706 9.42297 5.28906L8.29297 6.37006C8.75497 6.59206 9.14197 6.94506 9.40597 7.38106H9.40697Z" fill="#1C2125"/>
<path d="M10.1857 11.5306L9.25869 10.3066C8.95469 10.7116 8.53869 11.0246 8.05469 11.2006L8.98469 12.4296C9.43869 12.2046 9.84469 11.8986 10.1857 11.5306V11.5306Z" fill="#1C2125"/>
<path d="M11.2099 5.6588L12.3679 4.5508C11.8559 4.4018 11.4589 3.9868 11.3319 3.4668L10.1719 4.5768C10.4209 5.0198 10.7799 5.3918 11.2099 5.6598V5.6588Z" fill="#1C2125"/>
</g>
<defs>
<clipPath id="clip0">
<rect width="24" height="24" fill="white"/>
</clipPath>
</defs>
</svg>
