<svg width="24" height="24" viewBox="0 0 24 24" fill="none" xmlns="http://www.w3.org/2000/svg">
<g clip-path="url(#clip0)">
<path d="M13.5942 11.467C12.6234 11.467 11.7126 11.7303 10.9284 12.187L11.6901 13.1928C12.2584 12.8895 12.9067 12.7161 13.5951 12.7161C15.8351 12.7161 17.6576 14.5386 17.6576 16.7786C17.6576 19.0186 15.8351 20.8411 13.5951 20.8411C11.3551 20.8411 9.53256 19.0186 9.53256 16.7786C9.53256 15.6761 9.97506 14.6761 10.6909 13.9436L9.93006 12.9386C8.9159 13.907 8.28256 15.2695 8.28256 16.7786C8.28256 19.7078 10.6659 22.0911 13.5951 22.0911C16.5242 22.0911 18.9076 19.7078 18.9076 16.7786C18.9076 13.8495 16.5242 11.4661 13.5951 11.4661L13.5942 11.467Z" fill="#1C2125"/>
<path d="M10.1548 9.28006C10.1548 9.7709 9.98983 10.2234 9.71567 10.5884L10.4882 11.6084C11.0548 10.9951 11.4048 10.1784 11.4048 9.27923C11.4048 8.5309 11.1615 7.83923 10.754 7.27423L9.83817 8.1509C10.0373 8.4809 10.1548 8.8659 10.1548 9.27923V9.28006Z" fill="#1C2125"/>
<path d="M7.96762 11.4676C6.76179 11.4676 5.78012 10.4859 5.78012 9.28009C5.78012 8.07426 6.76095 7.09259 7.96762 7.09259C8.30512 7.09259 8.62512 7.17176 8.91095 7.30926L9.85262 6.40842C9.31095 6.05176 8.66345 5.84259 7.96762 5.84259C6.07262 5.84259 4.53012 7.38509 4.53012 9.28009C4.53012 11.1751 6.07262 12.7176 7.96762 12.7176C8.51345 12.7176 9.02845 12.5859 9.48762 12.3584L8.71262 11.3343C8.47929 11.4193 8.22929 11.4676 7.96762 11.4676Z" fill="#1C2125"/>
<path d="M11.4051 4.59259C11.4051 3.90342 11.966 3.34259 12.6551 3.34259C13.3443 3.34259 13.9051 3.90342 13.9051 4.59259C13.9051 5.28176 13.3443 5.84259 12.6551 5.84259C12.5335 5.84259 12.4168 5.82426 12.3051 5.79176L11.3401 6.71509C11.7226 6.95259 12.1726 7.09259 12.6551 7.09259C14.0335 7.09259 15.1551 5.97092 15.1551 4.59259C15.1551 3.21426 14.0335 2.09259 12.6551 2.09259C11.2768 2.09259 10.1551 3.21426 10.1551 4.59259C10.1551 5.03592 10.2726 5.45176 10.4751 5.81259L11.4418 4.88759C11.4185 4.79259 11.4051 4.69426 11.4051 4.59176V4.59259Z" fill="#1C2125"/>
<path d="M10.487 11.6086C10.2028 11.9161 9.86447 12.1702 9.48697 12.3577L9.92697 12.9386C10.2286 12.6511 10.5636 12.3986 10.9261 12.1869L10.4878 11.6077L10.487 11.6086Z" fill="#1C2125"/>
<path d="M10.7541 7.27498L11.3399 6.71415C10.9807 6.49081 10.6824 6.18081 10.4749 5.81165L9.85239 6.40748C10.2041 6.63915 10.5091 6.93331 10.7549 7.27498H10.7541Z" fill="#1C2125"/>
<path d="M11.6877 13.1942L10.926 12.1884C10.5635 12.3992 10.2285 12.6517 9.92685 12.9401L10.6877 13.9451C10.9793 13.6467 11.316 13.3926 11.6868 13.1942H11.6877Z" fill="#1C2125"/>
<path d="M9.83834 8.15172L10.7542 7.27505C10.5083 6.93422 10.2033 6.64005 9.85167 6.40839L8.91 7.30922C9.295 7.49422 9.6175 7.78839 9.8375 8.15172H9.83834Z" fill="#1C2125"/>
<path d="M10.4885 11.6083L9.71598 10.5883C9.46265 10.9258 9.11598 11.1866 8.71265 11.3333L9.48765 12.3574C9.86598 12.1699 10.2043 11.9149 10.4885 11.6083Z" fill="#1C2125"/>
<path d="M11.3416 6.71564L12.3066 5.79231C11.8799 5.66814 11.5491 5.32231 11.4432 4.88898L10.4766 5.81398C10.6841 6.18314 10.9832 6.49314 11.3416 6.71648V6.71564Z" fill="#1C2125"/>
</g>
<defs>
<clipPath id="clip0">
<rect width="20" height="20" fill="white" transform="translate(2 2)"/>
</clipPath>
</defs>
</svg>
