<svg width="24" height="24" viewBox="0 0 24 24" fill="none" xmlns="http://www.w3.org/2000/svg">
<g clip-path="url(#clip0)">
<path d="M21.511 5.369C20.99 4.659 20.265 3.829 19.468 3.032C18.671 2.235 17.841 1.509 17.131 0.989C15.922 0.103 15.336 0 15 0H3.375C2.341 0 1.5 0.841 1.5 1.875V22.125C1.5 23.159 2.341 24 3.375 24H20.625C21.659 24 22.5 23.159 22.5 22.125V7.5C22.5 7.164 22.398 6.578 21.511 5.369ZM18.407 4.093C19.127 4.813 19.691 5.462 20.108 6H16.5V2.392C17.039 2.809 17.688 3.374 18.407 4.093ZM21 22.125C21 22.328 20.828 22.5 20.625 22.5H3.375C3.172 22.5 3 22.328 3 22.125V1.875C3 1.672 3.172 1.5 3.375 1.5C3.375 1.5 14.999 1.5 15 1.5V6.75C15 7.164 15.336 7.5 15.75 7.5H21V22.125Z" fill="#1C2125"/>
</g>
<defs>
<clipPath id="clip0">
<rect width="24" height="24" fill="white"/>
</clipPath>
</defs>
</svg>
