<svg width="24" height="24" viewBox="0 0 24 24" fill="none" xmlns="http://www.w3.org/2000/svg">
<path d="M12.125 21.5C13.2422 21.5 14.1562 20.6 14.1562 19.5H10.0937C10.0937 20.6 11.0078 21.5 12.125 21.5ZM18.2187 15.5V10.5C18.2187 7.43 16.5633 4.86 13.6484 4.18V3.5C13.6484 2.67 12.968 2 12.125 2C11.282 2 10.6016 2.67 10.6016 3.5V4.18C7.69688 4.86 6.03125 7.42 6.03125 10.5V15.5L4 17.5V18.5H20.25V17.5L18.2187 15.5ZM16.1875 16.5H8.0625V10.5C8.0625 8.02 9.59609 6 12.125 6C14.6539 6 16.1875 8.02 16.1875 10.5V16.5Z" fill="#1C2125"/>
</svg>
