<svg width="25" height="24" viewBox="0 0 25 24" fill="none" xmlns="http://www.w3.org/2000/svg">
<path d="M18.1367 15.75V10.75C18.1367 7.68 16.4967 5.11 13.6367 4.43V3.75C13.6367 2.92 12.9567 2.25 12.1267 2.25C11.2967 2.25 10.6367 2.92 10.6367 3.75V4.43C7.7667 5.11 6.1367 7.67 6.1367 10.75V15.75L4.8367 17.04C4.2067 17.67 4.6467 18.75 5.5367 18.75H18.7067C19.5967 18.75 20.0467 17.67 19.4167 17.04L18.1367 15.75ZM12.1267 21.75C13.2267 21.75 14.1267 20.85 14.1267 19.75H10.1267C10.1267 20.85 11.0167 21.75 12.1267 21.75ZM6.9067 4.48C7.3267 4.1 7.3367 3.45 6.9367 3.05C6.5567 2.67 5.9367 2.66 5.5467 3.03C3.8367 4.59 2.6567 6.71 2.2767 9.09C2.1867 9.7 2.6567 10.25 3.2767 10.25C3.7567 10.25 4.1767 9.9 4.2567 9.42C4.5567 7.48 5.5167 5.75 6.9067 4.48V4.48ZM18.7367 3.03C18.3367 2.66 17.7167 2.67 17.3367 3.05C16.9367 3.45 16.9567 4.09 17.3667 4.47C18.7467 5.74 19.7167 7.47 20.0167 9.41C20.0867 9.89 20.5067 10.24 20.9967 10.24C21.6067 10.24 22.0867 9.69 21.9867 9.08C21.6067 6.71 20.4367 4.6 18.7367 3.03V3.03Z" fill="#1C2125"/>
</svg>
