<svg width="24" height="24" viewBox="0 0 24 24" fill="none" xmlns="http://www.w3.org/2000/svg">
<g clip-path="url(#clip0)">
<path d="M8.25 7.50295H14.25C14.663 7.50295 15 7.16695 15 6.75295C15 6.33895 14.663 6.00295 14.25 6.00295H8.25C7.836 6.00295 7.5 6.33895 7.5 6.75295C7.5 7.16695 7.836 7.50295 8.25 7.50295ZM3 4.50295C2.172 4.50295 1.5 5.17295 1.5 6.00295V22.501C1.5 23.331 2.172 24.003 3 24.003H19.5C20.33 24.003 21 23.331 21 22.502H3V4.50395V4.50295ZM18.75 10.503H8.25C7.836 10.503 7.5 10.839 7.5 11.253C7.5 11.666 7.836 12.003 8.25 12.003H18.75C19.163 12.003 19.5 11.665 19.5 11.253C19.5 10.839 19.163 10.503 18.75 10.503ZM18.75 15.003H8.25C7.836 15.003 7.5 15.339 7.5 15.753C7.5 16.166 7.836 16.503 8.25 16.503H18.75C19.163 16.503 19.5 16.166 19.5 15.753C19.5 15.339 19.163 15.003 18.75 15.003V15.003ZM21 1.50195H6C5.172 1.50195 4.5 2.17195 4.5 3.00195V19.502C4.5 20.33 5.172 21.002 6 21.002H21C21.83 21.002 22.5 20.33 22.5 19.502V3.00195C22.5 2.17295 21.83 1.50195 21 1.50195V1.50195ZM21 18.753C21 19.166 20.663 19.503 20.25 19.503H6.75C6.336 19.503 6 19.166 6 18.753V3.75295C6 3.33895 6.336 3.00295 6.75 3.00295H20.25C20.663 3.00295 21 3.33895 21 3.75295V18.753Z" fill="#1C2125"/>
</g>
<defs>
<clipPath id="clip0">
<rect width="24" height="24" fill="white"/>
</clipPath>
</defs>
</svg>
