<svg width="24" height="24" viewBox="0 0 24 24" fill="none" xmlns="http://www.w3.org/2000/svg">
<path d="M14.8987 8.91139V10.4304H18.4747V20.481H6.51899V10.4304H10.0949V8.91139H6.47468C5.49114 8.91139 5 9.40253 5 10.3861V20.557C5 20.5658 5 20.5734 5 20.5823C5.02152 21.5278 5.51266 22 6.47468 22H18.519C19.481 22 19.9722 21.5278 19.9937 20.5823C19.9937 20.5734 19.9937 20.5658 19.9937 20.557V10.3861C19.9937 9.40253 19.5025 8.91139 18.519 8.91139H14.8987ZM11.9051 2.22152L8.38608 5.74684L9.4557 6.82278L11.6835 4.59494V13.6519H13.2025V4.59494L15.4241 6.82278L16.5 5.74684L12.981 2.22152C12.8329 2.07342 12.6544 2 12.443 2C12.2316 2 12.0532 2.07342 11.9051 2.22152Z" fill="#1C2125"/>
</svg>
