<svg width="24" height="24" viewBox="0 0 24 24" fill="none" xmlns="http://www.w3.org/2000/svg">
<path d="M2.53181 19.65L3.87181 20.21V11.18L1.44181 17.04C1.03181 18.06 1.52181 19.23 2.53181 19.65V19.65ZM22.0318 15.95L17.0718 3.98C16.7618 3.23 16.0318 2.77 15.2618 2.75C15.0018 2.75 14.7318 2.79 14.4718 2.9L7.10181 5.95C6.35181 6.26 5.89181 6.98 5.87181 7.75C5.86181 8.02 5.91181 8.29 6.02181 8.55L10.9818 20.52C11.2918 21.28 12.0318 21.74 12.8118 21.75C13.0718 21.75 13.3318 21.7 13.5818 21.6L20.9418 18.55C21.9618 18.13 22.4518 16.96 22.0318 15.95V15.95ZM7.88181 8.75C7.33181 8.75 6.88181 8.3 6.88181 7.75C6.88181 7.2 7.33181 6.75 7.88181 6.75C8.43181 6.75 8.88181 7.2 8.88181 7.75C8.88181 8.3 8.43181 8.75 7.88181 8.75V8.75ZM5.88181 19.75C5.88181 20.85 6.78181 21.75 7.88181 21.75H9.33181L5.88181 13.41V19.75Z" fill="#1C2125"/>
</svg>
