<svg width="24" height="24" viewBox="0 0 24 24" fill="none" xmlns="http://www.w3.org/2000/svg">
<path d="M12 14H14V16H12V14Z" fill="#1C2125"/>
<path d="M16 14H24V16H16V14Z" fill="#1C2125"/>
<path d="M12 18H14V20H12V18Z" fill="#1C2125"/>
<path d="M16 18H24V20H16V18Z" fill="#1C2125"/>
<path d="M12 22H14V24H12V22Z" fill="#1C2125"/>
<path d="M16 22H24V24H16V22Z" fill="#1C2125"/>
<path d="M5.22326 14.7458C2.15126 15.2758 2.17926 15.2698 1.80926 15.6188C0.525257 16.8298 0.153258 19.4488 1.24226 20.9918L1.29926 21.0728L1.37526 21.1358C1.59726 21.3208 2.03126 21.4318 2.97426 21.5338C4.33226 21.6798 6.54026 21.7668 9.80026 21.7668V20.2668C6.58926 20.2668 4.43126 20.1818 3.13426 20.0428C2.78226 20.0048 2.52326 19.9658 2.34826 19.9288C1.86226 18.9768 2.13126 17.3768 2.83826 16.7098C2.78126 16.7638 2.82826 16.7428 2.91126 16.7188C3.06226 16.6738 3.27426 16.6238 3.54826 16.5678C3.79226 16.5178 4.07726 16.4658 4.44826 16.4008C4.66426 16.3628 5.45026 16.2288 5.47626 16.2238C6.65526 16.0208 7.34026 15.8838 7.88226 15.7268C8.27726 15.6128 8.56026 15.4958 8.77026 15.3338C9.26326 14.9528 9.30626 14.2818 8.79326 13.8678C6.91426 12.3488 5.69026 10.1178 5.69026 7.92578C5.69026 4.22578 6.89626 2.55078 10.3443 2.55078C13.7923 2.55078 14.9983 4.22478 14.9983 7.92578C14.9983 8.83878 14.6973 9.86878 14.1523 10.9208L15.4843 11.6108C16.1313 10.3608 16.4983 9.10578 16.4983 7.92578C16.4983 3.48278 14.7473 1.05078 10.3443 1.05078C5.94126 1.05078 4.19026 3.48278 4.19026 7.92578C4.19026 10.2948 5.32326 12.6348 7.11326 14.3798C6.67526 14.4858 6.08826 14.5968 5.22226 14.7468L5.22326 14.7458Z" fill="#1C2125"/>
</svg>
