<svg width="24" height="24" viewBox="0 0 24 24" fill="none" xmlns="http://www.w3.org/2000/svg">
<g clip-path="url(#clip0)">
<path d="M22.7908 17.957C22.1578 17.354 16.4098 16.05 15.3058 15.802C17.8988 14.375 19.5048 10.916 19.5048 7.65795C19.5048 3.42895 18.2778 0.00195312 12.7498 0.00195312C7.22376 0.00195312 5.99476 3.42995 5.99476 7.65795C5.99476 10.928 7.61176 14.398 10.2218 15.815C8.95576 16.094 3.37276 17.344 2.72376 17.957C1.55976 19.055 0.972757 21.803 2.13676 23.452C2.13676 23.452 3.55076 24.002 12.7958 24.002C22.0418 24.002 23.3678 23.452 23.3678 23.452C24.5258 21.804 23.9458 19.055 22.7898 17.957H22.7908ZM21.7508 22.501L12.6488 22.478C12.6488 22.478 3.75376 22.501 3.75076 22.501C2.10676 21.867 2.94076 19.283 4.03776 18.753C4.94076 18.315 9.13476 17.136 10.7678 16.683L11.0678 15.204V14.574C8.84876 13.505 7.50076 10.456 7.50076 7.68595C7.50076 4.26895 8.37576 1.49695 12.7478 1.49695C17.1218 1.49695 17.9948 4.26895 17.9948 7.68595C17.9948 10.457 16.6508 13.505 14.4298 14.574V15.204L14.7518 16.779C16.7708 17.285 20.9078 18.344 21.7508 18.753C22.8438 19.282 23.1918 21.954 21.7508 22.501Z" fill="#1C2125"/>
</g>
<defs>
<clipPath id="clip0">
<rect width="24" height="24" fill="white"/>
</clipPath>
</defs>
</svg>
