<svg width="24" height="24" viewBox="0 0 24 24" fill="none" xmlns="http://www.w3.org/2000/svg">
<g clip-path="url(#clip0)">
<path d="M24 2.06481V9.03281C23.742 8.77481 23.742 8.77481 23.742 8.51681C23.742 8.77481 23.484 8.77481 23.484 8.51681C23.484 8.77481 23.742 9.03281 23.742 9.03281C23.742 9.29081 24 9.54881 24 9.54881V16.5168C24 16.5168 24 16.5168 23.742 16.7748C23.742 16.7748 24 17.0328 23.742 17.2908C23.742 17.5488 23.742 17.5488 23.484 17.5488C23.484 17.8068 23.484 18.0648 23.484 18.0648C23.484 18.3228 23.226 18.3228 23.226 18.3228C22.968 18.5808 22.968 18.8388 22.71 18.8388C22.71 19.0968 22.452 19.0968 22.194 19.0968C22.194 19.0968 21.936 19.0968 21.678 19.0968C21.42 19.3548 21.162 19.0968 21.162 18.8388C21.42 18.8388 21.162 18.5808 21.162 18.5808C21.162 18.3228 20.904 18.0648 20.904 18.0648C20.904 17.8068 20.904 17.5488 20.904 17.5488C20.904 17.2908 20.646 17.0328 20.646 17.0328C20.646 16.7748 20.388 16.5168 20.388 16.5168C20.388 16.2588 20.388 16.0008 20.388 16.0008C20.388 15.7428 20.646 15.4848 20.646 15.4848C20.646 15.2268 20.646 14.9688 20.646 14.9688C20.646 14.7108 20.388 14.4528 20.388 14.1948C20.388 13.9368 20.13 13.9368 20.13 13.6788C20.13 13.4208 20.13 12.9048 20.13 12.6468H19.614L19.356 12.3888C19.356 12.3888 19.098 12.3888 18.84 12.3888C18.582 12.3888 18.324 12.6468 18.324 12.6468C18.066 12.3888 17.808 12.6468 17.55 12.6468C17.292 12.6468 17.292 12.3888 17.034 12.3888C17.034 12.1308 16.776 12.1308 16.776 11.8728L16.518 11.6148C16.26 11.3568 16.002 11.3568 16.26 11.0988C16.26 10.8408 16.002 10.8408 16.26 10.8408C16.26 10.5828 16.26 10.3248 16.26 10.0668V9.80881C16.26 9.55081 16.518 9.29281 16.518 9.03481L16.776 8.77681C16.776 8.51881 17.034 8.51881 17.292 8.51881C17.292 8.26081 17.292 8.00281 17.55 8.00281C17.55 7.74481 17.808 7.74481 17.808 7.48681C18.066 7.22881 18.066 7.48681 18.324 7.48681C18.324 7.48681 18.582 7.48681 18.84 7.22881C18.84 7.22881 19.098 7.22881 19.356 7.22881C19.356 6.97081 19.614 7.22881 19.614 7.22881C19.872 7.22881 20.13 6.97081 20.13 6.97081C20.388 6.97081 20.388 7.22881 20.388 7.22881C20.388 7.48681 20.388 7.48681 20.13 7.74481C20.388 7.74481 20.388 7.74481 20.646 7.74481C20.904 7.74481 20.904 8.00281 20.904 8.00281C21.162 8.00281 21.42 8.26081 21.42 8.26081C21.42 8.00281 21.42 7.74481 21.678 7.74481C21.936 7.74481 21.936 7.74481 22.194 8.00281C22.194 8.00281 22.452 8.00281 22.71 8.00281C22.968 8.26081 22.968 8.00281 23.226 8.00281C23.484 8.26081 23.742 8.00281 23.742 7.74481C23.742 7.74481 23.742 7.48681 23.742 7.22881C23.742 7.22881 23.742 7.22881 23.484 7.22881C23.484 7.48681 23.226 7.22881 22.968 7.22881H22.71C22.452 7.22881 22.452 6.97081 22.452 6.97081C22.452 6.97081 22.194 6.71281 22.452 6.45481H22.194C21.936 6.45481 21.936 6.71281 21.936 6.71281C22.194 6.97081 21.936 6.97081 21.936 6.97081C21.936 6.97081 22.194 7.22881 21.936 7.22881C21.678 7.22881 21.678 6.97081 21.678 6.97081C21.42 6.71281 21.42 6.45481 21.42 6.45481C21.42 6.19681 21.162 6.19681 20.904 5.93881L20.646 5.68081C20.388 5.93881 20.646 5.93881 20.646 6.19681C20.904 6.19681 20.904 6.45481 21.162 6.45481C21.42 6.45481 21.42 6.71281 21.162 6.71281C21.162 6.45481 21.162 6.71281 21.162 6.71281C21.162 6.97081 20.904 6.97081 20.904 6.97081C20.904 7.22881 20.646 6.97081 20.646 6.97081C20.388 6.97081 20.646 6.97081 20.646 6.97081C20.904 6.97081 21.162 6.71281 20.904 6.71281C20.646 6.45481 20.646 6.45481 20.388 6.19681C20.13 6.19681 20.13 5.93881 20.13 5.93881C19.872 5.93881 19.614 6.19681 19.356 6.19681C19.098 5.93881 19.356 6.45481 19.098 6.45481C18.84 6.45481 18.84 6.71281 18.84 6.71281L18.582 7.22881C18.324 7.22881 18.066 7.22881 17.808 7.22881C17.808 6.97081 17.55 7.22881 17.55 6.97081V6.71281C17.55 6.45481 17.55 6.19681 17.55 6.19681C17.808 5.93881 18.066 5.93881 18.066 5.93881C18.324 5.93881 18.582 6.19681 18.582 5.93881C18.84 5.68081 18.582 5.42281 18.324 5.42281C18.066 5.16481 18.324 5.16481 18.582 5.16481C18.582 5.16481 18.582 5.16481 18.582 4.90681C18.84 5.16481 18.84 4.90681 19.098 4.90681C19.098 4.64881 19.356 4.64881 19.356 4.64881C19.356 4.39081 19.614 4.39081 19.872 4.39081C19.872 4.39081 20.13 4.13281 19.872 4.13281C19.872 3.87481 20.13 3.61681 20.13 3.87481C20.13 3.87481 20.13 4.13281 20.388 4.39081C20.388 4.39081 20.13 4.13281 20.388 4.13281C20.13 3.87481 20.646 4.13281 20.388 3.87481C20.388 3.87481 20.388 3.61681 20.13 3.61681H19.872C19.614 3.61681 19.614 3.35881 19.614 3.35881C19.356 3.10081 19.614 3.10081 19.872 2.84281C20.13 2.84281 20.13 2.84281 20.388 2.58481C20.388 2.32681 20.646 2.32681 20.904 2.06881L21.162 1.81081C21.42 1.81081 21.678 1.81081 21.678 1.81081C21.936 1.81081 22.194 1.81081 22.452 1.81081C22.452 1.81081 22.452 1.81081 22.71 1.81081C22.968 2.06881 23.226 2.06881 23.484 2.06881C23.484 2.06881 23.742 2.32681 23.484 2.58481C23.226 2.58481 22.968 2.58481 22.968 2.32681C22.968 2.58481 22.968 2.84281 23.226 2.84281C23.226 2.84281 22.968 2.58481 23.226 2.58481C23.226 2.58481 23.484 2.84281 23.484 2.58481L23.742 2.32681V2.06881H24V2.06481ZM0 3.09681V3.61281V3.87081L0.258 3.61281C0.516 3.61281 0.774 3.35481 1.032 3.35481C1.032 3.35481 1.29 3.35481 1.032 3.35481C0.774 3.61281 1.032 3.61281 1.032 3.61281C1.29 3.35481 1.548 3.35481 1.548 3.35481C1.806 3.09681 1.806 3.35481 2.064 3.35481C2.322 3.35481 2.322 3.35481 2.58 3.61281C2.58 3.61281 2.838 3.61281 2.58 3.87081C2.838 3.87081 2.838 4.12881 2.838 4.12881C2.58 4.38681 2.838 4.38681 2.58 4.64481C2.58 4.90281 2.838 4.90281 2.838 5.16081C3.096 5.41881 2.838 4.90281 2.838 4.90281C2.58 4.90281 2.322 4.90281 2.58 5.16081C2.838 5.16081 2.58 5.41881 2.58 5.67681C2.322 5.93481 2.322 5.93481 2.064 6.19281C2.064 6.45081 2.064 6.45081 1.806 6.45081C1.806 6.70881 2.064 6.96681 1.806 7.22481C1.806 7.48281 1.806 7.74081 2.064 7.74081C2.322 7.74081 2.322 7.99881 2.322 7.99881V8.51481C2.064 8.77281 2.322 9.03081 2.58 9.03081C2.58 9.03081 2.58 9.28881 2.838 9.28881C2.838 9.28881 2.838 9.54681 2.838 9.28881C2.838 9.28881 2.838 9.03081 2.58 8.77281C2.58 8.51481 2.322 8.25681 2.58 7.99881L2.838 8.25681C2.58 8.51481 2.838 8.77281 3.096 8.77281C3.096 9.03081 3.096 9.03081 3.096 9.28881C3.354 9.28881 3.354 9.54681 3.354 9.54681C3.354 9.80481 3.354 10.0628 3.612 10.0628C3.612 10.3208 3.87 10.3208 4.128 10.5788C4.386 10.5788 4.386 10.8368 4.644 10.8368C4.902 10.5788 4.902 10.5788 5.16 10.8368L5.418 11.0948C5.676 11.0948 5.934 11.0948 5.934 11.3528C5.934 11.6108 6.192 11.3528 6.192 11.3528C5.934 11.3528 5.934 11.8688 6.192 11.8688C6.45 11.8688 6.45 12.1268 6.708 12.1268C6.708 12.1268 6.966 12.1268 6.966 11.8688C6.966 11.8688 7.224 11.8688 7.224 12.1268C7.224 12.3848 7.224 12.6428 7.224 12.6428C7.224 12.6428 6.966 12.9008 6.966 13.1588C6.708 13.1588 6.708 13.4168 6.708 13.6748V13.9328C6.708 13.9328 6.708 14.1908 6.708 14.4488C6.708 14.4488 6.966 14.4488 6.966 14.7068C6.966 14.9648 7.224 14.9648 7.224 15.2228C7.224 15.4808 7.482 15.7388 7.74 15.9968C7.74 15.9968 7.998 15.9968 7.998 16.2548C8.256 16.2548 8.514 16.5128 8.514 16.5128C8.514 17.0288 8.514 17.2868 8.514 17.5448C8.514 17.8028 8.514 18.0608 8.514 18.0608V18.5768C8.772 18.8348 8.772 19.0928 8.772 19.3508C8.772 19.3508 8.514 19.6088 8.772 19.8668C8.772 19.8668 8.772 20.1248 8.772 20.3828C9.03 20.3828 9.03 20.6408 9.03 20.8988C9.03 21.1568 9.288 21.4148 9.288 21.6728C9.288 21.6728 9.546 21.9308 9.546 22.1888C9.546 22.1888 9.804 22.4468 10.062 22.1888V22.4468C10.32 22.7048 10.32 22.4468 10.578 22.7048C10.578 22.7048 11.094 22.4468 10.836 22.4468C10.578 22.4468 10.32 22.4468 10.32 22.1888C10.32 21.9308 10.062 21.9308 10.062 21.6728C10.062 21.4148 10.32 21.4148 10.32 21.1568C10.062 21.1568 9.804 21.1568 10.062 20.8988C10.32 20.8988 10.062 20.6408 10.32 20.6408C10.32 20.3828 10.062 20.6408 10.062 20.3828C10.062 20.1248 10.32 20.3828 10.32 20.3828C10.578 20.1248 10.062 19.8668 10.32 19.8668C10.578 19.8668 10.836 19.8668 10.836 19.6088C11.094 19.6088 10.836 19.3508 10.836 19.3508C10.578 19.3508 10.578 19.0928 10.836 19.0928C10.836 19.3508 11.094 19.3508 11.352 19.0928C11.352 18.8348 11.352 18.5768 11.61 18.5768C11.61 18.5768 11.61 18.3188 11.868 18.3188C11.868 18.0608 11.61 17.8028 11.868 17.5448C11.868 17.5448 12.126 17.5448 12.384 17.2868C12.384 17.2868 12.642 17.2868 12.9 17.0288C12.9 16.7708 12.9 16.7708 12.9 16.5128C13.158 16.2548 12.9 15.9968 12.9 15.7388C12.9 15.4808 13.158 15.4808 13.158 15.2228C13.158 14.9648 13.674 14.7068 13.416 14.1908C13.416 14.1908 13.158 14.1908 12.9 13.9328C12.9 13.9328 12.642 13.9328 12.384 13.9328C12.384 13.6748 12.126 13.6748 12.126 13.6748C12.126 13.6748 11.868 13.4168 11.61 13.4168C11.61 13.4168 11.352 13.4168 11.352 13.1588C11.352 12.9008 11.094 12.9008 11.094 12.6428C11.094 12.6428 10.836 12.3848 10.578 12.3848C10.578 12.3848 10.32 12.3848 10.062 12.1268C10.062 12.1268 10.062 11.8688 9.804 11.8688C9.804 11.8688 9.804 11.6108 9.546 11.6108C9.804 11.6108 9.804 11.3528 9.546 11.6108C9.288 11.3528 9.03 11.6108 9.03 11.6108C8.772 11.6108 8.772 11.6108 8.514 11.3528C8.514 11.3528 8.514 11.3528 8.256 11.3528C8.256 11.3528 7.998 11.6108 8.256 11.3528C8.256 11.3528 8.256 11.0948 7.998 11.3528C7.998 11.3528 7.74 11.3528 7.482 11.6108C7.482 11.8688 7.224 12.1268 7.224 11.8688C6.966 11.6108 6.966 11.8688 6.708 11.8688C6.45 11.6108 6.45 11.6108 6.45 11.3528C6.45 11.0948 6.45 11.0948 6.45 10.8368C6.45 10.5788 6.192 10.5788 5.934 10.5788C5.934 10.8368 5.676 10.5788 5.934 10.5788C5.934 10.3208 5.934 10.3208 5.934 10.0628L6.192 9.80481C5.934 9.54681 5.676 9.80481 5.676 9.80481C5.676 10.0628 5.418 10.3208 5.16 10.3208C5.16 10.3208 4.902 10.3208 4.902 10.0628C4.644 10.0628 4.644 9.80481 4.644 9.54681C4.644 9.28881 4.902 9.03081 4.902 8.77281C4.902 8.51481 5.16 8.51481 5.418 8.51481C5.418 8.25681 5.676 8.51481 5.934 8.51481C6.192 8.51481 5.934 8.25681 6.192 8.25681C6.45 8.25681 6.45 8.25681 6.708 8.51481C6.966 8.25681 6.966 8.51481 6.966 8.77281C6.966 8.77281 6.966 9.03081 7.224 9.03081C7.224 9.03081 7.224 8.77281 7.224 8.51481C7.224 8.51481 7.224 8.25681 7.224 7.99881C7.482 7.99881 7.482 7.74081 7.74 7.74081L7.998 7.48281C8.256 7.22481 8.256 7.22481 8.256 6.96681C8.514 6.96681 8.514 6.70881 8.514 6.70881C8.772 6.45081 8.772 6.45081 9.03 6.45081C9.288 6.45081 9.288 5.93481 9.546 5.93481C9.804 5.93481 9.804 5.93481 10.062 5.67681C10.32 5.67681 10.32 5.67681 10.32 5.67681C10.062 5.93481 9.804 5.93481 10.062 5.93481C10.32 5.93481 10.32 5.93481 10.578 5.93481C10.578 5.67681 10.836 5.67681 10.578 5.67681C10.32 5.67681 10.32 5.41881 10.578 5.16081C10.578 5.16081 10.32 4.90281 10.32 5.16081C10.062 5.16081 9.804 5.16081 9.804 5.16081C10.062 5.16081 10.32 4.90281 10.32 4.90281C10.578 4.90281 10.836 4.90281 11.094 4.90281C11.352 4.90281 11.352 4.64481 11.61 4.64481C11.61 4.90281 11.352 5.16081 11.094 5.16081C11.094 5.16081 11.094 5.41881 11.352 5.41881H11.61C11.868 5.67681 12.126 5.41881 11.868 5.41881C11.868 5.16081 12.126 4.90281 11.868 4.90281C11.61 5.16081 11.61 4.90281 11.868 4.90281C11.868 4.64481 11.868 4.38681 11.868 4.38681C11.868 4.12881 11.352 4.12881 11.352 3.87081C11.61 3.87081 11.352 3.61281 11.352 3.35481L11.094 3.61281C10.836 3.61281 10.578 3.35481 10.836 3.35481C10.836 3.09681 10.578 3.09681 10.578 3.09681C10.32 3.09681 10.32 3.09681 10.062 2.83881C9.804 3.09681 9.804 3.35481 9.804 3.35481C9.804 3.61281 9.546 3.61281 9.546 3.61281C9.546 3.87081 9.546 4.12881 9.288 4.12881C9.03 4.12881 9.03 4.12881 9.03 4.38681C9.03 4.64481 8.772 4.64481 8.772 4.64481C8.772 4.64481 8.772 4.38681 8.772 4.12881C8.514 4.12881 8.256 4.12881 8.256 3.87081C7.998 3.87081 7.998 3.87081 7.74 3.87081C7.74 3.61281 7.998 3.61281 7.74 3.61281C7.74 3.35481 7.998 3.09681 8.256 3.09681C8.514 3.09681 8.772 2.83881 8.772 2.83881C9.03 2.83881 9.288 2.58081 9.288 2.58081C9.288 2.58081 9.03 2.83881 9.288 2.83881C9.546 2.83881 9.546 2.83881 9.804 2.83881C9.804 2.83881 9.804 2.58081 9.546 2.58081C9.546 2.32281 9.804 2.58081 9.804 2.58081C10.062 2.32281 10.062 2.32281 10.32 2.06481C10.32 1.80681 9.804 1.80681 10.32 1.80681C10.32 2.06481 10.578 1.80681 10.836 2.06481C10.836 2.06481 11.094 2.32281 10.836 2.32281C10.836 2.32281 10.836 2.58081 10.578 2.58081C10.32 2.58081 10.062 2.58081 10.32 2.83881H10.578C10.836 2.83881 10.836 3.09681 11.094 3.09681H11.352C11.352 2.83881 11.094 2.83881 11.352 2.83881C11.352 3.09681 11.61 2.83881 11.61 2.58081C11.61 2.58081 11.352 2.32281 11.61 2.58081C11.868 2.32281 11.868 2.83881 11.868 2.58081C12.126 2.58081 12.126 2.32281 12.126 2.32281C11.868 2.06481 11.61 2.06481 11.868 2.06481C11.868 1.80681 11.868 1.80681 11.61 1.80681C11.61 1.54881 11.352 1.54881 11.352 1.54881L11.094 1.29081C10.836 1.29081 11.094 1.54881 10.836 1.54881C10.836 1.54881 11.094 1.29081 10.836 1.29081C10.578 1.29081 10.32 1.54881 10.32 1.54881C10.578 1.54881 10.32 1.29081 10.32 1.29081C10.062 1.29081 10.062 1.54881 9.804 1.54881C9.546 1.80681 9.804 1.80681 10.062 1.80681C9.804 2.06481 9.546 2.32281 9.546 2.32281C9.546 2.06481 9.546 2.06481 9.546 2.06481C9.288 2.06481 9.546 1.80681 9.288 1.80681C9.546 1.80681 9.288 1.54881 9.288 1.54881C9.03 1.80681 9.03 1.80681 8.772 1.80681C9.03 2.06481 9.03 2.06481 8.772 2.06481C8.772 2.32281 8.514 2.06481 8.256 2.06481C8.256 2.06481 7.998 2.32281 7.74 2.06481C7.482 2.06481 7.482 2.06481 7.224 2.06481C7.224 2.06481 6.966 2.32281 6.708 2.32281V2.06481C6.45 2.06481 6.45 2.06481 6.192 1.80681C5.934 1.80681 5.934 2.06481 5.676 1.80681C5.676 1.80681 5.418 1.80681 5.16 1.80681C5.16 1.80681 4.902 2.06481 4.644 2.06481C4.644 2.06481 4.386 2.06481 4.128 2.06481C4.128 1.80681 3.87 1.80681 3.612 1.80681C3.612 1.80681 3.354 1.80681 3.096 1.80681C2.838 1.80681 2.838 1.80681 2.58 1.80681C2.322 1.80681 2.064 1.80681 1.806 1.80681C1.548 1.80681 1.548 2.06481 1.29 2.06481C1.032 2.06481 1.032 2.06481 1.032 2.32281C1.032 2.32281 1.29 2.32281 1.032 2.32281C1.032 2.58081 0.774 2.32281 0.516 2.32281C0.516 2.32281 0.258 2.58081 0.258 2.83881C0.516 2.58081 0.774 2.83881 0.774 2.83881C0.774 2.83881 0.516 2.83881 0.258 2.83881C0.258 2.83881 0 2.83881 0 3.09681H0ZM18.065 4.12881C17.807 4.12881 17.807 4.38681 17.807 4.38681C17.549 4.38681 17.807 4.64481 17.549 4.64481C17.549 4.64481 17.807 4.90281 17.807 4.64481C18.065 4.64481 18.065 4.64481 18.065 4.38681C18.323 4.38681 18.323 4.38681 18.323 4.38681C18.581 4.64481 18.065 4.38681 18.323 4.64481C18.065 4.64481 18.065 4.90281 18.323 4.90281C18.065 4.90281 18.065 5.16081 18.323 5.16081C18.323 4.90281 18.581 4.90281 18.839 4.90281C18.839 4.90281 19.097 4.90281 18.839 4.90281C19.097 4.64481 19.097 4.64481 18.839 4.64481C18.839 4.38681 18.581 4.12881 18.581 4.12881C18.581 3.87081 18.581 3.87081 18.581 3.87081C18.581 3.87081 18.323 3.87081 18.581 3.61281H18.323L18.065 3.87081C18.065 4.12881 18.065 4.12881 18.065 4.12881ZM13.677 0.515812C13.161 0.257812 12.903 0.515812 12.645 0.515812C12.387 0.515812 12.387 0.257812 12.387 0.257812C11.871 0.257812 11.613 0.515812 11.355 0.515812C11.097 0.515812 11.097 0.515812 11.355 0.515812C11.355 0.773812 11.613 0.773813 11.355 0.773813L11.097 1.03181C10.839 1.03181 10.581 1.03181 10.581 1.03181C10.581 1.28981 10.839 1.03181 10.839 1.28981C11.097 1.03181 11.097 1.28981 11.355 1.28981C11.613 1.28981 11.613 1.03181 11.871 1.03181C12.129 1.03181 12.387 0.773813 12.387 0.773813C12.387 0.773813 12.903 0.773812 13.161 0.515812V0.773813C13.161 0.773813 12.903 0.773813 12.645 0.773813C12.645 0.773813 12.129 0.773812 12.387 1.03181C12.387 1.03181 12.387 1.28981 12.645 1.03181C12.903 1.03181 13.161 1.03181 13.161 1.28981C13.419 1.28981 13.419 1.54781 13.419 1.54781C13.161 1.80581 13.677 1.80581 13.677 1.80581C13.419 1.80581 13.419 1.80581 13.419 2.06381C13.677 2.06381 13.161 2.06381 13.161 2.32181V2.57981C13.161 2.83781 13.161 3.09581 13.419 3.35381H13.677C13.935 3.61181 13.935 3.35381 13.935 3.09581C14.193 3.09581 14.193 3.09581 14.451 2.83781C14.451 2.57981 14.709 2.57981 14.709 2.57981C14.967 2.57981 15.225 2.57981 15.225 2.32181C15.483 2.32181 15.741 2.32181 15.741 2.32181C15.999 2.32181 16.257 2.06381 16.515 2.06381C16.773 1.80581 16.257 1.80581 16.515 1.80581C16.515 2.06381 16.773 2.06381 16.773 1.80581C16.773 1.54781 16.515 1.54781 16.515 1.54781C16.773 1.54781 17.031 1.54781 17.031 1.28981C17.289 1.28981 17.031 1.03181 17.289 1.03181V0.773813H17.547C17.805 0.515813 18.063 0.515812 18.063 0.515812C17.805 0.515812 17.547 0.515812 17.289 0.515812V0.257812C17.031 0.257812 16.773 0.257812 16.515 0.257812C16.257 0.257812 15.999 0.257812 15.741 0.257812C15.483 0.257812 15.225 0.515812 14.967 0.257812C14.709 0.515812 14.451 0.257812 14.193 0.515812C13.935 0.515812 13.677 0.515812 13.677 0.515812V0.515812ZM16.516 2.32281C16.516 2.32281 16.516 2.58081 16.774 2.58081C16.774 2.32281 17.032 2.58081 17.29 2.58081C17.29 2.32281 17.548 2.58081 17.29 2.83881C17.29 2.83881 17.032 2.83881 16.774 2.83881C16.774 2.83881 16.258 2.83881 16.516 2.83881C16.258 2.83881 16.516 2.58081 16.516 2.58081C16.258 2.58081 16.258 2.32281 16.516 2.32281V2.32281Z" fill="#1C2125"/>
<path d="M0 0H24V0.774H0V0Z" fill="#1C2125"/>
<path d="M0 23.2266H24V24.0006H0V23.2266Z" fill="#1C2125"/>
<path d="M0 0H0.774V24H0V0Z" fill="#1C2125"/>
<path d="M23.2266 0H24.0006V24H23.2266V0Z" fill="#1C2125"/>
</g>
<defs>
<clipPath id="clip0">
<rect width="24" height="24" fill="white"/>
</clipPath>
</defs>
</svg>
