<svg width="24" height="24" viewBox="0 0 24 24" fill="none" xmlns="http://www.w3.org/2000/svg">
<path d="M6.80959 13.1785C6.80959 9.99955 7.42759 7.62255 8.66259 6.04755C9.89759 4.47255 11.7256 3.68555 14.1446 3.68555C14.9776 3.68555 15.6346 3.75555 16.1136 3.89555V5.47755C15.5456 5.29355 14.8966 5.20055 14.1666 5.20055C12.4326 5.20055 11.1086 5.74155 10.1946 6.82155C9.28059 7.90155 8.77859 9.60055 8.68959 11.9165H8.82259C9.63359 10.6475 10.9176 10.0135 12.6726 10.0135C14.1256 10.0135 15.2706 10.4525 16.1076 11.3305C16.9446 12.2085 17.3636 13.3995 17.3636 14.9045C17.3636 16.5865 16.9046 17.9085 15.9866 18.8715C15.0686 19.8345 13.8276 20.3155 12.2636 20.3155C10.5886 20.3155 9.26159 19.6865 8.28059 18.4285C7.29959 17.1705 6.80859 15.4205 6.80859 13.1785H6.80959ZM12.2426 18.7555C13.2896 18.7555 14.1036 18.4255 14.6826 17.7655C15.2616 17.1055 15.5506 16.1525 15.5506 14.9055C15.5506 13.8365 15.2816 12.9955 14.7426 12.3825C14.2036 11.7695 13.4006 11.4645 12.3306 11.4645C11.6666 11.4645 11.0586 11.6015 10.5046 11.8745C9.95059 12.1475 9.51059 12.5235 9.18259 13.0035C8.85459 13.4825 8.69059 13.9805 8.69059 14.4975C8.69059 15.2575 8.83859 15.9655 9.13259 16.6215C9.42659 17.2775 9.84659 17.7985 10.3886 18.1815C10.9306 18.5655 11.5486 18.7565 12.2416 18.7565L12.2426 18.7555Z" fill="#1C2125"/>
<path d="M23.9598 23.872H0.214844V0.126953H23.9598V23.872ZM0.980844 23.106H23.1938V0.892953H0.980844V23.106V23.106Z" fill="#1C2125"/>
</svg>
