<svg xmlns="http://www.w3.org/2000/svg" xmlns:xlink="http://www.w3.org/1999/xlink" style="display:none"><symbol  viewBox='0 0 16 16' id='icon-add'>
    
  <path d="M14.5,6.5h-5v-5C9.5,0.7,8.8,0,8,0S6.5,0.7,6.5,1.5v5h-5C0.7,6.5,0,7.2,0,8s0.7,1.5,1.5,1.5h5v5C6.5,15.3,7.2,16,8,16
  	s1.5-0.7,1.5-1.5v-5h5C15.3,9.5,16,8.8,16,8S15.3,6.5,14.5,6.5z"></path>

  </symbol><symbol  viewBox='0 0 16 16' id='icon-arrow'>
    
<path d="M8.9,0.4l6.7,6.7c0.5,0.5,0.5,1.3,0,1.9c-0.5,0.5-1.3,0.5-1.9,0L9.3,4.5v10.1C9.3,15.5,8.8,16,8,16s-1.3-0.5-1.3-1.3V4.5
	L2.3,8.9c-0.5,0.5-1.3,0.5-1.9,0s-0.5-1.3,0-1.9l6.7-6.7l0,0C7.6-0.1,8.4-0.1,8.9,0.4z"></path>

  </symbol><symbol  viewBox='0 0 16 16' id='icon-chevron'>
    
<path d="M0,11.2c0-0.4,0.2-0.8,0.5-1.1l6.5-6.5C7.6,3,8.6,3,9.2,3.6l6.5,6.5c0.5,0.7,0.4,1.7-0.3,2.3c-0.6,0.4-1.4,0.4-1.9,0L8.1,7
	l-5.3,5.3c-0.6,0.6-1.7,0.6-2.3,0C0.2,12,0,11.6,0,11.2z"></path>

  </symbol><symbol  viewBox='0 0 16 16' id='icon-gear'>
    
<path d="M15,6.7l-1.8-0.6C13,6,12.9,5.8,13,5.7L13.9,4c0.6-1.2-0.7-2.5-1.9-1.9L10.3,3C10.2,3.1,10,3,9.9,2.8L9.3,1
	C8.9-0.3,7.1-0.3,6.7,1L6.1,2.8C6,3,5.8,3.1,5.7,3L4,2.1C2.8,1.5,1.5,2.8,2.1,4L3,5.7C3.1,5.8,3,6,2.8,6.1L1,6.7
	c-1.3,0.4-1.3,2.3,0,2.7l1.8,0.6C3,10,3.1,10.2,3,10.3L2.1,12c-0.6,1.2,0.7,2.5,1.9,1.9L5.7,13c0.2-0.1,0.4,0,0.4,0.2L6.7,15
	c0.4,1.3,2.3,1.3,2.7,0l0.6-1.8c0.1-0.2,0.3-0.3,0.4-0.2l1.7,0.9c1.2,0.6,2.5-0.7,1.9-1.9L13,10.3c-0.1-0.2,0-0.4,0.2-0.4L15,9.3
	C16.3,8.9,16.3,7.1,15,6.7z M8,10.4c-1.3,0-2.4-1.1-2.4-2.4S6.7,5.6,8,5.6s2.4,1.1,2.4,2.4S9.3,10.4,8,10.4z"></path>

  </symbol><symbol  viewBox='0 0 16 16' id='icon-info'>
    
<path d="M8,16c-4.4,0-8-3.6-8-8s3.6-8,8-8s8,3.6,8,8S12.4,16,8,16z M8,2C4.7,2,2,4.7,2,8s2.7,6,6,6s6-2.7,6-6S11.3,2,8,2z M8,12
	c-0.6,0-1-0.4-1-1V8c0-0.6,0.4-1,1-1s1,0.4,1,1v3C9,11.6,8.6,12,8,12z M8,6C7.4,6,7,5.6,7,5s0.4-1,1-1s1,0.4,1,1S8.6,6,8,6z"></path>

  </symbol><symbol  viewBox='0 0 16 16' id='icon-maintenance'>
    
<path d="M8,16c-4.4,0-8-3.6-8-8s3.6-8,8-8s8,3.6,8,8S12.4,16,8,16z M8,2.1C4.7,2.1,2.1,4.7,2.1,8s2.6,5.9,5.9,5.9s5.9-2.6,5.9-5.9
	S11.3,2.1,8,2.1z M10.7,7.5h-0.5c-0.3,0-0.5-0.2-0.5-0.5l0,0H7.5l0,0H7c-1.1,0-1.5,0.7-1.5,0.7C5.4,7.8,5.3,7.9,5.2,7.9
	c-0.1,0-0.1,0-0.1,0C4.9,7.8,4.8,7.6,4.8,7.4c0,0,0.1-0.6,0.4-1.3c0.4-0.8,1-1.2,1.8-1.3l0,0h2.6h0.1c0-0.3,0.2-0.5,0.5-0.5h0.5
	c0.3,0,0.5,0.2,0.5,0.5v2.1C11.2,7.3,11,7.5,10.7,7.5z M7.4,7.5h1.3c0.2,0,0.4,0.2,0.4,0.4v4.1c0,0.2-0.2,0.4-0.4,0.4H7.4
	c-0.2,0-0.4-0.2-0.4-0.4V7.8C6.9,7.6,7.1,7.5,7.4,7.5z"></path>

  </symbol><symbol  viewBox='0 0 16 16' id='icon-search'>
    
<path d="M15.6,13.5l-4-4c0.6-1,1-2.1,1-3.3C12.5,2.8,9.8,0,6.3,0C2.9,0,0,2.8,0,6.2s2.8,6.2,6.3,6.2c1.2,0,2.2-0.3,3.1-0.9l4,4.1
	c0.5,0.5,1.5,0.5,2.1,0C16.1,15,16.1,14.1,15.6,13.5z M6.5,9.4c-1.8,0-3.3-1.5-3.3-3.2C3.2,4.4,4.7,3,6.5,3s3.3,1.5,3.3,3.2
	C9.7,8,8.3,9.4,6.5,9.4z"></path>

  </symbol><symbol  viewBox='0 0 16 16' id='icon-star'>
    
<path d="M8.2,0C8.1,0,8.1,0,8,0c0,0,0,0,0,0c0,0,0,0,0,0C7.9,0,7.6,0,7.4,0.3C7.2,0.6,6.8,1.3,6.1,3.2
	C5.8,4,5.5,4.7,5.4,5.1C4.9,5.1,4,5.2,3.2,5.3C2.4,5.4,1.8,5.4,1.4,5.5C0.5,5.6,0.3,5.7,0.2,5.8C0,6,0,6.1,0,6.3
	c0,0.3,0.2,0.8,2,2.4c0.6,0.5,1.2,1,1.5,1.3c-0.2,0.5-0.4,1.4-0.7,2.3c-0.2,0.8-0.4,1.4-0.5,1.9c-0.2,0.9-0.3,1.2,0,1.5
	c0.1,0.1,0.2,0.1,0.3,0.2c0.1,0,0.1,0,0.2,0c0.2,0,0.7,0,3-1.3c0.9-0.5,1.7-1,2.2-1.2c0.4,0.3,1.3,0.8,2.2,1.3
	c1.4,0.8,2.2,1.1,2.6,1.2C13,16,13.1,16,13.2,16c0.3,0,0.4-0.1,0.5-0.2c0.3-0.3,0.2-0.6,0-1.5c-0.1-0.5-0.3-1.1-0.5-1.9
	c-0.3-0.9-0.6-1.8-0.7-2.3c0.3-0.3,0.9-0.8,1.5-1.3c1.8-1.6,2-2.1,2-2.4c0-0.2,0-0.4-0.2-0.5c-0.1-0.1-0.2-0.1-0.3-0.2
	c-0.2,0-0.4-0.1-0.9-0.1c-0.4-0.1-1-0.1-1.8-0.2c-0.9-0.1-1.7-0.2-2.2-0.2C10.5,4.7,10.2,4,9.9,3.2c-0.8-2-1.1-2.6-1.3-2.9
	C8.5,0.1,8.3,0.1,8.2,0L8.2,0z"></path>

  </symbol></svg>