<?xml version="1.0" encoding="utf-8"?>
<!-- Generator: Adobe Illustrator 19.2.1, SVG Export Plug-In . SVG Version: 6.00 Build 0)  -->
<!DOCTYPE svg PUBLIC "-//W3C//DTD SVG 1.1//EN" "http://www.w3.org/Graphics/SVG/1.1/DTD/svg11.dtd">
<svg version="1.1" id="Layer_1" xmlns="http://www.w3.org/2000/svg" xmlns:xlink="http://www.w3.org/1999/xlink" x="0px" y="0px"
	 viewBox="0 0 80 80" style="enable-background:new 0 0 80 80;" xml:space="preserve">
<style type="text/css">
	.st0{fill:#B3E6FF;}
	.st1{fill:#EBB286;}
	.st2{fill:#FFD6A8;}
	.st3{fill:#635040;}
	.st4{fill:#705A42;}
	.st5{fill:#DEA281;}
	.st6{fill:#2997CF;}
</style>
<rect class="st0" width="79.9" height="79.9"/>
<path class="st0" d="M147.2,0c-22.1,0-40,17.9-40,40c0,13.6,6.9,25.7,17.3,32.9c1.6-4.3,5-9,12.3-9c0,0,0.1,0.4,0.4,1.1v-5.5
	c-3.4-2.2-5.9-5.8-7.7-10.5c-0.4-1.1-0.7-2.1-1-3.1c-0.2-0.3-3-4-5.1-9.1c-3.6-9.1,4.3-18.3,4.3-18.3c9.1-9.7,23.6-9.1,28.3-4.6
	c4.7,4.6,4.3,6.3,4.3,6.3s8.4,1.1,8.4,10.3s-3.1,15.4-3.1,15.4s0,0,0-1c-0.3,1.3-0.7,2.7-1.3,4.2c-1.7,4.6-4.2,8.1-7.4,10.3V64
	c0.2-0.2,0.1-0.3,0.1-0.3c7.5,0,11,4.7,12.6,9.2c10.5-7.2,17.3-19.3,17.3-32.9C187.1,17.9,169.2,0,147.2,0z"/>
<path class="st1" d="M146.7,70.6c8.1,0,9.9-5.4,10.3-6.6v-5.7c-2.9,2-6.3,3-10.2,3c-3.8,0-7.2-1-9.9-2.8V65
	C137.7,66.9,139.9,70.6,146.7,70.6z"/>
<path class="st2" d="M145.5,56.6l-4.1-3.4c-0.3-0.2-0.4-0.8-0.3-1.1c0.1-0.3,0.4-0.8,0.8-0.8h10.2c0.4,0,0.7,0.5,0.8,0.8
	c0.1,0.4,0,0.9-0.3,1.1l-4.3,3.4h8.7v2.7c3.2-2.2,5.7-5.7,7.4-10.3c0.5-1.4,0.9-2.8,1.3-4.2c0-0.6,0-1.6,0-3.3
	c0-9.4-9.8-13.5-9.8-13.5s-5.2,4.5-13.7,8.6c-9.4,4.6-14.1,0-14.1,0l0.4,9.1c0,0,0,0,0,0c0.3,1,0.6,2.1,1,3.1
	c1.8,4.7,4.3,8.2,7.7,10.5v-2.9H145.5z M155.9,41.1c1.3,0,2.4,1.1,2.4,2.4s-1.1,2.4-2.4,2.4s-2.4-1.1-2.4-2.4S154.6,41.1,155.9,41.1
	z M135.8,43.5c0-1.3,1.1-2.4,2.4-2.4s2.4,1.1,2.4,2.4s-1.1,2.4-2.4,2.4S135.8,44.8,135.8,43.5z"/>
<path class="st2" d="M157.1,59.3v-2.7h-8.7l-1,0.7c-0.2,0.1-0.3,0.1-0.5,0.1c-0.2,0-0.4-0.1-0.5-0.2l-0.8-0.7h-8.3v2.9
	c2.7,1.9,6,2.8,9.8,2.8C150.9,62.3,154.2,61.3,157.1,59.3z"/>
<circle class="st3" cx="138.2" cy="43.5" r="2.4"/>
<circle class="st3" cx="155.9" cy="43.5" r="2.4"/>
<path class="st4" d="M165.7,44.8c0,1,0,1,0,1s3.1-6.3,3.1-15.4s-8.4-10.3-8.4-10.3s0.4-1.7-4.3-6.3c-4.7-4.6-19.2-5.2-28.3,4.6
	c0,0-7.9,9.1-4.3,18.3c2.1,5.2,4.8,8.8,5.1,9.1l0,0c0,0,0,0,0,0l-0.4-9.1c0,0,4.7,4.6,14.1,0c8.4-4.1,13.7-8.6,13.7-8.6
	s9.8,4.1,9.8,13.4c0,1.5,0,2.5,0,3.2C165.7,44.8,165.7,44.8,165.7,44.8z"/>
<path class="st5" d="M152.9,52.1c-0.1-0.4-0.4-0.8-0.8-0.8h-10.2c-0.4,0-0.7,0.5-0.8,0.8c-0.1,0.3,0,0.9,0.3,1.1l4.1,3.4h2.8
	l4.3-3.4C152.9,53,153.1,52.5,152.9,52.1z"/>
<path class="st5" d="M146.4,57.2c0.2,0.1,0.3,0.2,0.5,0.2c0.2,0,0.4,0,0.5-0.1l1-0.7h-2.8L146.4,57.2z"/>
<path class="st6" d="M157.2,63.7c0,0,0,0.1-0.1,0.3v7.3h-19.8v-6.3c-0.3-0.6-0.4-1.1-0.4-1.1c-7.3,0-10.7,4.7-12.3,9
	c6.4,4.4,14.2,7,22.6,7c8.4,0,16.2-2.6,22.6-7C168.2,68.5,164.7,63.7,157.2,63.7z"/>
<path class="st6" d="M157.1,71.3V64c-0.5,1.2-2.2,6.6-10.2,6.6c-6.7,0-8.9-3.8-9.7-5.7v6.3H157.1z"/>
<g>
	<path class="st1" d="M40,69.5c4.3,0,8-2.3,10.1-5.7V51.5c-2.1-3.4-5.8-5.7-10.1-5.7c-4.3,0-8,2.3-10.1,5.7v12.4
		C32,67.3,35.7,69.5,40,69.5z"/>
</g>
<path class="st2" d="M48.8,28.1c0,0-5.2,4.5-13.7,8.6c-9.4,4.6-14.1,0-14.1,0l0.4,9.1c0,0,0,0,0,0c0.3,1,0.6,2.1,1,3.1
	c1.8,4.7,4.3,8.2,7.7,10.5v0c2.7,1.9,6,2.8,9.8,2.8c3.9,0,7.2-1,10-3c3.2-2.2,5.7-5.7,7.4-10.3c0.5-1.4,0.9-2.8,1.3-4.2
	c0-0.6,0-1.6,0-3.3C58.5,32.2,48.8,28.1,48.8,28.1z M28.6,43.5c0-1.3,1.1-2.4,2.4-2.4c1.3,0,2.4,1.1,2.4,2.4s-1.1,2.4-2.4,2.4
	C29.7,45.9,28.6,44.8,28.6,43.5z M40.2,57.3c-0.2,0.1-0.3,0.1-0.5,0.1c-0.2,0-0.4-0.1-0.5-0.2l-0.8-0.7h0l-4.1-3.4
	c-0.3-0.2-0.4-0.8-0.3-1.1s0.4-0.8,0.8-0.8H45c0.4,0,0.7,0.5,0.8,0.8s0,0.9-0.3,1.1l-4.3,3.4L40.2,57.3z M48.7,45.9
	c-1.3,0-2.4-1.1-2.4-2.4s1.1-2.4,2.4-2.4c1.3,0,2.4,1.1,2.4,2.4S50,45.9,48.7,45.9z"/>
<circle class="st3" cx="31" cy="43.5" r="2.4"/>
<circle class="st3" cx="48.7" cy="43.5" r="2.4"/>
<path class="st4" d="M58.5,44.8c0,1,0,1,0,1s3.1-6.3,3.1-15.4s-8.4-10.3-8.4-10.3s0.4-1.7-4.3-6.3c-4.7-4.6-19.2-5.2-28.3,4.6
	c0,0-7.9,9.1-4.3,18.3c2.1,5.2,4.8,8.8,5.1,9.1l0,0c0,0,0,0,0,0s-0.9-9.1,1.3-8c2.1,1,6.3,1.9,12.4-1.1c8.4-4.1,13.7-8.6,13.7-8.6
	s9.8,4.1,9.8,13.4c0,1.5,0,2.5,0,3.2C58.5,44.8,58.5,44.8,58.5,44.8z"/>
<path class="st5" d="M45.8,52.1c-0.1-0.4-0.4-0.8-0.8-0.8H34.8c-0.4,0-0.7,0.5-0.8,0.8s0,0.9,0.3,1.1l4.1,3.4h2.8l4.3-3.4
	C45.8,53,45.9,52.5,45.8,52.1z"/>
<path class="st5" d="M39.2,57.2c0.2,0.1,0.3,0.2,0.5,0.2c0.2,0,0.4,0,0.5-0.1l1-0.7h-2.8L39.2,57.2z"/>
<path class="st6" d="M49.4,63.9H30.6c-7.4,0-13.7,5.3-15,12.5L14.9,80h50.3l-0.7-3.6C63.1,69.1,56.8,63.9,49.4,63.9z"/>
</svg>
